<?xml version="1.0" encoding="utf-8"?>
<!-- Generator: Adobe Illustrator 25.2.1, SVG Export Plug-In . SVG Version: 6.00 Build 0)  -->
<svg version="1.1"
	 id="svg2" inkscape:version="0.48.2 r9819" xmlns:cc="http://creativecommons.org/ns#" xmlns:dc="http://purl.org/dc/elements/1.1/" xmlns:inkscape="http://www.inkscape.org/namespaces/inkscape" xmlns:rdf="http://www.w3.org/1999/02/22-rdf-syntax-ns#" xmlns:sodipodi="http://sodipodi.sourceforge.net/DTD/sodipodi-0.dtd" xmlns:svg="http://www.w3.org/2000/svg"
	 xmlns="http://www.w3.org/2000/svg" xmlns:xlink="http://www.w3.org/1999/xlink" x="0px" y="0px" viewBox="0 0 716 650"
	 style="enable-background:new 0 0 716 650;" xml:space="preserve">
<style type="text/css">
	.st0{fill:#FEFEE9;stroke:#646464;}
	.st1{fill:#FEFEE9;stroke:#646464;stroke-width:0.75;}
	.st2{fill:#C6ECFF;stroke:#0978AB;stroke-width:0.5;}
</style>
<sodipodi:namedview  bordercolor="#666666" borderopacity="1.0" fit-margin-bottom="0" fit-margin-left="0" fit-margin-right="0" fit-margin-top="0" id="base" inkscape:current-layer="layer3" inkscape:cx="358" inkscape:cy="325" inkscape:document-units="px" inkscape:pageopacity="0.0" inkscape:pageshadow="2" inkscape:snap-grids="false" inkscape:snap-nodes="false" inkscape:snap-page="true" inkscape:snap-to-guides="false" inkscape:window-height="1059" inkscape:window-maximized="1" inkscape:window-width="1920" inkscape:window-x="-6" inkscape:window-y="-6" inkscape:zoom="1.3569231" pagecolor="#ffffff" showgrid="false">
	</sodipodi:namedview>
<g id="layer2" inkscape:groupmode="layer" inkscape:label="OSM" sodipodi:insensitive="true">
	<path id="path3013" inkscape:connector-curvature="0" class="st0" d="M2.6,250.9l0.3-0.9l0.7-1l0.2-1.1l0.4-0.3l0.6,0.5l0.9,1.1
		l0.7,0.1l1.3-0.5l2,0.3l1-0.4l0.9-0.7l0.7-0.4l1.4-0.3l1.5-1.4l0.4-0.5l0.6-1.6l0.3-0.4l1.1-0.9l0.5-0.6l0.4-0.9h-0.1l0.9-3.5
		l0.9-2.1v-0.6l-0.6-1.1l-1.6-1.8h-0.1v-0.1h-0.1l-0.3-0.7l0.1-0.6l0.5-0.6l1.4-0.3l0.9-0.1l0.7-0.6l0.6-1l0.6-0.5l1-0.3V227
		l0.4-0.3v-0.1h0.1l0.6-2.2h0.1l1-1.6l0.4-0.6l0.9-0.3v-0.1h0.9v-0.1l0.7-0.1v-0.1h0.1v-0.1h0.1V221h0.1l0.4-1.2l0.2-2.6l-0.2-1.4
		l-0.3-0.8v-0.8l1.2-1.5l-0.1-0.9l-0.5-0.7V211h-0.1l-0.1-1.5h-0.1l-0.6-0.7l-0.5-0.4v-0.1h-0.1v-0.8H28l0.5-0.9l1.4-1l0.2,1.5
		l-1.1,0.8l0.5,0.1l0.1,0.6l-0.1,0.5l0.7,0.9h0.2l0.6-1.8l0.5-0.9l1.3-0.9l0.2-0.4l1.5,0.3l0.6,0.5l0.6,0.1l-0.4,0.6l-1.3,1v0.1
		L36,208l0.7,0.8l-0.1,0.6l-0.4,0.1l-0.3,0.4l-1.4,0.6v0.1l-1.5,0.4l0.7,0.6l0.1-0.1l0.4,0.4h-0.1l0.4,0.2l0.1-0.2h0.1l0.3-0.4
		l-0.3-0.1l0.3-0.5l0.4-0.3l0.9,0.9l0.3-0.3l1,1.1l0.4-0.3l0.4,0.3v-0.1l0.1,0.1l0.5-0.6h0.3v0.3l-1.3,1.4l-1.1,0.5l0.5,0.5l0.4-0.2
		V214h0.1v-0.1H38v-0.1l0.3-0.1l0.1-0.2h0.1v-0.1h0.1l0.1-0.5h0.1l0.1-0.4h0.1l0.3-0.4h0.1v-0.1l0.4-0.1v-0.1H40l0.5-0.9l0.4-0.9H41
		v-0.2h0.1l0.4-0.9l2-5.2h0.1l0.7-1.7l0.5-0.4l1.4-0.3l0.6,0.1l0.3-0.2H47l-0.2-1h0.1v-0.1l0.7-0.1l0.3,0.1l0.4-0.1l0.2,0.8v0.8
		l0.3,0.6v0.3h-0.1h0.1l0.1,0.4L50,203l1.5,0.1l0.3-0.1l0.4-0.6l0.1-0.6h0.1l0.1-0.5l0.4-0.1V201l0.4-0.1v-0.1h0.1l0.1-0.3h0.1v-0.2
		h0.1l0.1-0.5H54v-0.1h0.1v-0.1l0.6,0.2v0.1L55,200l0.4,1l-0.1,1.9l1,0.4l1.1,0.1l0.6,0.4l1,1.5l0.7,0.4l3.9-2.4l0.7-0.9h0.1v-0.1
		h0.1l0.1-0.5h0.1l0.1-2h0.1l0.1-0.6h0.1V199h0.1v-0.1h0.1v-0.1l1.6-0.1l0.3,0.1v-1.3h-0.3v-0.1l1.6,0.4l1-0.5l0.5,0.1l1-0.4
		l1.5,0.5l0.5,0.5l0.4,1.2l0.4,1.4l0.2,0.1v0.1h1v-0.1l0.5-0.3l0.1-0.4h0.1l0.8-2l0.6-0.4h0.8v0.1l1.6,0.1l0.3-0.6l-0.5-2h0.1v-0.1
		l0.9-0.8l0.6-0.2l0.5,0.1l0.3-0.5l0.6-0.1l0.1,0.7l-0.1,0.4l0.5,0.4l0.2-1.4l1.3-1.9l0.8-0.6l1.5-0.1l0.1,0.5l-0.1,0.6l-0.4,0.5
		l-0.5,0.3l-1,0.1l-0.4,0.3l-0.1,0.5l0.3,0.8l0.4,0.5l1.4,0.8H88l1.6-0.5l0.4-0.4l0.8-1.8l0.5-0.5h0.5l0.8,0.5l0.1-1.2l1.1-1.5
		l1.2,0.1l0.5-0.4l2.4,0.5l0.5-0.3l0.6-1l0.4-1l-0.5-0.8l-0.8-0.8l-0.9-0.1l-0.5,0.1l-0.4-2.8l1.4-2h0.1l-0.1,0.8l0.1,0.5H98
		l0.3-1.5l0.3-0.2h0.2l0.3,0.2l0.4-0.1l0.8,0.6h0.3l-0.1-0.3h-0.4l-0.2-0.4l2.4-1.6l-0.6-0.6l1-1.9h0.6l0.6-0.3l1.3-1.7l-0.4-0.5
		v-0.2l0.4-0.4l-0.3-0.6h0.1v0.1l0.4,0.1v0.1l1.5,0.5v0.1h0.4v0.1h0.4v0.1l0.4,0.1l0.1,0.5h0.1v0.1h0.3v0.3h0.1v0.5h-0.1l3-0.4
		l-0.9-1.5l1.3-0.6l0.4,0.6h1.1l1-0.2l0.3-0.3l1,0.1l1,1.4l2.1-0.8l2.6-1.5h0.7l0.5,0.4l-0.5,1.9l0.1,0.6l-1.2,2.1l-2.4,2.4
		l-2.6-0.6l-1.6-0.8l-2.5,2.4l-1.1,3.3l0.1,4.1l-1.4,2l0.3,2.1l1.5,0.9l-2.1,1.1l1.1,1.1l-0.5,0.8l1.4,0.9l-0.6,1.2l2.7,1.6
		l-1.5,0.7l2.5,2.8l-1,0.9l-1.6-0.3l-1.2-2l-1.1-0.5l-2,1.2l0.1,1.2l-1.1,0.1l0.6,1l-1.7-0.1l-0.8,2.2l1.1,0.5l2,1.3l0.8,2.7h0.6
		l1.7,1.4h2l-0.5,2.7l2.8-0.1l0.6,1l2.6,2l2.5,0.8l0.3,4.2l1.5,0.5l1.4,2.5l0.7,0.5l1,2.6l0.8,2.6l0.6,3.4l1.4,2.1l-0.9,2.2H126
		l0.5,2.6l3.9-1.9l9.5,0.8l2.6,1.1l2.7,13.5l4.1-2.2l0.3,0.9l-0.3,3.3l4.8,1.9h4.1l0.9,0.5l-0.5,3.4L157,265v3.1l-8.8-0.5l-0.4,15.6
		l1.8,3.1l-1.8,4.3l-0.1,3.1l0.4,4l-1,0.1l-0.2,1.1l0.1,1.8l-1.1,0.8l-2.1-0.5l-2.6,1.6l-0.6-0.3l-0.8-9l-1.9,0.1l-0.5-1.1l-0.5,1.5
		l-1.5,0.8l0.1,2.5l-0.4,2.2l0.1,3l1.5,2.2l0.1,2.5l-1.1,1.5l-2,0.1l-2.1,1.2l-0.7,2l-0.8,1.1l-3-0.3l-1.1-0.5l-3.5,0.4l0.2,2
		l1.4,1.5l1.9,0.3l-0.8,1.7l0.4,2l0.6,0.5l-0.7,0.9l0.5,0.4l1.4-0.5l1.1,1.2l1.1,1l0.8,3.9l2.1,2.4l2.1,1.1l-2.1,2v2l-1.6-0.8h-2.2
		l-1.6-0.6l-0.4,1.2l1.9,1.2l2.6,0.4l2.5,1.8l1.5,5l-0.8,1.3l0.1,0.6l-0.9,0.1l-1.4-1.1l-2.4,1.4l-0.4,1.8l0.1,2l-1.8,0.4l-2.1-0.1
		l0.7,3.4l-3.4,0.6l-0.5,1.1l-1.4-1.3l-2.2,2.6l-0.9,2.4l-1,1l-0.5,1h-1l-0.6-1.2l0.4-1.1l-1.3-0.4l-3.4-3.3l-1.6-2.1l0.9-0.2
		l0.3-0.8l1.1-1.6l-3.9-4.5l-1-2l0.6-0.4l-0.6-0.5l0.6-2l-0.9-0.2l-0.5,0.9l-1,0.4l-0.1,1.4h-0.4l-0.1-2l-5.8-3.9l-2-0.1l-1.5-1.1
		l-2.1-3.4l-2.2-4.9l-1.5-1.1l-0.4-0.9l0.1-2.9l-0.9-0.4l-0.5-0.8l-0.1-0.5l0.6-2l-0.8,0.3l0.4-0.5v-0.4l-1,0.1l1.2-1.9l-0.1-0.8
		l-0.8-1l-1,0.1l-0.1-1.1l-2.5-1.7l-4.2,4.7l-3.1-2.5l-0.4-0.9l-1.2-0.4l0.4-1l0.6-1l0.6-2.5l4.9-2.1l0.1-1.6l-0.5-0.8l-0.9-0.6
		l-1.5,0.2l-0.4-0.6l-1.9,0.2l-1.4,1.1l-0.2-0.5l0.9-1.1l-0.3-0.6l-1.9-0.1l-0.4,0.5v0.5l-1,0.9l-0.8-0.5l0.4-0.5l3-2.2l-0.5-0.2
		l-0.9,0.8l-0.9,0.5h-1.1l-1.4,0.9l-0.9-1.5l-0.8,0.5l-0.8-0.8l-1.4,1.1l-3.1-0.1l-0.3-1.6l-0.6-0.9l-0.6,0.5v-1.1l-2.6,2.4h-0.5
		l4.8-5.2l-0.4-3.5l0.5-6.7l3-6.5l0.5-0.3l0.2-1h1.1l0.5,1.1l0.6,0.8l0.9-0.4l0.2,1.1h0.4l0.3-0.4l-0.1-0.9l-0.8-1.1l-3.7-1.4
		l-1.1-0.1l-0.5-1.5h-0.4v-0.8l0.9-0.4l-0.1-0.8h-0.5l-0.9,0.5l1.2-2.9l-2-1.5l-1.8,1.1l-0.3-0.9l0.9-0.8l-0.3-1.2l-2.2-0.5
		l-0.3-2.6l-2.1,0.6l-0.7-0.2l-0.1-0.5l-0.2-0.1l-0.5,0.5v0.6l0.4,1l1,0.9l-1.5,1h-0.3l-0.7-0.8l-0.4-0.9v-0.6l1-0.9v-0.4l-1.5,0.1
		l-1.9,0.5l-0.1-0.6l1.2-1.6l-0.5-0.6l0.5-1.1l-1.6-1.4l0.1-0.9l-0.9-0.1l-0.9-0.9l-0.1-0.8l0.1-0.4l-0.4-0.1l0.6-1.9h-0.5v-0.5
		l-0.4-0.7l-1-0.1l-0.5,0.7v0.5l0.6,1v0.5l-1.4-0.1v-0.5l-0.3-0.2l-1-0.4l0.4-1.8l-0.4-0.5l-2,1.6l-0.5-0.6l-2.4-0.4v-2.1h-0.4
		l-2.2,0.9l-1.6,0.1l-0.4-1.1h-0.4l-0.9-0.6l-0.9,0.7l-2-0.3l-0.1-0.9l1.7-0.4l0.1-0.6l-0.5-0.9l-2.5,1.4l-1.4-1.5l0.9-1.9l1.5-0.1
		l0.4-4.4l-0.9,0.1l-1.1-0.5l-0.9-0.9l0.1-0.5l0.5-0.6l-0.1-0.5l-2.2,0.9l-0.5,1.8l0.5,1.6l-1.4,0.1l-0.4,0.6l-0.1,1.8L25,246
		l-0.6,0.6v0.4l0.6,1.1v0.5l-0.7-1l-0.7,0.1l-0.3,0.5l0.1,1l1.6,1.9l-0.7,0.5l-1.3-0.7l0.1-0.9l-0.4-0.9v-0.6l0.9-2.9l-0.5,0.1
		l-5.2-0.5l-0.4,0.5l0.2,2l0.6,1.6l1.6,1.9l-0.1,0.8l-0.4,0.2l-1.5-0.5l-3.3,0.4l-0.1-2l-0.9-1.6l-0.7,0.1l-0.6-0.1l-1,1.9l-0.4,2.5
		l-2,0.4l-0.6,0.5l-0.5,1.1l0.1,1.3l-2.1-0.3l-0.5-2.2H5.1l-0.6-1l-0.3-0.1L4,252.9l0.1-0.8L4,251.9l-1.3-0.6L2.6,250.9"/>
	<path id="path3023" inkscape:connector-curvature="0" class="st0" d="M338.8,322.5l0.1-4l1-3.3l3-4.9l2.9-3l0.3-2l-2.9-1.4v-1.1
		l1-0.5l2.2,0.1l1.6-1l-1.1-1.5l-6.3-5.9l1.1-2l0.3-1.9l0.9-1.8l0.4-2.4l-0.8-1l0.5-3.1l0.9-1.1v-1.4l0.6-1.8l2.2,1l1.4,1l1.1,0.1
		l0.5-0.5l0.2,1.1l1.4,0.6l1.6-2l1.5-4.1l0.8-3l1-1.9l2-2.4l1.5,0.4l1.6,1.1l2.2,2.1l3-5.7l-2.6-0.1l-0.6-0.3l-0.8-2l0.3-1.9
		l-0.5-1.6l1.1-0.9l2.5-0.1l0.5-1.1l-1.6-2.4l-4-3.2l-2.1-1.5l6.2-7.1l-3.9-2.5l0.1-4.2l3.6-1.4l1.4-0.3l1.4-1.5l0.9-1.7l1.6-1.8
		l1.2-0.6l1.4-1.4l0.6-0.9l1.2,0.1l0.5-1.8l1.8-0.3v-0.8h0.5v-0.7l0.8-2.5l0.6,0.2l-0.1,1.8l3,1.1l-0.3,1.4l-1,2.4l2.5,2.6v0.9
		l-1.2,1.8l-1.8,0.4l0.9,1.6l1.3,1.3l1.6-1l0.9-0.8v-1.1l3.3-0.5l2.2,1.2l0.5-0.6v-3.7l1.3,0.4l2,2.2l1.6,0.1l-1.4,2v3.1l-1.1-0.4
		l1.1,3l5.2,0.3l1.2,2.9l-1.8-0.1l0.5,2.2h3.2l-0.2,3.1l-3.3-0.3l-0.8,8.1l12,1.4l-0.8,3.1l1.9-0.3l-1.2,5l2.5,0.9l1,3.8l0.6,0.2
		l1-1.4l-0.1-1.9l5.4,0.1l1.3,1.8l2-3.1l2.4,6.5l1.9,2.4l0.8,7.1l-0.5,3.7l0.8,1l-0.5,1.7l-1.4-0.4l-0.5,3.1l1.1,2.2l-0.3,1.5
		l-3.5,0.2l0.5,1.5l1.9,2l0.8,0.5l2.4-0.9l1.1,1.4l-1.4,1.5l0.9,1.3h1.4l1,0.5l-1.7,5.7l-0.4-0.2l-0.5,0.2l-0.6,0.9l-1.8,1.6
		l1.9,1.4l0.1,0.4l-0.1,1l1,1.1l0.6,1.1h-1.7v0.3l0.4,0.3h0.4l0.2,0.4v1l1.4,0.1l0.4-1.4l0.4-0.3l2.1,1.1l0.8,0.1l0.2,0.5l-1,2.6
		l0.1,0.3l0.3,0.1l0.2,0.4l-0.1,1l-0.6,0.6l-0.9,0.1l0.1,1.2l-0.2,0.9v1.4l-0.4,0.9l-0.5,0.3l-0.2,0.4v0.6l1.1,1.6l2,0.9v0.5
		l-0.4,0.5l0.5,0.8l-0.4,0.6l-0.8,0.6l0.3,0.6l2.9,0.5l0.5,0.4l-5,4.5l-0.6,0.3l-0.9-0.8l-0.9-0.3l-0.2,1.1l-0.8,0.5l-0.9,0.1
		l-1.2-0.8l-1-1l-0.1,0.5l-0.4,0.2l-1.9,0.1l-0.8-0.5l-0.3-0.4v-0.9l-1.1,0.3l-2.6-0.6l0.4,1.6l-0.2,0.3v0.6l-0.3,0.4l-0.4,0.1
		l-2.2-0.8l-0.1,0.6l0.4,0.5l0.6,0.4l0.5,0.8l0.9,0.1l0.1,0.3l-0.1,0.3l-0.4-0.1l-0.3,0.3l0.3,0.4l1.4-0.3l0.1,0.5l-0.1,3.1
		l-0.4,0.3h-0.4l-0.6-1.1l-1,0.1l-0.8-1.4l-1.1-1l0.1-0.3l0.6-0.5l-0.1-0.4l-0.6-0.5l-0.2-1.1l-0.4-0.8h-0.4l-0.4,0.6l-1.1-0.9
		l-0.4,1.7l-1,0.5l-2.5-2l-0.6-1.1l-1.5,12.4l1.2,2v0.9l-0.3,0.6l2.1,0.6l0.5,0.5l1.1,0.8l1.8,0.4l0.6,0.4l1.6,0.2l-0.3,0.5l0.3,3.8
		l1.6-0.6l2.5,0.3l2.4-0.1l0.1,0.8l0.4,0.5l0.8,0.4l1.1-0.1l0.5-1.1l0.5-0.5l0.4,1.1l0.3,0.3h0.6l-0.3,0.5l-0.1,1l0.1,0.5l0.5,0.1
		l-0.8,0.5l-0.5,0.6l-0.4,1l-1-0.4v-0.5l-0.2-0.4l-3.1-1.8l-1-0.4v-0.5l-0.4-0.3l-0.4,0.1l-0.3,0.4l-1.4-0.5l-0.2,1.2h-0.4v0.4
		l-0.9,0.3l-0.2,0.5h0.9l-0.9,3.3l-0.8-0.4l-0.4-0.4h-1v0.6l-1.1,2.2l-0.9,2.5v0.5l0.5,1.5l-0.4,3.8l-0.4,1.6l-0.1,3.5l0.2,0.8h0.8
		l-0.6,2.2l-0.5,0.5l-0.9,0.5l-1.1,0.1l-1,0.4l-2-0.8l-0.4-0.4l-0.4-0.1v0.3l-0.6,0.4l-0.1-0.4l0.1-0.1l0.3,0.1l0.4-0.5l1-0.1
		l0.1-0.4l-0.1-0.3h-0.4L406,388l-0.9-0.2l-1.5,1.9l-1.1-1.3l-0.4-0.9l-0.5-0.1l-0.4,0.1l-0.4,0.4l-0.5,1.6l-1.8,3.3l-0.4,0.1
		l-0.5-0.4l-0.4-1l-0.4-0.4h-0.6l-0.5-0.3l-0.6-1.5l0.3-0.5l-0.6-0.1l-1.1,0.9l-0.8,2h-0.4l-0.5-0.4l-0.1-0.4l0.3-0.4l1.8-1.2
		l0.4-1.3l-0.3-0.4h-0.5l-0.5,0.6l-1-0.8l0.5-1.1l-0.4-0.1l-0.8,0.1l-0.4-0.4l-0.3-1.1l-0.6-0.4l-0.3-0.6h-2.9l-0.5,0.6h-0.3
		l-0.4-0.6l-3,2.5l-0.5-0.5h-0.3l-0.2,0.4l-0.9,0.6l-0.2,0.4l0.1,1l-0.3,1.1l1.1,0.4l0.1,0.8l-1-0.1l-1.6-0.9l-1.4,0.8l-2.1,0.3
		l-0.4-0.4v-0.5l0.6-0.5l-0.1-1.5l0.5-1.9l-1.8-0.9l-1.9,0.6l-0.4,0.9l-0.1,0.8l-0.5,0.5l-0.5-0.1V387l-0.9-0.3l-1.6-1l-0.6-0.1
		l-0.5,0.3l-2.1,2.4l-0.6-0.1l-3.5,1.1l-1.1,0.1l-1.5-0.3l-0.6,0.8l-0.4,1.1l0.4,0.9l-1.4,1.1l0.1,2l0.5,1l3,0.2l0.4,0.3l0.1,0.4
		l-2.1,3.5l-1.5,2.1l-0.3-0.1l-1.2-3.4l-0.3,0.1l-1.5-4.4l-1.6-3.9l-2-1.5l2-4l1.5-1l1.5-1.4l-1.2-0.6l0.6-1.6l1.8,0.1l1.8-4.1
		l0.2-4.5l1-1.5l1.1-0.6v-1.6l-1.2-0.4l-1.8-1.4l0.4-1.5l-0.3-2l0.6-1.9l0.1-1.9l-0.4-2l-0.6-1.6l1.2-1.5l-0.3-2.1v-6.1l1.1-0.3
		l0.1-2.5l-0.3-1.2l-2.6,0.1l-1.1-1.4l-1.6-0.6l-4.5,2.1l-0.3,1.9l-1,0.9l-3.8-7.1l-2-2.9l-2.5-5.5L338.8,322.5"/>
	<path id="path3033" inkscape:connector-curvature="0" class="st0" d="M275.4,131.7l4,0.1l3,0.8l2-1.1l3.1-1.2l3.5-2.1l0.1-3.4
		l-3.4-0.5l-2.6,3l-1.6,0.3l-0.1-1.9l-0.5-2.5l3.1-3.4l3.1-1.5v-7.8l1.8-0.2l-4.5-6.4l0.9-0.5l1.5-1.4l3.5-4.6l1.1-2l0.6-2.9l1-1.6
		v-2.2l-0.9-1.5l-1.4-2.9l-1.1-1.7l6.1-3.4l1.2-1.9l5.2-6.3l0.3-0.6l-3.6-4.2l1.4-1.5l0.5-0.4l3.1-3.5l1.1-2.9l0.4-1.1l-0.9-0.6
		l-1-1.4l2.9-5.1l2.1,0.4l6.5,0.3l8,1.2l2,10.4l-0.3-0.3l-0.5,0.1l-0.6-0.1l-0.2,0.5L325,62v0.1l-0.1-0.1l-0.1,0.1l-0.5-0.1v0.1
		L324,62v-0.3l-0.5,0.1l-1.1,0.2l-0.6-0.1v-0.1l-0.5-0.3l-0.1,0.3l-0.5,0.1v0.1h-0.1V62h-0.1l-0.2-0.4l-0.4,0.1l-0.1,0.3l-0.2,0.1
		v0.1l-0.5-0.1l-0.1,0.3h-0.3v0.1l-0.4,0.1v0.2h-0.4v-0.1h-0.2l-0.4,0.9H317v0.1h-0.4l2.1,4.1l4.8,6l0.5,0.9l14.9-1.6l1.9,2.5h0.1
		v-0.1h0.1v-0.1h0.1v-0.1l0.4,0.1l0.1-0.3h0.3l-0.5-7.2l-2.9,0.1l-0.6-8h0.4v0.1h0.4v0.1h0.1v0.1l0.8-0.1l1-0.4l0.3,0.1v-0.1
		l0.1,0.1v-0.3h0.1v0.1v-0.1h0.1l0.1-0.3l0.5-0.1l-1.1-5.5l4-1.7l1.6,3.7l3.6-1.3l6.7-3l2.7,6.4l6.7-2.6l-1.1-3.9l-0.2-2.2l-0.1,0.4
		l-2.4,0.6l-0.1-2.6l1.6,0.1l1,0.5l-0.5-6.2l5.4-0.7l0.1,0.5l-0.8,5.4l-0.1,1.6l1.2,0.1l0.4-0.2l0.3,0.2l0.5-0.1v-0.1l0.8,0.1
		l0.4,0.5l0.4-0.1l0.1,0.5l1.3,0.4l0.2,0.1l0.3,1l0.6,0.1l0.1,0.4l1,0.4l1.1,0.6v0.1l2.4-0.2l0.4-0.5l0.6-0.1v-0.1h0.1v-0.1h-0.1
		h0.2v0.1l0.8-0.1l0.6,0.3l0.3-0.1v-0.4h-0.1l0.3-0.1v-0.1l0.5-0.1v0.1h0.1V51h0.2v-0.1h0.3v-0.1h0.3v-0.1h0.1v-0.1h0.4v-0.1v0.1
		l0.1-0.4l0.4-0.6l0.6-0.1l0.1,0.7h0.1l0.2-0.5l1-0.2l-0.5,3.4l6,1.5l0.4-1.9l1.9,0.4l1-1.5v0.4h0.1v-0.1l0.6-0.3l0.5-0.4v-0.1h0.1
		l0.3,0.6l-0.5,0.7l-0.2,0.1l-0.1,0.3L396,53h-0.1l0.1,0.7l-0.9,0.3l0.1,0.6l0.5,0.6l-0.4,0.7l-0.6,0.5l-0.8,0.1l-0.3,0.6l-0.8,0.1
		v-0.1l-0.3,0.1l-0.1,0.6H392l0.1,0.5h-0.3v-0.1l-1.4-0.2l-0.4-0.1l-0.4,0.6l0.1,0.3l0.8,0.2l0.2,0.5h0.1v0.1h-0.1v0.1h-0.1V60
		l-1.8,1l-1.4,3.3l-2.4,2l-0.5,1.6l-0.9,1.1l-0.1,1.5l-1.4,1.1l1,1.9l-1.7,0.5l0.4,1.6l-0.9,2l1.5,1v2l1.9,0.1l1.9,1.4l1.6,2
		l0.9,2.9l0.1,2.2l0.8,1.1l0.1,1.6l2.1,0.6l-1.7,1.6l1.1,0.1l1.2-1l1.8,0.9l1.1,1.5l1.5-0.3v2.8l-3.1,1l0.8,0.6l0.3,2l-1.6-1.6
		l-0.6,1.4l0.3,1.4l-0.4,1l0.4,1.1l-10-1l-2.4-0.1l-7.9,1.1l-5-0.6l-1.6,6.9l2.4,0.1l4.8-1.2l2.1,8.1l-8,1.4l-5,2.5l2.9,3.6L365,129
		l-2.6-0.3l-10.7,0.4l-6.9-1.5l-1.2,0.8l-4.5,8.4l0.1,2.4l4,0.6l-0.4,2.8l-1.5,1.6l0.5,4.4l-3.1,1.5l-0.9,0.8l-2.6,3.2l-8.4-0.5
		l-6.6-1.5l-7.4,4.5l-3.1-1.2l-2.2-2l-2.5,0.1l-2.7-1l-0.8-1.5l-1.4-1.5l-0.9-1.4l2.5-1.9l-8.2,1.3l-3.5-2.5l-1.6,1.6l-2.1-2.2
		l-4.6-1.5l-0.6,0.8l-1.4-0.1l0.1-1.1l-2.5-2.5v-1.9l2.1-0.8l-0.3-2.5l-3.6-0.1L275.4,131.7"/>
	<path id="path3035" inkscape:connector-curvature="0" class="st0" d="M406.4,58.1L397.9,69l-1.1-1.1l-3.8-4.5l-2.4-3.4l-1.6,1
		l-1.4,3.2l-2.4,2l-0.5,1.6l-0.9,1.1l-0.1,1.5l-1.4,1.1l1,1.9l-1.8,0.5l0.4,1.6l-0.9,2l1.5,1v2l1.9,0.1l1.9,1.4l1.6,2l0.9,2.9
		l0.1,2.2l0.8,1.1l0.1,1.6l2.1,0.6l-1.8,1.6l1.1,0.1l1.2-1l1.8,0.9l1.1,1.5l1.5-0.2v2.8l-3.1,1l0.8,0.6l0.2,2l-1.6-1.6l-0.6,1.4
		l0.2,1.4l-0.4,1l0.4,1.1l-2.6-0.4l-9.8-0.8l-7.9,1.1l-5-0.6l-1.6,6.9l2.4,0.1l4.8-1.2l2.1,8.1l-8,1.4l-5,2.5l2.9,3.6L365,129
		l-2.6-0.2l-10.8,0.4l-6.9-1.5l-1.2,0.8l-4.5,8.4l0.1,2.4l4,0.6l-0.4,2.8l-1.5,1.6l0.5,4.4l-3.1,1.5l-0.9,0.8l-2.6,3.2l5.5,1.4
		l-1.2,1.8l-1.8,2l0.9,5.2l1.6,2.4l1.5-0.8l1.4,0.6l0.4,3.1l-1,0.2l-0.9,2.5l1,2.2l-0.6,3l-0.1,4.5l0.8,1l1.5,0.5l0.4,1l-1.1,2
		l-0.1,1.4l0.6,2.5l1.4,1.9l0.8,0.6l1.6-0.2l2.1-1.5l3.2,0.2l0.5,1.5l-1.5,1.6l-0.9,1.5l-0.8,2.4l-0.1,1.6l-4.5-1l-1.6-0.1l-1.1,1.2
		l-0.5,3.9l1,2.8l-0.6,4.5l-0.9,1.2l-0.1,1.9l2.8,0.9v1.6l-1.4,1.1l-0.8,1.6l0.9,2l-0.9,1.8l0.9,1l1.2,0.1l0.2,1.4l2.8,2.4v1l3.2,2
		l4.5,0.9h2.4l1.8,1.5l0.1,1.5l1.8,1.5v-0.2l3.6-1.4l1.4-0.2l1.4-1.5l0.9-1.8l1.6-1.8l1.2-0.6l1.4-1.4l0.6-0.9l1.2,0.1l0.5-1.8
		l1.8-0.2v-0.8h0.5v-0.8l0.8-2.5l0.6,0.2l-0.1,1.8l3,1.1l-0.2,1.4l-1,2.4l2.5,2.6v0.9l-1.2,1.8l-1.8,0.4l0.9,1.6l1.2,1.2l1.6-1
		l0.9-0.8v-1.1l3.2-0.5l2.2,1.2l0.5-0.6v-3.8l1.2,0.4l2,2.2l1.6,0.1l-1.4,2v3.1l-1.1-0.4l1.1,3l5.2,0.2l1.2,2.9l-1.8-0.1l0.5,2.2
		h3.2v0.1l1.9-0.2l0.4-2.2l-0.6-2.1l-0.8-1.6l-1.5-2.2l-2.5-4.8l1.2-0.4l1.8,1.6l1-0.4l1.9-1.4l1.6-2.4l0.2-3.2l0.9-2l2.4-0.2
		l1.6,1.5l-1.1,1.5l1.8,1.6l2,0.6l2.2,0.2l1.1,1.5l1.1-0.2l2-1.1l0.2-1.5l-2.8-0.2v-0.4v-1.1l6.1-4.2l3.2,1.2l-1.2,2.4l4.2,2
		l3.9,1.1l0.5,0.9l1.6,0.9l2.9-0.4l-1,3.4l2.4-0.1l1.1-2.5v-7.2l2-3.8l1.9,1l2.4-3.4l2.1-0.1l3.5-2l-17.8-19.6l-10.8-11.8l-1.2-2.5
		l-4.4,3.8l-8.5,7.2l-2,0.9l-0.1-2.1l-3,1.6l-0.2,1.9l-0.9,0.9l-3.5-0.8l-0.6,0.5l1.1,2.6h-0.9l-0.6-0.2l-0.9,0.2l-0.9,1.1l0.2,2.2
		l2.2,1.5l0.1,0.4l-0.4,2.6v1.4v0.8l-1.5,1l-1.6-0.5l-1.1,0.2l-1.6-1.5h-1.4l-1.2-1l0.1-1.6l-1.2-2.6l0.4-1.6l-1.5-0.8l-1,0.1
		l-0.4,0.5l0.6,0.6l-0.1,1.4l-0.8,0.6l-0.2,0.5l0.2,1l-0.4,2.4l-1.1,0.4l-1.9-0.2l-5-2.4l-4.8-1.4l6-1.4l-0.8-2.1l0.2-1.6l1.1-2
		l1.5,0.1l0.5-1.4l-0.8-0.6l-0.4-0.9l-0.8-0.6l-1.4-0.5l-1.8,1.1l-0.4-0.4l-0.2-1.2l0.1-1.4l0.8-0.6l-1.5-2.1l0.6-1.4l-0.5-2.5
		l-0.8-1l-0.9-0.5l-0.9-0.1l-0.9,0.6l-0.8,0.9l0.1-1.1l1.1-1V181l-1-0.8L372,181l-0.6-1l-2-1l-1.8-0.2l-1.4,0.1l-1.1,0.5l-2.8-0.1
		l0.1-1.4l0.8-0.5l0.5-0.6l0.1-1l-0.6-0.8l-0.6-1.4l0.5-0.5l0.9,0.1l0.6-0.5l0.6-1.5l2-1.4l0.5-1.2l-0.2-1.1l-1.6-0.9h-2.2l-1.8-0.4
		l-0.8-1.4l1-0.9l2.4-0.1l0.6-0.9l-1.2-2.6l0.5-1.6h0.6l1.9,0.6l1.2,1.5l1.6,1.4l0.9,0.5l2.2,0.1l1.4-0.5l1-0.9v-1.1l0.9-0.2
		l0.2-1.2l0.6-0.2l2.2-0.1l1.5-0.8l0.5-2l-0.9-2.9l0.2-2l3,1.2l2.4-0.6l-0.4-0.6l-3.4-2l-2.1-0.4l-1.2-1l-0.4-0.5l-0.8-2l1.5-0.2
		l5.1,2l0.2-0.5l-0.2-1.1l-1.2-0.8l-1.8-0.5l-1.4-1.5l0.2-1.2l3.2,1.1l4.1-2.1l1.5-1.6l1.5-1.2l1.6-0.2l0.2-0.4l-0.5-0.9l1,0.1
		l1.1-0.2l1.2,1l2-0.2l1.8-1.4l2.5,0.9l1.2,2.4l0.2,1.1l-0.5,0.1l-1,0.6l0.1,1.4l0.5,1.1h1.5l2.2,0.4l1.2-1.6l-1.4-0.8l0.9-0.5
		l0.5-2.1l1.4,0.2l-0.1-1.1l1.2,0.8l0.9,1.2l-0.1-3.5l2,2l3-0.2l8.2,0.2l2.6,1.5l-0.9-20.2l0.6-13l0.1-27.2l-6.6-7.2l-9.8-4
		l-0.6-0.4l0.1-0.8h0.1l-0.1-0.2l-0.4-0.2l0.1-0.5l-0.1-0.9l0.1-0.2h0.1l0.1-0.9h0.1l0.1-0.2h0.1l0.1-0.2l0.4-0.1l0.1-0.9h0.2v-0.1
		h0.1v-0.2h0.1V61h-0.1v-0.1l-1.2-0.4l-2.4-1.5L406.4,58.1z"/>
	<path id="path3049" inkscape:connector-curvature="0" class="st0" d="M99.1,92.9l0.4-0.2l0.4-0.5l-0.5-0.6l0.8-1.1l1.4-0.3l0.8-1
		l1.2-0.5l1.2-1.2l0.3,0.1l1.2-1.1l-0.1-0.3l0.5-0.6l0.4-0.1v-0.1l1.3-0.5l0.5-0.1l0.3-0.4h0.1l0.4-0.5h0.4v-0.1h0.1l0.1-0.4
		l0.1-0.3h0.1v-0.1h0.1v-0.3h0.1l0.1-0.3h0.1v-0.1l0.6-0.4v-0.1h0.1l0.1-0.3h0.1l0.4-0.6l0.5-0.2v-0.1h0.1v-0.1l0.9-0.5v-0.1h0.1
		v-0.1l0.4-0.1l0.1-0.5h0.3v-0.1l4.1-0.6l-0.5-1h0.1v-0.1l1.5,0.1v0.1h0.4l-2.6-5.6l0.8-0.5h0.2l-16.6-9l0.1-0.4l0.4-0.3v-0.1h0.1
		v0.1v-0.1v0.1v-0.1h0.1h-0.1h0.1v-0.1v0.1l1.2-0.7l1.1-1.4l-1.1-2.2l2-2.2l1.4-1.1l-0.1-0.3H107v0.1h-0.1v-0.1h-0.5v-0.1l-0.1,0.1
		v-0.1h-0.1l-0.3-0.4h-0.1v-0.1l-0.4-0.1v-0.2l-0.4-0.1v0.1l-0.5-0.1l-0.1-0.4l-0.5,0.1v0.1h-0.1l0.1-0.4l-0.3-0.1v-0.3l-0.2-0.1
		l-0.5,0.1v0.1l-0.4,0.1l-0.4-0.1l-0.2,0.1l-0.3-0.1v-0.9l-0.3,0.1V51l-0.2-0.1l0.1-0.2h-0.6v0.1l-0.6-0.3l0.1-0.1l-0.1-0.1h0.2
		l-0.1-0.3h0.1v-0.1h0.1l0.1-0.4h-0.1l-0.1-0.4h-0.1V49H100v-0.1h0.1H100l-0.1-0.2h0.1v-0.1h-0.1l5.4-5.9l6.6,0.5l1.6,0.5l-0.3,0.5
		l0.1,2.6l3.5,0.3l0.1,0.4l4.4,2.4l0.1,1.3l-0.1,0.7l1.6,0.9l-0.4,1.2l8.4,2.9l-0.6,1.6l0.8-0.1l2.2,1.2l0.6,0.6v1.2l0.6,0.5
		l1.5,0.4l0.4,0.7l1.9,1.6l0.4,0.7l1.1,0.1l-0.1,0.5h0.9l0.6-0.3l0.6,0.4l1.3-0.4l1,0.3l0.9-0.9l7.4-2.1h0.8l3.7,2l1.6-1.6l0.7,1.9
		l-0.4,0.5l0.8,1.4l0.5,0.4l-0.1,1.4l0.5,1.1l2,2l-0.4,1.1l0.5,0.5l-0.4,1.8l4.2,2l2.5-1.9l5.2-1.9l-0.5-1.9l1-1.5l0.4,0.8l0.8-0.6
		L177,74l1.4-1l4.4-4.9l1.4-0.4l-0.5-1.7l3-1.6l4.9-0.5l2.5-1.4l1.8,0.6l1.6-0.5l1.4-1l0.8-4l7.2,0.1l-0.1,2.4l1,0.5l0.6,1.3
		l1.6,1.4l1.5,2.4l5.4,2.5l0.4,0.9l0.5,0.1l1-2.2l-0.3-0.7l0.5-0.6l1.5,1.5v2.4l0.8,0.6v0.4l-0.4,0.6v0.4l0.4,0.5l1.9-0.2l0.2,0.5
		l1.9-0.9l0.3-0.8l-0.3-0.4l-1.4,1.2l-0.1-1.1l-0.6-0.1l-0.5,0.9l-0.2-0.1l-0.1-2.6l1.4-0.3l0.9,0.3v0.6l2.8,1.8l0.8-0.3l0.2,0.5
		l2.1,0.2l1.2-0.1l0.4,0.4l0.6,0.3l0.4-1l-2.1-1.2h-0.9l-0.1,0.4l0.1,0.5l0.8,0.3v0.2l-2-0.4l0.2-1.6l-0.2-0.5l0.1-0.4l4-0.3
		l1.1,0.5l0.5-0.4l1.4-0.1l0.1,0.9l0.4,0.5l0.6-0.4l0.2-0.5l-0.4-1.9l1.9-0.4l1.1,0.3l1.5-0.1l1.6,0.8l3.5,0.6l0.9,0.5v1.4l-0.5,1.5
		l2.2,5l1.8,2.9l-0.5,0.1l-1.4,1.1l0.6,6.4l1.4,4.6l-0.4,0.9h-0.1v0.4h0.1v0.1h0.4v0.1h0.1l0.1,0.5h0.1V93h0.3v0.1l0.4,0.3v0.4h0.1
		v0.1h0.1V94h0.1v0.1h0.1v0.1v-0.1l0.4,0.2l-0.8,0.3l0.8,1.6l-0.1,0.3l0.6,1.4l0.1,0.8l0.2,0.1l1.5,5.5l0.1,0.8l0.6,1.5l0.1,2.6
		l0.4,2.1l0.9,2.5l-0.6,1.1l-2.1,1.5l-1.6,0.8L252,120l-0.9-1.3l-1-2.1h-1.5l-1.5,1l2.4,1.6l0.4,2l-1.5,1.2v2.5h0.4l0.5,0.9l-1,0.4
		l-1.6-0.1l-0.1,1.5l0.3,1l2,1.4l1.3-0.6l0.9,1.9l-0.6,0.2l-1.1,1.4l-0.4,2.7l-7.6,3.9l-2.5,1.5l-1.9-0.8l-1.1,1.5l-1.2-0.1l0.3-1.1
		l-0.1-1.1l-2.9,2l-0.4,1.2l-0.5,0.4l-1.7-1.1l-1.6,1.1l-6.4-12.3l-1.4,0.5l-2.1-0.5l0.3,1.9l-3.7,2.6l-2.8,1.1l-2.9,0.3l-4-1.2
		l-0.6,1.4l-0.1,1.5l-1.8,0.3l-1.7-1l0.8-4.6l-0.9-2.6l-1.1-1l-2.6-0.2l-3.4,2l-3.6,1.2l-4.8,0.5l-4.5-1.3l-3.1-2.1l-3-1.5l-5.4,8.1
		l-2.4-0.2l-2-2.2l-1.3,0.7l-1.1-0.3l-0.9,0.1v1.3l-1.2,0.9l-0.1,1.4l2.6,0.8l2.5,3.4l0.3,1.9l-0.1,1.1l-0.5,0.9l-0.5,2l-1.1-0.1
		l-0.3-4l-3.7-1.7h-0.8v1.2l1.6,1.1l-1.4,1l-1.9-0.6l-0.9-0.9l-2.7,0.4h-1.8l-0.6-0.7l0.2-1.4l0.3-0.4v-0.4l0.4-0.5l-0.1-0.3
		l-0.8,0.3l0.1-0.6l0.3-0.1l0.2-0.4h0.3v-0.4h-0.4l-0.8,0.5l-0.5-0.4l-1.3,1.6v0.4l-0.2,0.4l-0.3-1.5l-0.4-0.4l-0.9,0.3l-1.9-0.3
		l-0.1-0.2h-0.1l-0.1,0.2h-0.4l-0.1,0.3l-0.4,0.1l-0.1-0.2L143,140l-0.2-0.1l-0.4,0.4H142l-1.5-0.6l-0.1,0.3h-0.1v0.1h-0.9v-0.1v0.1
		h-0.1h0.1h-0.1v0.1L139,140v-0.3h-0.1v0.1h-0.1v-0.1l-0.3-0.1v-0.1H138v-0.1l-0.4-0.1v-0.1v0.1l-0.4-0.1l-0.5,0.1v0.4h-0.4
		l-0.1-0.3h-0.1v-0.1H136v-0.1h-0.1V139h-0.1l-0.1,0.4h-0.1v0.1h-0.4v-0.3H135v-0.4l-0.3-0.1l-0.2-0.6l-0.6,0.1l-0.4-0.1V138h-0.1
		v0.1h-0.1v0.1v-0.1h-0.1h0.1V138h-0.1v0.1v-0.3h-0.4v0.1l-0.8-0.1v0.1l-0.5,0.2v0.1l-0.7,0.1v0.1v-0.1l-0.3,0.1v-0.1l-0.3,0.1v0.1
		h-0.1v0.1h-0.3v-0.1l-1.6,0.8v0.1l-1.1,0.3v0.1l-0.5,0.1v0.1h-0.1v-0.1h0.1V140h-0.1v-0.1v0.1l-0.2,0.1l-0.1-0.2H126v-0.1l-0.4-0.1
		v-0.1h-0.1l-0.1-0.3h-0.1v-0.1h-0.1V139H125v-0.1h-0.1v-0.1h-0.1v-0.1h-0.1v-0.2l-0.4,0.1v0.1l-0.5,0.1v0.1l-1.4,0.3L120,140
		l-1-3.7l-0.7-1.2l-0.4-0.8l-1.7-1.9l-1.4-0.4l-0.8-0.9l0.4-0.5l-0.7-1.8l0.5-0.5l-0.7-0.1l-0.2-0.3l1.4-0.5l-0.5-0.8l0.5-0.5
		l0.3-1.1l0.9-0.9l-0.4-0.7l-1.9-0.5l0.6-1l0.3-0.1v-0.1h0.1l0.3-0.7l0.8-0.1v-0.1v0.1v-0.1l2.9,1.4l0.5,0.4l1.5-0.6v-0.1l0.8-0.1
		v-0.1l0.6-0.1l-1.5-2.4v-0.3l1.9-0.6v0.1l6-1.8l0.1,0.5h1.1l0.2-0.5l-0.4-0.1v0.1v-0.1H129v0.1v-0.1h-0.3l-0.5-0.7H128v-0.1h-0.4
		v0.2h-0.2v-0.1l-0.1,0.1v-0.1h-0.1v0.1H127v-0.1h-0.3v0.1h-0.1v-0.1l-0.5-0.1v-0.1H126v-0.1l-0.4-0.1l0.7-0.3v-0.1l0.5-0.3l0.3-0.4
		h0.4V114h0.3l-1.8-1.9h-0.1l-1.3,1.6h-0.1v1.2l-0.6,0.3v0.3h-0.1v0.4h-0.1v0.1h-0.4v0.1h-0.4v0.1h-0.4v-0.1h-0.1V116h-0.1v0.1h-0.1
		v0.1v-0.1H122v0.3h-0.4v0.1l-0.6,0.3l-0.3-0.1v0.1h-0.1v0.1h-0.3v0.1h-0.1v0.1l-0.6,0.3l-0.1-0.1v0.3h-0.1v-0.1h-0.2v0.1h0.1h-0.1
		v0.1v-0.1l-2.4-0.9l-0.5,0.9l-1.1,0.3l-1.8,2l-1,0.1l-1-0.5l-1,0.1v-0.1H110l-0.5-1H108l0.1-0.6l0.5-0.5l0.6-0.2l0.6-0.8l-0.4-1
		l0.3-0.1l0.5,0.9l0.8-0.4l0.6,0.1l0.6-0.4v-1l0.5-1.5l-0.3-0.1l-0.6,0.1l-0.6,0.5l-0.3-0.3l0.5-0.4l0.1-0.6h0.1l0.1-0.3h0.1v-0.1
		l1-0.3l0.1-0.4l0.9-0.4v-0.1l0.8-0.1v0.1l0.4-0.1l0.3-0.5h0.1v-0.1h0.1v-0.3l0.3-0.1l0.1-0.3l0.5-0.1V109l0.5-0.2v-0.1l1-0.1v-0.1
		h0.4v-0.1l0.4-0.1V108l0.5-0.1l0.4-0.6h0.1h-0.1l0.3-0.1v-0.4h0.1l-0.1-0.1h0.1v-0.1h-0.1h0.1v-0.3h-0.1h0.1V106h0.1v-0.2H120
		l0.1-0.1H120l-0.1-0.8l-0.1-0.5h-0.1l0.1-0.3h-0.1l0.1-0.5h0.1v-1.4h0.1l0.1-1.2h0.3v-0.1h-0.1l0.1-0.4h0.1l0.5-0.9h0.1v-0.4h0.1
		l0.1-0.4h0.1v-0.1h0.1v-0.3h0.1v-0.1h0.1v-0.3l-0.4,0.1l-0.6-1.3h-0.5v0.1l-0.4,0.1l-0.5,0.1v0.3h-0.1v0.1l-0.2-0.1v0.1l-0.4,0.1
		V98h-0.1v-0.1h-0.2V98l-0.5,0.1l-0.1-0.1v0.1h-0.1v0.1l-0.3-0.1v0.3l-0.3-0.1v0.1l-0.9,0.3v0.1h-0.1l-2.1-2.2l0.6-1l1.4-0.8
		l2.6-0.4l2.1-1.1l-0.4-0.1l-2.4-4l-0.1,0.1l-0.2-0.1v0.1h-0.1v-0.1h-0.2v0.1h-0.1v0.1H117v0.1h-0.4v0.1l-0.3,0.1v-0.1h-0.5
		l-0.1,0.5h-0.1v0.1l-0.6,0.1l-0.1,0.2h-0.1v0.3h-0.1V91v-0.1h-0.1V91h-0.1v0.1h-0.1v0.1h-0.5v0.1h-0.1v0.1h-0.3v0.1h-0.1v0.1
		l-1-0.1v0.1l-0.8,0.1V92h-0.4v0.1l-2.6,0.1l-0.1-0.4h-0.1v-0.1H108v-0.1h-0.1v-0.1h-0.4v-0.1l-1.8,1.9v0.4l-1.1,1l-1.1,0.1
		l-0.4,0.3l-1,1.1l-0.4,0.3l-1-0.6l-0.1-0.6h0.5l0.1-0.2l0.5-0.3l-0.1-0.8L99.1,92.9"/>
	<path id="path3053" inkscape:connector-curvature="0" class="st0" d="M524.8,208.6l2.1-15.9l0.5-2.6l1-3.1l1.6,0.6l5.9-3.1v2.6
		l1.1,0.1l0.5-1.2l-0.4-1l0.6-1.4l0.6,0.6l1.5,0.8h2.6l-0.1-1.2l-1.9-0.3l-0.5-1.9l-5-1.8l0.1-0.5l-1.6-1.9l-2-1.5l2.5-4.9l-1.4-1.2
		l0.4-1.5h1.6l1.5,0.4l3.6,4.5l3.9,0.2l1.4,0.9l5.6,1.2l3.1-3.7l1.6-0.7V170l-2-2.1l-0.3-2.5l0.4-1.1l1.4-0.4h1.9l1.1-0.6l-0.8-1.4
		l-1.5-1.2l-1.5-0.8l-0.6-1.6l0.3-1.8l1.1-1l1.7-2.5l2,0.9l1.7-1.1l3,0.5l0.8-0.8l2.4-0.4l-0.4,0.8l1.5,2.1l-2,2.2h-1.2l-0.4-0.5
		v-1.3l-1.4-0.1l-2,1v1.1l2.4,1.1l1.8,0.5l1.4-0.1l0.9,0.2l-0.9,1.3l0.4,0.9l1,0.1l0.6-1.2l-1.2-1.1l1-1.6l2.2-0.9l1.4,0.9l0.6,3.2
		l-2.2-0.4l-1.9,1.8h0.9l1,0.4v1.8l1.1,0.9l4-4.9l-0.4-0.1l1.3-1.6l1.4-0.8v-4.4l1.3-1.9l0.8,0.2l1.9,1.4l-0.1-1.4l1.1-0.9l0.6-1.2
		l0.1,0.5l0.5,0.1l1.9,2.9l0.6-2.5l0.9,0.1l3.1,1.1l1.9-9.5l0.4-4.2l1,0.3l3,0.1l0.1-4l-1.5-0.4l-0.5,0.3l-0.1,2.1l-1.4,0.2
		l-1.1-3.2v-4.1l-0.4-0.4h0.1l-7-3.6l1.1-0.6l5.9-8.7l1.9-1.6l1.5-9.7l5.1,3.9l2.8-1.9l-0.9-2.6l0.4-1.8v-4l-3.4-1.5l2.3-2l0.1,0.4
		l0.1,0.4l-0.1,0.1h0.1v0.1h0.1v0.1h0.1v0.3l0.3-0.1v-0.1l0.8-0.1l0.2,0.4l0.5-0.1l0.1,0.2h0.1v-0.1l0.3-0.1v-0.1h0.1V96l0.4,0.1
		v0.1h0.1v0.1h0.1v0.1h0.1v0.3h0.1V97h0.1h-0.1h0.1v-0.1h0.2v-0.1h0.1v0.1h0.4V97h0.1v0.1h0.1v0.1h0.3v0.1v-0.1h0.3v0.1h0.2v-0.2
		h0.1V97h0.5v0.1h0.3v0.1h0.1v-0.1h0.5V97h0.3v-0.1h0.1v-0.1h0.1h-0.1v-0.3h0.1v0.1v-0.1h0.1v0.1v-0.1h0.3l-0.1,0.1l0.5-0.1l0.1,0.3
		h0.1V97h-0.1l0.1,0.5h0.3v0.1v-0.1h0.1v0.1l1.1,0.1v-0.1l0.3,0.1v-0.1l0.4-0.3l0.4,0.1v-0.1h0.1v-0.1h-0.1l0.1-0.6l0.2,0.1v-0.1
		v0.1l0.4-0.1v0.1h0.1v0.1h0.1v-0.1l0.2,0.1l0.1-0.3l0.3-0.1v-0.1h0.1v-0.1h0.2v-0.1l0.1,0.1v-0.1h0.1V96h0.3v-0.1h0.2v-0.1l0.5-0.1
		v-0.1l0.9-0.1v-0.1h0.1V95h0.1v-0.1h0.1l0.1-0.5h0.1v-0.2h0.1l0.1-0.8h0.3V93h0.1v0.1h0.1V93h0.1v0.1h0.3v0.1l0.4,0.1l0.4,0.1v-0.1
		l0.8-0.1v-0.1h-0.1h0.1V93h0.1l0.1-0.4h0.1v-0.1h0.4v0.1h0.1v-0.1h0.4v-0.1h0.1v-0.1l0.4-0.1L622,92v-0.1h0.1v-0.1h0.1v0.1l1.6-0.3
		l0.6,0.4l0.1-0.1l0.3,0.1v0.1l0.4,0.1v0.1h0.1v0.1h0.5v0.1h0.2v0.1h0.1v-0.1h0.3v0.1h0.1v0.1h0.2v-0.1l0.1,0.1v-0.1l0.1,0.1v-0.1
		h0.1v-0.1l0.6-0.1v-0.1h0.4l-0.1,0.1l0.4,0.1v-0.1h0.4v-0.1h0.1v-0.1h0.5v-0.1l0.2,0.1v0.1h0.1v0.1h0.9l0.3,0.4h1l0.3,0.4l1.2,0.1
		l0.9,0.4l0.8-0.5l0.3,0.3l-0.3,0.9l1.4,1.5l0.9,0.8l2.9-1.1l1.6,0.3l0.6,0.9l0.9,0.4l0.5,2.5l1,0.1l0.3-0.2l0.6,0.2v0.1h0.1v0.1
		h0.1l0.1,0.4h0.1v0.1h0.1v0.1h0.1v0.2h0.1l0.1,0.6h0.1l0.1,0.9h0.1l0.1,0.5l11.5,0.6h3.4l2,3.4l-0.1,3.7l0.6,0.5l0.1,0.2l1.5,1.4
		l2.4-1.6l1.1-2.8l3.6,1.6l-1,1l-0.1,1.5l1,2.1l1.6,2.1l-1,1.4l0.5,0.5l0.4,1.5l1.3,0.9l-0.8,1l-0.4,1.2l-0.1,2.6l-1.2,0.1l-0.5,1.3
		l-0.1,1l0.4,1.1l-0.4,0.5v1.4l-1.2,0.4l-0.3,1.5l1.2,1l-0.2,0.3v1.5l-0.8,1.5l1.2,0.2l0.9,0.6l1,1.4l-0.1,0.5l-0.6,1l1.3,1.4
		l2.1,1.4l-0.5,1.1l-2,0.4l-1.7,0.9l-1.6,2.4l1.5,2.6l-0.3,1.6l1,1.5l-0.4,0.9l1.3,2l-1.1,0.2l0.4,1.5h-0.6l-1.2,1l0.8,1.4l-2,0.1
		l-1.6,0.9l1,1.1l-0.9-0.5l-0.8,1.6l0.6,1l-1.8,1.2l-3.6-0.4l1.1,1.5l-1.6,1.6l-1.1-1.4l-0.6,1l-0.9,1l-1.5-0.9l-0.9-0.1l-1.1,1.2
		l-0.1,1.2l0.1,0.5l0.6,0.5l-0.1,0.9l0.8,1.1l-2.9-0.1l-0.9,0.8l-1.7-0.1l-1.1-0.8l-1.5,1l-1.6,1.6l-2.2,3.9l-0.6,1.4l-0.8-0.4
		l-0.8,1l0.1,0.8l-1,0.1l-0.1,2.4l-1.2,0.6l-0.4,2l0.1,1.5l-0.9-0.1l-0.9-0.9l-1.5-1.1l-1.8,0.1l-0.8,1.6l-2.2,3l-1.9,1.4l0.2,1.7
		l1,1.4l1,0.5l1.6,1.9l-0.2,1.5l1.2,1.5l1.9,0.5l2.4,1.1l2-0.1l3.2,0.8l0.4,1.8l0.4,0.4l-0.5,0.9l0.5,0.6l1.4,0.4l0.5,1.5l0.8,1.1
		v1.8l0.4,1.5l1,1l0.6,1l0.1,0.6l0.3,0.1l1.4-0.6l1.1,0.9l2.1,0.4l3,1.1l-6.4,11l2.1,0.9l-3.9,5.5l10.5,5.4l-1.2,3.1l8.6,2.7
		l-1.4,4.8l-7.5,19.7l-0.5,2.4l-0.1,2l17.5,2.4l0.1,3.3l0.4,1.9l1,1.2l0.3,1.3l0.1,1l0.4,0.8l-1.6,0.3l-0.9,6.7l-2.1,0.3l-27.4-3.6
		l-3.5-2.4l0.1-2.1l1.4-3.4l-0.6-1l-2.7-6.6l-2.9,1l-3.3,0.8l-5.9,2.4l-0.8,0.5l-1.4,1.5l1.6,1.9l-2.1,2.6l0.4,0.8l-0.4,1.4
		l-0.9,0.6l-1.9,0.5l-0.8,0.6l-0.1,0.6l0.3,0.9l-5.5-0.9l-1-0.6l-1.2,0.4h-3l-1.1,2.6l-0.8,0.8l-0.9,1.4l-0.6,0.6l-0.8,1.2l-0.9,0.8
		l-0.4,1.1l-1.1-0.3l-0.9-0.5l0.1-0.9l1-3l-1.7-0.5l1.4-4.9l-25.5-4.2l-0.6-0.4l-0.6-0.6l-0.6-0.2l-0.6-0.5l-7.3-1l-9.7-1.8l-1.7,11
		l-8-1.4l-1.7-1.8l-2.5-4.4l-0.6-0.4L547,284l0.1-2.1l-0.8,0.8l-0.1-1l-21.4-0.5l0.9-2.7l0.4-2.2l-0.4-0.1l0.1-2.5l6-11.6l4.4-7.4
		l4.4-7.9l-7.5-7l-2.4,0.2l0.8-1.1l-0.9-0.4l0.1-0.4h1l0.6-0.4l0.2,1.1l0.5-2.9l-1.6-3l-1.1-3.1l1.5-1.2v-1.6l1.6-5.4l-0.4-5.7
		l0.4-5.9L524.8,208.6L524.8,208.6z M582.3,204.5l2.5,2.5l3.9-3.1h2.6l1.7-2.1h4.6l0.5-2.1l1.9-0.3l2.1-0.6l1.1-2.2l2-1.6l2.5-1.5
		l2.4,2.2l1.6,0.3l-0.5,2.1l0.9,0.5l2.4-1.2l0.4,2.7l3.1-2.4l0.4-6.5l0.8-1.4l0.9-1.1l-1.6-2l-2,1.6l-1.7-0.8l-1.3-2.9l-2.6-0.3
		l0.6-6.2l-6.8-0.9l-0.6-4l1.2-6.1l-4.1-0.6l-1.9,1.5l-0.8,0.9l-2,0.8l-0.5,1.1l1.3,1.2l1.1,1.9l1.1,3.6l-0.4,3.7l-3.9-0.1l0.3,3
		l-3.3-0.5l-0.5,1.9l1.9,0.9v2.1l-2.6-0.6l-0.1,3.5h-2.6l-0.8,2.4l-2.2-0.5l-0.3,2.6l-1.4,0.1L582.3,204.5"/>
	<path id="path3055" inkscape:connector-curvature="0" class="st0" d="M233.6,207.5l3.5,0.8l1.8-0.9l1,0.4h2.4l1.6,1.4l3.4-1.1
		l-0.1-1.9l1.4,0.1l1.2-0.1l0.1-4.1l0.4-2.1l-0.4-2.2l1.5-1.9l0.3-3h-0.1l0.2-2.8l1.1-1.1l5.8-4.2l1.7,0.1l3.4,3.9l1.9,2.2l2.8,0.4
		l4.6-0.7l1.4-1.5l0.1-1.4l0.5-1.6l-0.9-2.4l-0.9-3.2l-3.6-2.9l-1.2-1.6l0.2-1.4l0.6-1l0.9-0.2l2,0.1l0.5-0.9l-1.1-1.3l0.4-2.1
		l-0.8-1l-1.1,0.4l0.1,2.7l-1.1,0.1l-0.5,1.4l-1.6,0.9l-4.4-1.4l-1.8-4.8l2-0.9l-0.1-1.4h-1.1l-0.2-2.9l-0.8-0.8l-0.8,0.1v1
		l-1.6,1.5l-2.4-2.4l-2,1.9l-2.4-0.4l-1.7,1.5l-2.8-0.2l-1-1.9l3.6-0.4l-0.1-3.5h1.4l0.5,1.6l2.6-0.3l0.1-2.1l4.9-2.4l2.4,1.2
		l0.2-0.1l-0.2-2.4l3.4-1.1l-0.3-0.8l-1.8,0.2l-1-0.9l-0.1-1.8l0.4-1.2l1.3-1.5v-0.9l-1.3-0.1l-1.4,1.1l-1,0.3l-0.3,1.2l0.6,0.3
		l-0.8,1.5l-1.2,0.5l-4.8,0.3l-1,0.5l-2-1.5l-0.8-1.2l0.6-1.1l1.4,0.4l0.9-1l-0.5-2l0.9-2.5l2.1-2.2l2.4-1.2l0.8-1l-0.4-0.8
		l-2.1,0.6l-1.1-0.6l1-1.1l2.1-0.5l0.3-1.1l-3,1l-0.9,0.6l-0.5,1.6l-1.1,1.4h-1.2l0.4,1.1l-0.1,0.7l-2,1.8h-1l-0.5-0.5l1.1-2.1
		l-0.9-2l0.9-3.1l0.4-2.7l1.1-1.4l0.6-0.2l-0.9-1.9l-1.3,0.6l-2-1.4l-0.3-1l0.1-1.5l1.6,0.1l1-0.4l-0.5-0.9h-0.4v-2.5l1.5-1.2
		l-0.4-2l-2.4-1.6l1.5-1h1.5l1,2.1l0.9,1.3l0.9-2.9l1.6-0.8l2.1-1.5l0.6-1.1l4.4-0.5l-1.5-3.4l-0.8-2.5l-1-1.9l0.3-1.6l1.7-0.7
		l0.5,0.2l2.5-2.5l0.5-5.1l0.4-0.1l0.1-0.4h0.1v-0.1l0.9-0.2l-0.1,0.1l0.3,0.1l0.3-0.5h0.5l0.3,0.5l1,0.3l1,0.9h0.3v0.1h0.2v0.2h0.1
		v-0.1l0.1,0.3l0.5,0.1h-0.1h0.3V97l0.8,0.1v0.1h0.2v0.1h0.4v0.1h0.3v0.2h-0.1v0.1h-0.1V98h0.1v0.3l0.2,0.1h-0.1v0.4h0.1h-0.1v0.5
		l-0.3,0.1l-0.1,0.9H271v0.1h0.1v0.1l3.6-1.5l0.8,1.6l1.9,2.4l2.5,1.6l3.5-0.8l2.7,0.1l0.3-0.1l4.5,6.4l-1.8,0.2v7.8l-3.1,1.5
		l-3.1,3.4l0.5,2.5l0.1,1.9l1.6-0.3l2.6-3l3.4,0.5l-0.1,3.4l-3.5,2.1l-3.1,1.2l-2,1.1l-3-0.8l-4-0.1v2.7l3.6,0.1l0.3,2.5l-2.1,0.8
		v1.9l2.5,2.5l-0.1,1.1l1.4,0.1l0.6-0.8l4.6,1.5l2.1,2.2l1.6-1.6l3.5,2.5l8.2-1.3l-2.5,1.9l0.9,1.4l1.4,1.5l0.8,1.5l2.7,1l2.5-0.1
		l2.2,2l3.1,1.2l7.4-4.5l6.6,1.5l8.4,0.5l5.5,1.4l-1.2,1.8l-1.8,2l0.9,5.2l1.6,2.4l1.5-0.7l1.4,0.6l0.4,3.1l-1,0.3l-0.9,2.5l1,2.2
		l-0.6,3l-0.1,4.5l0.8,1l1.5,0.5l0.4,1l-1.1,2l-0.1,1.4l0.6,2.5l1.4,1.9l0.8,0.6l1.6-0.3l2.1-1.5l3.3,0.3l0.5,1.5l-1.5,1.6l-0.9,1.5
		l-0.8,2.4l-0.1,1.6l-4.5-1l-1.6-0.1l-1.1,1.2l-0.5,3.9l1,2.8l-0.6,4.5l-0.9,1.2l-0.1,1.9l2.8,0.9v1.6l-1.4,1.1l-0.8,1.6l0.9,2
		l-0.9,1.8l0.9,1l1.3,0.1l0.2,1.4l2.8,2.4v1l3.2,2l4.5,0.9h2.4l1.7,1.5l0.1,1.5l1.7,1.5l-0.1,4l-8.2,3.7l-1.9,1l-5.9-3l-1.2,2l-3,4
		l4.6,3.1l0.5,3l-0.6,1.6l-4.9,6.5l-3.3,0.9l-4.7,2.2l-3.5,3l-1-1.1l-2.6,1l-0.3-1l0.8-1.5l-0.4-0.5l-3.1,1l-0.5,2l-1.6-0.9
		l-0.3,0.6l1.3,1.9l0.1,2.5l-3,1.7l-0.8-1.1l-1.2,0.1l-0.1,1l-1.4,1.1l1.6,3.3v3.9l-0.8,3.4l-0.6,1.3l1.6,0.1l0.4,0.4l0.1,1
		l-1.9,0.9l0.3,2.6l0.5,2.1l-1.5,2.2l0.5,2.4l-1.6-0.6l-0.6,1.6l-1.1-1.6l-1.1,1.1l-2.2-0.1l-3,0.8l1-1.4l-0.6-2.6l-3,1.3l-4.5,2.7
		l-3.5,0.5l1,2h0.5l1.1,0.5l0.8,1.2l-0.5,3.6l-2,2l-2.2,0.8l-3.1-0.9l-2.1-1.9l-1.6-0.1l-0.4-2.4l-0.8-0.4h-0.8v-1.9l-4.2-0.6
		l-0.9-1.1l-0.6-2.5l-1.3,0.6l-0.1,2.1l-1-0.4l-1.2-0.9l-1.4,0.3l-1.1-1.8h-2l-0.1,1.4h-1.3l-2.7-2v-3.4l4.6-1.9l0.3-1.2l-1.1-0.1
		l0.9-1.4l-0.8-2l-0.9-0.5l-0.3-2.7l-0.6-0.4l-0.1-2.1l-2.5-3.2l0.1-2l-1-1.1l0.9-2.5l-0.8-1.4l-2.1,1.9l-0.9-0.8l-0.1-1.4l-1.1-0.2
		l-0.1-2l0.5-0.9l1-1l0.5-1.5l-0.9,0.3l-0.9-1.9l0.6-0.8l0.8,0.8l1.3-0.5l-1.1-2.8l-2.5-2.2l1.8-1.4l-0.8-0.6l0.6-0.4l-0.8-2.6
		l0.5-1.1l1.2-0.9l2,0.6l1.1,1.5h0.8v-2.2l-3-4.2h-0.9l0.6,1.9l-4.8,0.3l-1.8-0.6l0.5-1.2l2-1.4l0.1-3.9l-0.4-0.9l0.6-2l-1.1-1.4
		l-2.6-4.1l-1-3.9l-1.2-1.5l-1.6-0.1l-0.3,2.4l1.5,3.3l-4,1.5L249,229l-0.4-1.6l-1.1-1.8l0.4-1.9l3-1.2l1.8-1l-1.1-1.6l-5.6-3
		l-2.6-3.9l-2.9-0.3h-3.1l-1.9,0.4l-0.9-0.8l0.6-1.5l2.2,0.1l1.2-0.2l0.1-0.8l-3.1-0.6L233.6,207.5"/>
	<path id="path3069" inkscape:connector-curvature="0" class="st0" d="M457.8,79.2l35.7-0.1V33.2h20.9l0.4-0.4l1.2-3.5l0.1-0.2
		l1.4-1l0.1,0.1l-0.6,1l-0.3,0.4l0.1,0.4l0.4-0.1l0.1-0.3l0.4,0.1l0.4,0.7l1.1,0.3l0.1,0.5l0.4-0.1l0.4-0.5l0.4-0.1l0.4,0.1L521,31
		l-0.1,0.5l0.3,0.4l0.5,0.4l0.1,0.6l0.9,0.1l0.2-0.1l0.3,0.4l0.4-0.1l0.3-0.4l0.1-1h0.6l0.5,0.4l0.6,1.2l-0.1,0.7l0.8,1.2l0.5-0.1
		l0.4-0.5l0.1-0.6l0.5-0.1l0.1-0.5l-0.3-0.6l0.5-0.1l0.6,0.1l0.8,0.9l0.3-0.1l0.2-0.4l0.3,0.4L530,34v0.4l1-1.1l0.3-0.5h0.2l0.9-1
		l0.6-2.9l1.8-5.6l1.1-2.2l5.1-2.9l3.2-0.1l1.4,1.9l4.8,1.2l0.1-0.6l5-4.7l-5-5.1l0.9-0.5l6.1-1.8l0.8-0.7l2.4,2.2l0.8,1.8l1.5,1.5
		l1.5,0.7l4.9,7.6l4.8,0.6l2.9-0.4l0.4,2.2l-3,1l-1.7-0.2l1.2,1.1l8.1,5.5l1.6,1.6l2.1,1.7l2.5,3.3l0.4,3.4l0.9,3.4l0.8,0.9l0.1,0.5
		l-0.6,3.3v1l1.9,0.3l2.6,1.1l1,0.7l0.9,0.2l-0.1,0.7l-0.6,0.3l-0.4,0.1V54h-0.5v0.1l-0.8,0.1l-0.8,0.5V55h-0.4l-0.5,0.4l-0.6,0.1
		l-1.1,1l-0.4,0.7l-0.1,0.9l-0.4,0.6v0.9l-0.4,1.1l-0.4,1.4h0.5v0.1l0.3-0.1v0.1h0.1v-0.1h0.1V62l0.3,0.1V62h0.1v-0.1l0.3,0.1v-0.1
		v0.2l0.3-0.1v-0.1h0.1V62v-0.1h0.3v-0.1h0.1V62h0.3v0.1V62l0.5,0.1v-0.2h0.3v-0.1h0.1l0.1,0.3l0.9-0.1v-0.4h0.1v0.1h0.1l0.3-0.4
		h-0.1l0.1-0.4h0.4v-0.1h0.1v-0.1h0.1l0.1-0.2h0.3v0.1h0.2v0.1h0.3l0.1,0.4h0.1l-0.1,0.1h0.1V61v0.1l0.2-0.1l0.3,0.1v0.1h0.1v-0.1
		h0.1v0.1h0.2v-0.1h0.1v0.2h0.1v0.1h0.8v-0.1l0.3,0.6l-0.9,0.3l-0.2-0.3v0.3h0.1v0.1h0.1l0.1,0.5h0.1l-0.1,0.5l0.1,0.1l-0.1,0.1h0.1
		v0.1h-0.1v0.6l0.9,1.6l1.1,1.2l1.1,0.4l-0.5,1.4l-0.8,0.9l-0.8,1.5l-0.4,1.2l-0.4,3l0.1,1l-0.6,1.6l0.5,1.8l0.6,0.1v0.1h0.3v0.1
		h0.1v0.1l0.8,0.1v0.1h0.1V81h0.8v0.1h0.1V81h0.1v0.1h0.1V81l0.6,0.4h0.3v-0.1h0.2v-0.1h0.6v0.1h0.3v0.1h0.1v0.1h0.1V82l0.4-0.1
		L603,82l1-0.4l0.1,0.1l0.4-0.1l0.4,0.3l0.4,4.9l-0.3,0.1l-0.5,0.6h-0.4l-0.8,1h-0.1l-0.1,0.2H603l-0.3,1.6h-0.1l-0.1,0.5h-0.1V91
		l-0.3,0.1v0.1l-0.6,0.3l-0.8,0.2v-0.1v0.1h-0.1l0.1,0.1l-0.1,0.2l-0.6,0.1v0.2h0.1l0.1,0.5l-0.1,0.1h0.1l0.1,0.6l0.1,0.2h0.1
		l0.1,0.4h0.3v0.4l-2.3,2l3.4,1.5v4l-0.4,1.8l0.9,2.6l-2.8,1.9l-5.1-3.9l-1.5,9.7l-1.9,1.6l-5.9,8.7l-2.2,1.4l-3,3.6l-5.9,8.4
		l-8.8-5.6l-5.2,10.4l-3,4.6l-0.5,5.1l-7.4-1.5l0.6-3l-9.3-2.1l-4.6-0.6l-2.2-5.6l-2.4-2.7l-0.5-1.6l-1.9-2.1l-1-4.5l0.8-0.5
		l-1.3-0.9l-2.9,1.8l-4.4,1.9l-2.7-1.8l-1.4,0.6l-2-0.6l0.4,4.5l-2.1-0.1l-1.4-1.6l-0.9,1.2l-0.1,1.4l-1.8-0.4l0.1-0.6l0.8-1
		l2.5-1.9l-0.3-1.5l-0.5-1.2v-1.1l-0.4-1.5l-1.2,0.5l-2.1,1.9l-0.5,2.1h-1.1l-0.6-0.6l-1.5,1l-0.9,2.5l0.9,0.5l0.3-1.5l1.7,0.3
		l0.3,1.9l-0.3,0.5l-2.6,1.4l-3.4-3.9l-2.4,0.6l-0.6-1l-0.5-1.5l-2.5-1.1l-1.5,2.2l-1.5-0.9l-1.6-2.4l0.4-2.4l1.9-3.2l-0.3-3.4
		l-1.9-1l-2.4,2.6l-5.7-0.1l-7.9-14.5l-3.8-6.7l-2.6-4.4l-2.5-4.5l-2.6-4.4l-2.5-4.5L457.8,79.2"/>
	<path id="path3089" inkscape:connector-curvature="0" class="st1" d="M677.6,109.6l0.4,0.3l0.4-0.1l0.6-0.1l0.2,0.3h0.4l0.3-0.3
		l0.1-0.6v0.5l0.1,0.4l-0.2,0.1h-0.5l-0.2,0.3l-0.1,0.2l-1.3,0.1"/>
	<path id="path3119" inkscape:connector-curvature="0" class="st0" d="M631.9,194.2l1.9-1.4l2.2-3l0.8-1.6l1.8-0.1l1.5,1.1l0.9,0.9
		l0.9,0.1l-0.1-1.5l0.4-2l1.2-0.6l0.1-2.4l1-0.1l-0.1-0.8l0.8-1l0.8,0.4l1.8-3.3l1.1-2l1.6-1.6l1.5-1l1.1,0.8l1.7,0.1l0.9-0.8
		l2.9,0.1l-0.8-1.1l0.1-0.9l-0.6-0.5l-0.1-0.5l0.1-1.2l1.1-1.2l0.9,0.1l1.5,0.9l0.9-1l0.6-1l1.1,1.4l1.6-1.6l-1.1-1.5l3.6,0.4
		l1.8-1.2l-0.6-1l0.8-1.6l0.9,0.5l-1-1.1l1.6-0.9l2-0.1l-0.8-1.4l1.2-1h0.6l-0.4-1.5l1.1-0.2l-1.3-2l0.4-0.9l-1-1.5l0.3-1.6
		l-1.5-2.6l1.6-2.4l1.7-0.9l2-0.4l0.5-1.1l-2.1-1.4L674,141l0.6-1l0.1-0.5l-1-1.4l-0.9-0.6l-1.2-0.2l0.8-1.5v-1.5l0.2-0.3l-1.2-1
		l0.3-1.5l1.2-0.4v-1.4l0.4-0.5l-0.4-1.1l0.1-1l0.5-1.3l1.2-0.1l0.1-2.6l0.4-1.2l0.8-1l-1.3-0.9l-0.4-1.5l-0.5-0.5l1-1.4l-1.6-2.1
		l-1-2.1l0.1-1.5l1-1l0.4,0.1v0.4l-0.3-0.1l-0.1,0.1l0.4,0.5l0.2-0.1l-0.1,0.3l5.1-0.5l1-0.1l6.1,0.6l1.5,1.2l-1.1-0.1l-0.1,2.4
		l2.9,0.1l-1.2,18.6l8.2,0.7l-0.9,12.3l1,0.9l1.7,0.4l0.5,0.9v1l0.2,0.4h0.5l0.6-0.5l0.9-1l0.6-0.1l0.5,0.5l0.3,0.6l0.9,0.9l-1,0.4
		l3.5,6.9l2,5.6l1.9,4.6l0.4,3.2l-5.2,2l4.4,11.6l1,1.5l-0.9,0.6v0.5l0.9-0.1l0.1,0.9l-0.1,0.8l-0.5,0.1l-0.5,0.6l-0.5,0.1l-0.1,1.1
		h-0.5l-0.5,1.1l0.6,0.1l-0.3,0.5l0.3,0.4l-0.6,0.4l0.4,0.9l-0.6,0.1l0.1,0.5l-0.5,0.6l-0.4,0.1l-0.2,0.5l0.4,0.6l-0.4,0.4l0.2,0.4
		l-0.4,0.4l0.1,1.1l-0.5-0.1l0.1,0.6l-0.1,0.3l-0.6-0.1l-0.1,0.5l-0.5-0.1l-0.1,0.5l0.3,0.6l-0.9,1.1l0.1,0.5l0.6,0.2v0.4l-0.5,0.1
		l0.1,0.5l-0.5,0.1l0.4,0.6l-0.1,0.9l-0.6,1.3l0.2,0.4v0.5l-0.6,0.1l-0.1,0.6l-0.5,0.4l-0.1,0.5l0.4,0.6v1.1l0.4-0.1l0.3,0.1
		l-0.3,1.5l-0.3,0.4l0.1,0.5l-0.2,0.4l0.2,0.5h0.5v0.2l0.5,0.5l0.1,0.5l-0.1,0.3l-0.4-0.1l-0.4,0.8l0.5,0.7l0.8,0.1l0.6,0.9
		l-0.4,0.5l0.1,0.3l-0.3,2.5l-0.5,0.1l-0.1,0.5l0.5,0.6l0.4,0.3l-0.1,0.9l0.8,0.3H705v0.1h-0.1l0.1,0.4l0.5-0.1l-0.2,0.9l0.1,0.1
		l-0.1,0.1l0.2,0.4l-0.4,0.6l0.3,0.5l0.4-0.1v0.3l0.6,0.3l-0.1,0.2l0.1,0.3l0.8,0.3l-2.9,6l-3.8,6.7l-2.4-1.1l-3.4,0.8l-1.4,0.1
		l-3.3,1.4h-0.5l-0.4,4.4l-1.2-0.1l-3.6-0.9l-4.1,7.9l0.5,1.2l-0.1,1.5l0.2,0.7l-0.1,0.9l0.4,0.8l-7.2-1l0.5-0.1l0.3-0.5l-0.5-0.4
		l-0.2-0.4l0.2-0.1l0.3,0.2l0.3-0.5l-0.3-0.4l-6.4-2.4l1.4-4.8l-8.6-2.7l1.2-3.1l-10.5-5.4l3.9-5.5l-2.1-0.9l6.4-11l-3-1.1l-2.1-0.4
		l-1.1-0.9l-1.4,0.6l-0.3-0.1l-0.1-0.6l-0.6-1l-1-1l-0.4-1.5v-1.8l-0.8-1.1l-0.5-1.5l-1.4-0.4l-0.5-0.6l0.5-0.9l-0.4-0.4l-0.4-1.8
		l-3.2-0.8l-2,0.1l-2.4-1.1l-1.9-0.5l-1.2-1.5l0.2-1.5l-1.6-1.9l-1-0.5l-1-1.4L631.9,194.2"/>
	<path id="path3129" inkscape:connector-curvature="0" class="st0" d="M582.3,204.5l1.4-8.5l1.4-0.1l0.3-2.6l2.2,0.5l0.8-2.4h2.6
		l0.1-3.5l2.6,0.6v-2.1l-1.9-0.9l0.5-1.9l3.3,0.5l-0.3-3l3.9,0.1l0.4-3.7l-1.1-3.6l-1.1-1.9l-1.3-1.2l0.5-1.1l2-0.8l0.8-0.9l1.9-1.5
		l4.1,0.6l-1.2,6.1l0.6,4l6.8,0.9l-0.6,6.2l2.6,0.3l1.3,2.9l1.7,0.8l2-1.6l1.6,2l-0.9,1.1l-0.8,1.4l-0.4,6.5l-3.1,2.4l-0.4-2.7
		l-2.4,1.2l-0.9-0.5l0.5-2.1l-1.6-0.3l-2.4-2.2l-2.5,1.5l-2,1.6l-1.1,2.2l-2.1,0.6l-1.9,0.3l-0.5,2.1H593l-1.7,2.1h-2.6l-3.9,3.1
		L582.3,204.5"/>
	<path id="path3139" inkscape:connector-curvature="0" class="st0" d="M361.1,164.9l1-0.9l2.4-0.1l0.6-0.9l-1.3-2.6l0.5-1.6h0.6
		l1.9,0.6l1.3,1.5l1.6,1.4l0.9,0.5l2.2,0.1l1.4-0.5l1-0.9v-1.1l0.9-0.2l0.3-1.3l0.6-0.2l2.2-0.1l1.5-0.8l0.5-2l-0.9-2.9l0.3-2l3,1.2
		l2.4-0.6l-0.4-0.6l-3.4-2l-2.1-0.4l-1.3-1l-0.4-0.5l-0.8-2l1.5-0.2l5.1,2l0.3-0.5l-0.3-1.1l-1.2-0.8l-1.8-0.5l-1.4-1.5l0.3-1.2
		l3.3,1.1l4.1-2.1l1.5-1.6l1.5-1.2l1.6-0.3l0.3-0.4l-0.5-0.9l1,0.1l1.1-0.3l1.2,1l2-0.3l1.7-1.4l2.5,0.9l1.2,2.4l0.3,1.1l-0.5,0.1
		l-1,0.6l0.1,1.4l0.5,1.1l2.7,0.1l1,0.3l1.2-1.6l-1.4-0.7l0.9-0.5l0.5-2.1l1.4,0.2l-0.1-1.1l1.3,0.8l0.9,1.3l-0.1-3.5l2,2l3-0.3
		l8.2,0.3l2.6,1.5l3.1-3.9l19.5,2.1l4.1-4.9l3.3,1.2l1.9,2.1l6.5,6l3,5.7l-2.5,4.4l-2.9,3.6l-4,2.6l-12.6,1.6l-3.3,1.4l-4,9
		l-18.4,15.5l-8.5,7.2l-2,0.9l-0.1-2.1l-3,1.6l-0.3,1.9l-0.9,0.9l-3.5-0.8l-0.6,0.5l1.1,2.6h-0.9l-0.6-0.3l-0.9,0.3l-0.9,1.1
		l0.3,2.2l2.2,1.5l0.1,0.4l-0.4,2.6v2.1l-1.5,1l-1.6-0.5l-1.1,0.3l-1.6-1.5h-1.4l-1.2-1l0.1-1.6l-1.2-2.6l0.4-1.6l-1.5-0.8l-1,0.1
		l-0.4,0.5l0.6,0.6l-0.1,1.4l-0.8,0.6l-0.2,0.5l0.2,1l-0.4,2.4l-1.1,0.4l-1.9-0.2l-5-2.4l-4.8-1.4l6-1.4l-0.8-2.1l0.3-1.6l1.1-2
		l1.5,0.1l0.5-1.4l-0.8-0.6l-0.5-1l-0.6-0.5l-1.4-0.5l-1.8,1.1l-0.4-0.4l-0.3-1.2l0.1-1.4l0.8-0.6l-1.5-2.1l0.6-1.4l-0.5-2.5l-0.8-1
		l-0.9-0.5l-0.9-0.1l-0.9,0.6l-0.8,0.9l0.1-1.1l1.1-1V181l-1-0.8L372,181l-0.6-1l-2-1l-1.8-0.3l-1.4,0.1l-1.1,0.5l-2.8-0.1l0.1-1.4
		l0.8-0.5l0.5-0.6l0.1-1l-0.6-0.8l-0.6-1.4l0.5-0.5l0.9,0.1l0.6-0.5l0.6-1.5l2-1.4l0.5-1.3l-0.3-1.1l-1.6-0.9h-2.2l-1.8-0.4
		L361.1,164.9"/>
	<path id="path3141" inkscape:connector-curvature="0" class="st0" d="M424.5,182l14-11.7l4-9l3.3-1.4l12.6-1.6l4-2.6l2.9-3.6
		l2.5-4.4l-3-5.7l-6.5-6l-1.9-2.1l-3.3-1.2l-4.1,4.9l-19.5-2.1l-3.1,3.9l-0.9-20.2l0.8-18.3v-22l0.5,0.4l31,0.3l2.6,4.4l2.5,4.5
		l2.6,4.4L468,97l2.6,4.4l7.8,14l2.6,5l5.7,0.1l2.4-2.6l1.9,1l0.3,3.4l-1.9,3.2l-0.4,2.4l1.6,2.4l1.5,0.9l1.5-2.2l2.5,1.1l0.5,1.5
		l0.6,1l2.4-0.6l3.4,3.9l2.6-1.4l0.3-0.5l-0.3-1.9l-1.7-0.3l-0.3,1.5l-0.9-0.5l0.9-2.5l1.5-1l0.6,0.6h1.1l0.5-2.1l2.1-1.9l1.2-0.5
		l0.4,1.5v1.1l0.5,1.2l0.3,1.5l-2.5,1.9l-0.8,1l-0.1,0.6l1.8,0.4l0.1-1.4l0.9-1.2l1.4,1.6l2.1,0.1l-0.4-4.5l2,0.6l1.4-0.6l2.7,1.8
		l4.4-1.9l2.9-1.8l1.3,0.9l-0.8,0.5l1,4.5l1.9,2.1l0.5,1.6l2.4,2.7l2.2,5.6l7,1.1l6.9,1.6l-0.6,3l7.4,1.5l0.5-5.1l3-4.6l2.6-5.1
		l2.6-5.2l8.8,5.6l5.9-8.4l3-3.6l1.1-0.8l7,3.6h-0.1l0.4,0.4v4.1l1.1,3.2l1.4-0.2l0.1-2.1l0.5-0.3l1.5,0.4l-0.1,4l-3-0.1l-1-0.3
		l-0.4,4.2l-1.9,9.5l-3.1-1.1l-0.9-0.1l-0.6,2.5l-1.9-2.9l-0.5-0.1l-0.1-0.5l-0.6,1.2l-1.1,0.9l0.1,1.4l-1.9-1.4l-0.8-0.2l-1.3,1.9
		v4.4l-1.4,0.8l-1.3,1.6l0.4,0.1l-4,4.9l-1.1-0.9v-1.8l-1-0.4H568l1.9-1.8l2.2,0.4l-0.6-3.2l-1.4-0.9l-2.2,0.9l-1,1.6l1.2,1.1
		l-0.6,1.2l-1-0.1l-0.4-0.9l0.9-1.3l-0.9-0.2l-1.4,0.1l-1.8-0.5l-2.4-1.1v-1.1l2-1l1.4,0.1v1.3l0.4,0.5h1.2l2-2.2l-1.5-2.1l0.4-0.8
		l-2.4,0.4l-0.8,0.8l-3-0.5l-1.7,1.1l-2-0.9l-1.7,2.5l-1.1,1l-0.3,1.8l0.6,1.6l1.5,0.8l1.5,1.2l0.8,1.4l-1.1,0.6h-1.9l-1.4,0.4
		l-0.4,1.1l0.3,2.5l2,2.1v1.1l-1.6,0.7l-3.1,3.7l-5.6-1.2l-1.4-0.9l-3.9-0.2l-3.6-4.5l-1.5-0.4H533l-0.4,1.5l1.4,1.2l-2.5,4.9l2,1.5
		l1.6,1.9l-0.1,0.5l5,1.8l0.5,1.9l1.9,0.3l0.1,1.2h-2.6l-1.5-0.8l-0.6-0.6l-0.6,1.4l0.4,1l-0.5,1.2l-1.1-0.1v-2.6l-5.9,3.1l-1.6-0.6
		l-1,3.1l-1.6,10.6l-1,7.9l8.8,1.2l-0.4,5.9l0.4,5.7l-1.6,5.4v1.6l-1.5,1.2l1.1,3.1l1.6,3l-0.5,2.9l-0.2-1.1l-0.6,0.4h-1l-0.1,0.4
		l0.9,0.4l-0.8,1.1l2.4-0.2l7.5,7l-5.8,10.4l-3,4.9l-6,11.6l-0.1,2.5l-0.4,0.2l-0.6,0.9l-0.1,0.8l0.1,1.5l-0.4,0.6l-0.2,1.1
		l-12.6,0.3l-6.7-8l-8.6-9.9l-3.9-3.8l-1.9-2l-9.7-9.4L470,237.1l-1.9-1.8l-1.7-1.9l-9.3-8.6l-6.6-7h0.3l3.5-2l-26.7-29.5l-1.8-1.9
		L424.5,182"/>
	<path id="path3143" inkscape:connector-curvature="0" class="st0" d="M231.8,575.9l0.8-0.2l0.9,0.5l1.4,3.8h1.4l-0.1-2.6l0.5-1.1
		l1.7-0.5l0.6-2.2l-1.1-1.4l-1,0.6h-1.1l-1-3.8l-1-1.4l0.6-0.6l2.2,2.1l1.4,0.4l1-1l0.4-2.5l-0.9-3.1v-1l0.7,0.1l1.9,1.1l0.7,1.5
		l1,0.5l1.1-0.4l1.5-4.4l-3.4-1.9l0.6-2.4l2.1-1.1l0.6-3l-0.1-9.4l0.5-5.1l2.2-0.8l2.2,0.6l2.8,0.3l1.7-0.3l3.1-1.6l4.4,2.4l1.6-0.5
		l2.9-0.1l0.3-1.4l0.8-0.8l2-0.6l3.9-3l1.6-2l2.6,2.6l1.9,1.1l1.5,1.2l2,0.3l2.8,1.6l0.4-1.1l-0.9-2.5l0.8-2.1l3.3-0.1l3.4-1
		l0.1-3.6l4-0.1l2.5,2.4l1.5-0.4l4.9,14.8l-0.6,3.2l-2.9,1.1l-2.9,0.6l-3.5,4.2l-0.5,1l-3,1l-3.1,5.7l4.1,3.6l2.4,1.5l0.4,1.9
		l1.2,0.1l1.4,1.2l2.6,1.1v0.6l-1.1,0.6v1.6h1.4l0.6,0.4l3.1-0.3l4,5.9l-0.8,1.5l3,0.9l1.5-0.9l3.6,2.4l1.2-0.9l1.6-0.8l1.9-0.4
		l1.7,0.1l0.9-0.1l2.1-3.1l3.3-1.1l1.2-1.8l2.6-0.4h1.8l1.9-1l1.8-1.5l3.8-2l1-1.2l1.9-0.5l1.5,0.1l4.3,3.2l4.5,2.1l2.9,1l6.5,4.5
		l-0.6,0.5l-1.2,0.4h-1.4l-0.9-0.5l-0.5-0.9l-0.6-0.2l-2.1,0.9l-1.6,0.4l-0.9,1.4l-1.7,1.4l-1.4,2.8l-0.3,3.5l11.4-0.5l4.6,0.2
		l-4.2,7.6l-0.8,4.1l0.5,1.4l-0.4,1.3l0.3,0.2l0.1,0.5l-2,0.2l-0.8-0.8H360l-2.1,2.1l-0.2,0.6l-1.4,0.6l-1.4-0.2l-1.1,0.8l-0.6,1.1
		h-0.8l-0.3-0.5l-1.4,0.3l-0.4-0.6l0.3-0.6l-0.1-0.3l-0.4-0.1l-0.4,0.2l-0.5,1.1l-0.1,1.3l-1-0.4l-0.9,1l-0.9,0.1l-0.9-0.5l-0.8,0.5
		l-2.1,2l-1-3.4l-1.9-2.4l-0.1-1.1l-1.3-1.6l0.1-7.7l-0.4-1l-0.5-0.8l-0.2,1.5h-0.8l0.2-4.5l-10.1-3l-0.2-2l-3.1,1.9l-0.5,5
		l-0.3,0.5l-0.8,4l2.8-0.5l0.9-0.8l0.5,0.6l-1.2,1.4l-1,1.4l-1.6,1.4l-0.4-1.4l-1.4,0.6l-1-0.8l-0.4-0.8l0.4-0.8l-0.1-0.6l-1.2,0.5
		v2.6l0.6,0.8h0.8v-1l1.2,0.6l-1.4,3.5l-1.5-0.8l-1.2,0.3l-1-0.1l-0.9,1l0.1,1.3l0.5,0.1l0.1,0.9l0.5,1l-1.2,0.9l1.9,2.6l-2.6,7.9
		l0.8,1.4l0.8,0.5l0.5,1.6l0.4,0.2v0.9l0.6-0.1l0.3,0.3l-0.5,1.1l-0.9,0.6l-0.3,0.8l0.3,0.2l-1.2,0.6l0.5,1.2l-0.4,0.6l0.3,0.1v0.4
		l-0.5,0.4l-0.8-0.1l-0.6,0.1l-0.1-0.9l-1.2,0.4l-0.1,0.4l-0.4,0.3v0.4l0.2,0.1l-0.5,0.8l-1.2,0.3l-0.1,0.6H309l-0.1-0.8h-0.3
		l-0.1,0.6l-1.5-0.1l-0.3,0.4l0.4-1.3l-4.9-6.1l-2.4,2l-2.6-0.1l-0.4-3.6l-7.9-1l-1.6,1.7l-1.1-1.6l-6.1-0.8l-1-0.9l-2.4-0.4l-1-0.9
		l-2.7-0.8l-2.4-1l-2.6-1.6l-1.9-0.1l-0.1-1.1l-1-1.8l-1.8,0.8l-2.9-3.4l-6.5-3l-3.1-1l-1.5,0.8l-0.1,1.5l-3.7-1.1l-2.9,1l-2.5-5.2
		l-2.7-3.5l-0.9-0.1l0.8,3.1l-1.7,0.9l-1.3-0.4l-0.2-4.6l1.4-1.9l-1.2-5.9l-1.2,0.3l-0.4-0.1l1.1-6.3l-1.1-1.2l1.4-0.6l-0.2-1.2
		l-1.6-0.3L231.8,575.9"/>
	<path id="path3145" inkscape:connector-curvature="0" class="st0" d="M398.3,256.9l0.8-8.1l3.3,0.3l0.2-3l1.9-0.3l0.4-2.2l-0.6-2.1
		l-0.8-1.6l-1.5-2.2l-2.5-4.8l1.2-0.4l1.8,1.6l1-0.4l1.9-1.4l1.6-2.4l0.3-3.3l0.9-2l2.4-0.3l1.6,1.5l-1.1,1.5l1.7,1.6l2,0.6l2.2,0.3
		l1.1,1.5l1.1-0.3l2-1.1l0.3-1.5l-2.8-0.3v-1.5l6.1-4.2l3.2,1.2l-1.2,2.4l4.2,2l3.9,1.1l0.5,0.9l1.6,0.9l2.9-0.4l-1,3.4l2.4-0.1
		l1.1-2.5v-7.3l2-3.7l1.9,1l2.4-3.4l2.1-0.1h-0.3l8.4,8.7l7.5,6.9l1.7,1.9l1.9,1.8l10.6,11.2l9.7,9.4l1.9,2l3.9,3.8l12,13.9l3.4,4
		v44.5l-22.8,0.2l-0.6-1.2l-0.3-1.2l-0.4-0.5L487,323l-0.5,0.1l-0.4,0.9l-1.6-0.1l-1.2-1.1l-2.6-1.5l-0.5-0.1l-0.4,0.1l-0.4,0.5
		l-0.5,0.1l-0.4-0.3l-0.1-1.5l-0.8-1l-3.1,1.1l-0.4-0.5L474,319l-1.4,0.1l-3.2,0.8l-0.8-1l-4.1,1.1l-2,0.3l-0.2,0.5l-0.1,1.8
		l0.3,2.9L461,326l-1.2,0.3l-0.4-0.5l-0.8-2.6l-0.8-1.5l-1.1-1.2l-0.4-0.8l-0.4,0.5l-0.6,2.9l-0.2,0.4l-1.1-0.3l-0.4-0.4l-0.4,0.3
		l-0.4-0.5l-0.4,0.5h-0.1l-0.2-0.5l-2.4-0.3l-3.4-2.5l-1.7-0.9l-0.9,0.1l0.3-1.2l-1.4-0.5l-0.2-0.6v-0.9l-4.1-6.3l-1.1,0.6l0.8,0.5
		l0.1,1.2l0.5,1l-0.2,0.1l-2-1l-0.6,0.2l-0.4-0.2h-0.6l-0.4-0.6l-1.1-0.3l-0.4-0.8l-0.5-0.1l-1.5-1l1.7-5.7l-1-0.5h-1.4l-0.9-1.3
		l1.4-1.5l-1.1-1.4l-2.4,0.9l-0.8-0.5l-1.9-2l-0.5-1.5l3.5-0.2l0.3-1.5l-1.1-2.2l0.5-3.1l1.4,0.4l0.5-1.7l-0.8-1l0.5-3.7l-0.8-7.1
		l-1.9-2.4l-2.4-6.5l-2,3.1l-1.3-1.8l-5.4-0.1l0.1,1.9l-1,1.4l-0.6-0.2l-1-3.8l-2.5-0.9l1.2-5l-1.9,0.3l0.8-3.1L398.3,256.9"/>
	<path id="path3147" inkscape:connector-curvature="0" class="st0" d="M261.8,509.1l1.1-1.2l0.3-2l1.4,0.6l0.3-2.1l1.1-0.8l2.1,0.6
		l1.9,0.1l2.6-0.5l2.5,0.9l1,1l0.8,1.9l1.1,2l3.9,1.2l2.8,0.3l1.5,1l1,1.4l0.4,1.9l1.8,1.6l0.1,1.3l1.4,0.6l1-0.5l-0.3-7.4l0.9-0.5
		l0.5-4.8l-1.4-0.2l1.4-7.6l3.9,0.6l0.4,3.7l-0.4,0.9l0.4,1l13.9,1.6l4.6,1l-0.5-2.2l-0.8,0.1l-2.2-4l1.4-0.8l1.5-2l1.1,1.8l0.8-0.9
		l1.2,1.9l2.2,1.4l0.9,0.8l0.8,1l1.3,1l0.8,1.1l0.5,2.4l1,1.5l0.9-0.1l2.2,0.1l0.8-0.6l1.8-0.6l1.9-1.3l-0.3-7.7l5,0.4l3-0.1
		l1.1,1.3l2.2,0.6l6.9,0.1l1.5-0.1l0.4,0.4l-0.3,0.6l-0.6,0.6l1.8,1.4l2.2,2.8l1.9-1.4h0.6l1.9,0.8l2,1.5l0.9,1.1l-0.4,0.5l-1.2,1
		l-0.4,0.6l0.8,1.6l0.8-0.4l1,0.1l0.6,0.8l0.4-0.8l0.6-3.1l1.5-1.8l1.9-1l1.8-0.6l1.2,1.5l0.9,0.1l4-1.7l1-0.8l0.5-0.6l3.3,3
		l0.1-0.8l1.1-1.6l0.3-1h0.5l0.5,0.4l-0.5,1.2l2.5,1.4l-1.4,5.9l4.6,1l3.9-16.2l12.4-0.9l-1,1.9l5.9,1.2l1.1,0.6l-0.3,1.7l-2.4,5.6
		l-0.8,1.3l-0.4,1.1l-0.4,3.1l-0.4,0.9l-0.4,0.3h-0.8l-0.5,0.3l-0.1,1.2l3,1.6l0.5-1.2l1.6-0.1l1,0.9l1.1,0.1l-0.5,1.6l-1.5,1.9
		l-0.4,1l-0.3,1.6l0.4,2.7l0.5,0.5l7.5-2.9l5.1-1.3l0.6,1.3l1,4.2l4.4,1.4l3.6,1.7l1.9-2.9l0.8-0.3l1,0.8l6.4,8.5l2.1,2.4l1.4,2.1
		l0.6,1.5l0.6,2.9L447,549l-1.5,3.1l-4.4,3.8l-6.4,3.6l-0.5,0.5l-1.6,1l-5,1.4l-1.1-0.1l-1.1,0.4l-1.4,1.1l-1.4,0.6l-1.2,1.1
		l-1.3-1.3l-1.2,1.5l-2.5-0.8l-2.1,0.4l-2,1.5l-1.5,2.1l-0.2,1.9l-0.3,0.3l-0.9,0.1l-1.3,1.6l-0.9,0.1l-1.6-0.1l-1.4,0.5l-2.2,1.5
		l-1-1.1l-0.4-1.6l-0.9-1l-0.8-0.6l-1.1,0.1l-0.6-0.8l0.3-0.4l-1.5-2.9l-0.8-0.5l-1.1,0.1l-4.2-0.4l-0.3,0.6l0.3,2.1l-2,0.8
		l-2.4,4.2v1.3l-1.1,2.9l-12.7-7l-1.4,0.5l-0.6,0.8l-2.2-0.9l-1.1,2.1l-0.5-0.2l-1.7,3.4l0.1,0.6l1.4,0.3l-0.4,1l-6.5-4.5l-5.1-2
		l-2.2-1.1l-4.3-3.2l-1.5-0.1l-1.9,0.5l-1,1.2l-3.8,2l-1.8,1.5l-1.9,1h-1.8l-2.6,0.4l-1.2,1.8l-3.3,1.1l-2.1,3.1l-0.9,0.1l-1.7-0.1
		l-1.9,0.4l-1.6,0.8l-1.2,0.9l-3.6-2.4l-1.5,0.9l-3-0.9l0.8-1.5l-4-5.9l-3.1,0.3l-0.6-0.4h-1.4v-1.6l1.1-0.6v-0.6l-2.6-1.1l-1.4-1.2
		l-1.2-0.1l-0.4-1.9l-2.4-1.5l-4.1-3.6l3.1-5.7l3-1l0.5-1l3.5-4.2l2.9-0.6l2.9-1.1l0.6-3.2l-4.9-14.8l-1.5,0.4l-2.5-2.4l-4,0.1
		l-0.1,3.6l-3.4,1l-3.3,0.1l-3.2-1.9l1-4.2v-2h-0.8l-0.9,0.9l-2.2-2.6l0.1-0.8l1.6-2l-0.1-1.4l-0.5-0.9l-0.9-2.5l-1.6-0.9l-0.1,0.9
		l0.9,1.1l0.5,2.4l-1.3,0.8l-1.6-4.2v-2.2l-0.9-0.1l-0.4-1l-0.9,0.4l0.6,1.5v1.5l-3.5,0.5l-0.9-1.6l0.4-0.9l0.5-0.2l-0.3-0.6
		l-0.6-0.6l-0.4-1.4l-5.2,1.9l-1.2-0.3l-1.5,0.5l-1-0.4L261.8,509.1"/>
	<path id="path3149" inkscape:connector-curvature="0" class="st0" d="M162,611.2l0.3-0.9v-1.2l0.4-0.8v-0.8l0.4-0.3l0.2-1.1l-1-1.9
		l1.1-0.8l1.2-2.1v-2.6l0.5-2h2.2l2.1,1.8l0.3-0.1l0.6-1l1-1l0.1-2.9l13.1-3.3l-0.5-4.4l-1.8-0.5l0.5-0.1l0.4-0.5l0.2-1.1h0.6l1-0.6
		l0.4-1.1l1-0.1l1.1,0.1l1.6-1.6l-0.5-7.4l0.6-4v-2l1.5-1.6l-0.3-0.5l-1.2,0.4l-1.2-0.6l-0.8,0.6l-1.1-0.6l-1-1.5l-1.1-0.5l-0.4-0.8
		l-0.5-4l-1-3.1l0.4-1.2l-1.5-0.9l-1.4-3.5l-0.5-0.1l-1,0.1l-0.2-0.5l-0.3,0.4h-0.1l-0.1-1.4l-0.6-0.9v-1.5l-1.1-0.1l0.1-0.4
		l1.1-0.4l1.8-1.6l0.8-0.4l1-1.8l2.2,2.1l1.3,0.4l1.4-1.2l0.3-2l3.5,1.8l3.3,1.4h2.6l5.4,1.9l1.9-1.1l1.5,1.4l-0.4,1.6l0.9,0.2
		l2.2,1.8l2.6,1.6l2,0.5l0.6-1.1l-0.5-1.3l0.4-1l-0.1-2.6l3.7-0.1l1.1-3.1l3.3,1l1.7,0.1l8.2-0.5l2.1,0.1l3,0.6l0.5,1.6l-0.5,1.6
		h-0.6l-1,0.5l-1.5,1.4l-1.6,0.5l-0.1,2.2l1,1.6l0.6-1.2l1.6,1l0.1,2.2l0.7,1.6l0.9,0.6l1.1-0.6l1-3.9l0.8-1.9l1.1,1.8l0.4,3.1
		l1.2-1.1l2.6-1l2.2-1.3l-0.6,3l-2.1,1.1l-0.6,2.4l3.4,1.9l-1.5,4.4l-1.1,0.4l-1-0.5L241,563l-1.9-1.1l-0.7-0.1v1l0.9,3.1l-0.4,2.5
		l-1,1l-1.4-0.4l-2.2-2.1l-0.6,0.6l1,1.4l1,3.8h1.1l1-0.6l1.1,1.4l-0.6,2.2l-1.7,0.5l-0.5,1.1l0.1,2.6h-1.4l-1.4-3.8l-0.9-0.5
		l-0.8,0.2l0.1,4.4l1.6,0.3l0.2,1.2l-1.4,0.6l1.1,1.2l-1.1,6.3l0.4,0.1l1.2-0.3l1.2,5.9l-1.4,1.9l0.2,4.6l1.3,0.4l1.7-0.9l-0.8-3.1
		l0.9,0.1l2.7,3.5l2.5,5.2l2.9-1l3.7,1.1l0.1-1.5l1.5-0.8l3.1,1l6.5,3l2.9,3.4l1.8-0.8l1,1.8l0.1,1.1l1.9,0.1l2.6,1.6l2.4,1
		l-0.1,3.3l-0.6-0.3v1.6l1.4,0.9l-0.1,1.5l3.1-0.1l2.6,0.9l-1.8,1.2h-0.4l-0.5-0.4l-0.4,0.6l-0.8-1l-2,1.6h-0.8l-8.2,5.6l-2.7,0.4
		l-7-3.1l-2.2,0.8l-17.2,3.6l0.1,1.2l-1.1-0.2l0.2-0.3V635l-0.6,0.1l-0.6-0.2l-0.3-0.6l0.1-1l-0.3-0.4l-0.6,0.5l-0.2-0.5l0.1-0.6
		l-0.3-0.5l-1-0.6l-4,6.2l-1.4-1.4v-1l0.3-0.5l-2-0.1l-0.4,0.6l0.5,0.9l-4.9-1.5l0.1-1.2l0.4-0.9l-0.1-1l0.9-0.9l-0.6-1h1l1.8-1.1
		l-0.4-0.5l-1,1l-1,0.1l-0.8-0.4l-0.1-0.5l1.4-1.4l0.1-0.8l-0.8-0.1l0.3-1.5l-1.4,0.6l-0.1,1.6l-0.9,1.4l-1.9-0.8H215l-2.5,1.2
		l-5.1,0.4l-1.8-0.8l-0.4,0.8l-1,0.5l0.6,4.6l-0.5,0.5l-0.1,1l0.4,0.9l-0.5,3.8l-1.5-0.1l-0.4,1.4l-0.9-0.4l-0.5-1.5l-0.3-2.2
		l0.4-0.6l-0.1-1.6l0.6-0.5l0.3-1.6l0.4-0.5v-1.9l-1.2-1.1l-0.9-1.6l-1-0.2l-1,0.4l-1.2,0.8l-1.6,1.6l-1.1-1.6l-1.6-0.8L192,627
		l0.3-2l0.6-0.2l0.3-2l-0.3-1.2v-3.1l-0.2-1.5l-1.6-4l-4.1,1.1l-2.4,1.9l-0.4,1.1l-0.7,0.6l-2.1-0.1l-0.6-1.2l-0.5-0.3l-0.6,0.4
		l-0.3,1.3l-1.6,0.6l-0.9-0.2l-0.7,0.1l-0.1,0.8l-0.6-0.1l-2.6,0.5l-2.5-0.6l-1.1,0.3l-1-0.5l0.1,3.2l-0.9,2l-4.6-4l-0.1-5.2
		l0.5-0.4l-0.8-1.4L162,611.2"/>
	<path id="path3151" inkscape:connector-curvature="0" class="st0" d="M265.9,503.6l2.5-3.3l-0.4-1.9l0.8-1.8l1.6,0.1l4.6,0.9
		l0.8-0.3l0.4-1.4l-0.6-2.9l0.8-4.2l1.2,0.1l3,0.9l1.1-1l1.2-2.8l1-4.2l-0.9-1.1l-2.4-1.4l1-3.2l0.9-1.6l2.4-1.2l1.2-2.2L285,469
		l0.1-1.9l2.1,0.1l1.2,1.2l0.4,0.1l1.6-1.6l-0.5-3.1l-1.2-3.4l-1.4-1.9l-1.1,0.2l0.4,1.4l-3.9,3.3l-0.5,1.5H279l-1.1-1.8l0.1-3.3
		l-1.5-0.5l-0.9,1.4l-0.8,0.2l-0.6,1.4l0.6,1l0.4,1.2l-0.9,1.2l-0.9,0.1l-1.2-0.6l-0.3-2.1v-1.5l1.1-1.6l0.4-1.2l0.4-2.9l-1.4-0.6
		l-1.3-3l0.1-2.1l2.1-1.3l0.8-1.1l-0.1-3.4l0.9-2.2l1.8-1.2l0.8-1.1l-1.1-0.4l-0.9,0.9l-0.9-1l-0.6-1.9l0.9-1.1l-0.4-2.1l0.8-0.8
		l1.4,1.1l1.1-1.4l0.9-1.6l0.9-0.3l2.2-3.4l7.9,0.9l1.8-0.8l1.2,0.1l2.8-1l3.5,0.6l3.1-1.6l-0.8-1.6l6-0.1l3.3,0.3l1-0.5l3.5,1.9
		l1.2-0.9l1.3,0.6l0.2,3.1l4.3,0.8l6.5-1.4l1.8-2.5l1.9-1.6h1.6l1.1-0.4l1-1.9l1.5-0.6l0.9,2l0.5-0.9l0.8-2.4h1.8l3.6,4.4l-0.1,0.5
		l-0.9-0.2l-0.1,0.4l0.5,0.4l0.1,0.5l10.4,5.9l0.9,0.9l3,2.2l1,1l0.3,0.5l-0.4,0.6l-1.4-0.4l-1,0.5L357,438l0.4,0.4l0.6,0.2l0.9,1.3
		l0.6,0.2l0.6,0.5l1.8,2.4l0.6,0.6l1.2,0.6l1.1,0.1l0.6-0.1l1.6-1.5h0.5l0.6,0.5l0.5,0.9l0.4,3l0.4,0.3h1l2.1,0.9l1.2,0.3l2.9,1.7
		l1,1.3l0.9,2.4l-5.9,5.1l-1.9,2l0.3,2.5l-0.5,0.6v0.5l0.3,0.5v1.2l-0.3,0.3l-0.1,0.6l0.1,0.4l1.3,0.4l0.5,0.6l1.5-0.2l2.2,1.1h0.5
		l0.4,0.5l0.1,0.9l1,0.4h0.6l0.3,0.6l1.2,0.9l0.1,0.9l-0.2,0.8l-1.1,0.8l0.6,1l1.1,0.8h1.6l1.2,1l1,0.1l0.5,0.5l2,0.4l-0.6,3.6
		l-1.4,0.5l0.3,0.4l-2.1,3l-2.9,2l-1.4,2.2l-0.3,1.6l-1.2,3l-4,5.5l-0.4,1l1.9,0.4l0.8,0.8v0.6l1.8,2l-1,0.8l-4,1.7l-0.9-0.1
		l-1.2-1.5l-1.8,0.6l-1.9,1l-1.5,1.8l-0.6,3.1l-0.4,0.8l-0.6-0.8l-1-0.1l-0.8,0.4l-0.8-1.6l0.4-0.6l1.2-1l0.4-0.5l-0.9-1.1l-2-1.5
		l-1.9-0.8h-0.6l-1.9,1.4l-2.2-2.8l-1.8-1.4l0.6-0.6l0.3-0.6l-0.4-0.4l-7,0.1l-1.4-0.1l-2.2-0.6l-1.1-1.3l-3,0.1l-5-0.4l0.3,7.7
		l-1.9,1.3l-1.8,0.6l-0.8,0.6l-2.2-0.1l-0.9,0.1l-1-1.5l-0.5-2.4l-0.8-1.1l-1.3-1l-0.8-1l-2.2-1.6l-0.9-0.5l-1.2-1.9l-0.8,0.9
		l-1.1-1.8l-1.5,2l-1.4,0.8l2.2,4l0.8-0.1l0.5,2.2l-4.6-1l-13.9-1.6l-0.4-1l0.4-0.9l-0.4-3.7l-3.9-0.6l-1.4,7.6l1.4,0.2l-0.5,4.8
		l-0.9,0.5l0.3,7.4l-1,0.5l-1.4-0.6l-0.1-1.3l-1.8-1.6l-0.4-1.9l-1-1.4l-1.5-1l-2.8-0.3l-3.9-1.2l-1.1-2l-0.8-1.9l-1-1l-2.5-0.9
		l-2.6,0.5l-1.9-0.1L265.9,503.6"/>
	<path id="path3153" inkscape:connector-curvature="0" class="st0" d="M172.3,459.4l2-1.6l-0.6-6.1l1.2-1.1l1-1.9l0.4,0.5v-0.5h0.3
		l0.1,0.3l1.1-0.8l1.1-1.1l1.1-0.1l1.9,0.1l0.8,0.4l0.5,0.6l-0.2,0.4l0.8,1h0.2l1-1.1l-0.3-0.9l-0.5-0.6l-0.5-2.7l0.6-2.2l0.8-0.3
		l0.6,0.6l1.1-0.4l0.4-0.5l0.3-1.4l-0.5-0.6l-0.7,0.6l-1.1,0.5l-0.1-0.1l0.6-0.9l-0.8-0.5l-0.5,0.1l-0.4-0.4l-0.6,0.4l1,1.1l-1,0.3
		l-0.9-0.5l-1.9-0.3l-1.9,1.1v0.4l-0.2,0.4l-0.4-0.6l0.5-9l0.5-7.2l2.9-0.8l-0.4-1.2l6-2.2h6.6l3.1,1l1.1,2.9l6.6-3.7l1.5,1.6l1.5-4
		l1.2,0.4l1.1,1.4l-0.3,1.4l1,1.4l2.9,1.7l1.4,1.1l1.4-0.8l-0.3-1.1l-1.2-1.5l-0.8-1.5l-0.4-2.5l-1.4-3l0.4-1.4l2.2-1.6l2.1-0.4
		l1.5,0.8l0.6,2.4h0.9l0.3-2.1l4-1.4l0.5,1.5l-1,1.2l0.1,2.4l0.8,1.1l-1.9,7l1.1,2.6l1,1.8l1.2,0.8l1-0.3l0.5-1.1l-1.1-1.8l-0.5-1.4
		l-1.1-1.8v-0.8l0.8-1.1v-1l1.1-1.2l1.4,0.4l1.9-1.1l0.7,0.9l3.4,0.9l0.1,1.1l1.1,1.2l1-0.3l0.6-1.6l2-0.4l1.1-1l1.1-1.4l0.9,2
		l0.8,1.1l0.1,1.8l0.4,1.6l1.4,0.3l1.1-0.9l2.2-3.9l0.4-0.4l0.3,3l-0.4,1.9l1.1,0.6l0.5-0.4l1.1-2l0.1-1.7l1.9,0.2l1.6,1.1l1,0.4
		l0.5-1.2l-0.1-0.5l-0.9-1v-1l1.8-1.5l1.5-0.1l1.4,0.5l2.4-0.8l3-1.7l5.2,1.2l-1,5.6v5.2l1,0.5h1.6l1.6-0.8l5.4,0.4l2.1,0.4
		l-2.2,3.4l-0.9,0.3l-0.9,1.6l-1.1,1.4l-1.4-1.1l-0.8,0.8l0.4,2.1l-0.9,1.1l0.6,1.9l0.9,1l0.9-0.9l1.1,0.4l-0.8,1.1l-1.8,1.2
		l-0.9,2.2l0.1,3.4l-0.8,1.1l-2.1,1.3l-0.1,2.1l1.3,3l1.4,0.6l-0.4,2.9l-0.4,1.2l-1.1,1.6v2.1l0.3,1.5l1.2,0.6l0.9-0.1l0.9-1.2
		l-0.4-1.2l-0.6-1l0.6-1.4l0.8-0.2l0.9-1.4l1.5,0.5l-0.1,3.3l1.1,1.8h3.3l0.5-1.5l3.9-3.3l-0.4-1.4l1.1-0.2l1.4,1.9l1.2,3.4l0.5,3.1
		l-1.6,1.6l-0.4-0.1l-1.2-1.2l-2.1-0.1L285,469l1.1,2.1l-1.2,2.2l-2.4,1.2l-0.9,1.6l-1,3.2l2.4,1.4l0.9,1.1l-1,4.2l-1.2,2.8l-1.1,1
		l-3-0.9l-1.2-0.1l-0.8,4.2l0.6,2.9l-0.4,1.4l-0.8,0.3l-4.6-0.9l-1.6-0.1l-0.8,1.8l0.4,1.9l-2.5,3.3l-1.1,0.8l-0.3,2.1l-1.4-0.6
		l-0.3,2l-1.1,1.2l0.1,1.1l1,0.4l1.5-0.5l1.2,0.3l5.2-1.9l0.4,1.4l0.6,0.6l0.3,0.6l-0.5,0.2l-0.4,0.9l0.9,1.6l3.5-0.5v-1.5l-0.6-1.5
		l0.9-0.4l0.4,1l0.9,0.1v2.2l1.6,4.2l1.3-0.8l-0.5-2.4l-0.9-1.1l0.1-0.9l1.6,0.9l0.9,2.5l0.5,0.9l0.1,1.4l-1.6,2l-0.1,0.8l2.2,2.6
		l0.9-0.9h0.8v2l-1,4.2l3.2,1.9l-0.8,2.1l0.9,2.5l-0.4,1.1l-2.8-1.6l-2-0.3l-1.5-1.2l-1.9-1.1l-2.6-2.6l-1.6,2l-3.9,3l-2,0.6
		L267,536l-0.3,1.4l-2.9,0.1l-1.6,0.5l-4.4-2.4l-3.1,1.6l-1.7,0.3l-2.8-0.3l-2.2-0.6l-2.2,0.8l-0.5,5.1l0.1,9.4l-2.2,1.3l-2.6,1
		l-1.2,1.1l-0.4-3.1l-1.1-1.8l-0.8,1.9l-1,3.9l-1.1,0.6l-0.9-0.6l-0.7-1.6l-0.1-2.2l-1.6-1l-0.6,1.2l-1-1.6l0.1-2.2l1.6-0.5l1.5-1.4
		l1-0.5h0.6l0.5-1.6l-0.5-1.6l-3-0.6l-2.1-0.1l-8.2,0.5l-1.7-0.1l-3.3-1l-1.1,3.1l-3.7,0.1l0.1,2.6l-0.4,1l0.5,1.3l-0.6,1.1l-2-0.5
		l-2.6-1.6l-2.2-1.8l-0.9-0.2l0.4-1.6l-1.5-1.4l-1.9,1.1L195,543h-2.6l-5-2.2l-1.8-0.9l-0.3,2l-1.4,1.2l-1.3-0.4l-2.2-2.1l0.5-1.1
		l1.5-1.5v-0.5l-1.5-0.1l0.6-7.5l0.8-5.1l-2.4-0.3l0.9-7.9h1.1l1.3-17.4l0.2-2.7h0.4l0.5-1.9v-0.5l-0.6-0.4h-0.9l-0.4,0.4L182,494
		l0.1-0.5l-0.4-0.1l-1.9,0.1l-0.9-1.1l1-1l1.5-0.1l0.9,0.2l1.6-0.2l2.6-1.1l0.6-0.6l-1.6-2.7v-1.3l2.6-2l1.6-0.1V482l-0.5-1.1
		l-3.5,0.1l-1.5-8l1.2-1.2l-1.8-3.3l-0.9,1.1l-8.6,1.5l-2-3L172.3,459.4"/>
	<path id="path3155" inkscape:connector-curvature="0" class="st0" d="M241.8,418.1l1.1-2.1l3.9,0.6l1.2-1.8l-0.9-1.2l-3.6-2.6
		l-1.6-2l1-2l2.2-1.8l1.1-1.9l-1.3-2.7l-0.9-3.9l1.5-0.9l1.6,0.5l1.8-0.1l1.4-0.9l3.2,0.5l1.1-1.2l0.1-1.9l1.1-0.6l0.4-1.9l-0.5-4.7
		l1.1-1.6l-0.5-1l-2.2-0.1l-1.4,0.9l-0.6,2.1l-1.6-1.1l-1.5,0.9l-2.6-0.4v1.2l-0.9,0.4l-2.9-1l-0.4-1.5l1.3-1.2l0.6-1.6l1.1-2v-1.5
		l-0.2-0.1l-1.1,1.9l-0.9-0.6l-1.2-4.2l2-0.9l-0.1-1.9l0.6-0.8l1-0.3l4.5,0.1l1.8-0.5l-0.1-2l0.6-0.1l1.3,2.4l0.9,0.1l0.4-0.3
		l-0.9-1.5l-0.5-2.1l-1.1-1l-1-1.1l-1.5-2.6l-0.1-2.1l-0.8-1.4l-1-2.5l0.6-1.5l2.4-1.6l2.6,0.2l4-1l3.8-3.3l0.8-1.2l-2-2.2l2.1-1v-1
		l0.8-0.5l2.6,1.4l4,0.1l2.4,0.8l2.1-1.1l-0.9-2.1l1.4-1.1l1.4-0.6l0.8,0.1l1-1.4l1.4-0.9l1.2-1.4l0.4-1.6h1.4l0.5-4l1-3l1-0.8
		l1,0.1l-0.5-1.9l1.9-0.9l1.1,3.6l3.5,5.9l2.4-1.1l-0.6-2l1.6-0.8l1.2,2.1l2-0.3l3,0.4l2.2,0.5l3.7,0.5l1.4-2.1l-1.5-2.2l-1.1-2.4
		l-1.1-5.1l-1.9-1.4l-2.4-0.9l-2.7,0.6l-1.8-0.3l-2.9-0.9l-2.6-1.2l-1.4-2.1l0.1-1.8l1.5,0.9l0.4-2.2l-0.8-2.5l3.1,0.9l2.2-0.8l2-2
		l0.5-3.6l-0.8-1.2l-1.1-0.5h-0.5l-1-2l3.5-0.5l4.5-2.7l3-1.3l0.6,2.6l-1,1.4l3-0.8l2.2,0.1l1.1-1.1l1.1,1.6l0.6-1.6l1.6,0.6
		l-0.5-2.4l1.5-2.2l-0.5-2.1l-0.3-2.6l1.9-0.9l-0.1-1l-0.4-0.4l-1.6-0.1l0.6-1.3l0.8-3.4v-3.9l-1.6-3.3l1.4-1.1l0.1-1l1.2-0.1
		l0.8,1.1l3-1.7l-0.1-2.5l-1.3-1.9l0.3-0.6l1.6,0.9l0.5-2l3.1-1l0.4,0.5l-0.8,1.5l0.3,1l2.6-1l1,1.1l3.5-3l4.7-2.2l3.3-0.9l4.9-6.5
		l0.6-1.6l-0.5-3l-4.6-3.1l3-4l1.2-2l5.9,3l3.9-2l6.3-2.7l3.9,2.5l-6.2,7.1l4.1,3.1l2,1.6l1.6,2.4l-0.5,1.1l-2.5,0.1l-1.1,0.9
		l0.5,1.6l-0.3,1.9l0.8,2l0.6,0.3l2.6,0.1l-3,5.7l-2.2-2.1l-1.6-1.1l-1.5-0.4l-2,2.4l-1,1.9l-0.8,3l-1.5,4.1l-1.6,2l-1.4-0.6
		l-0.2-1.1l-0.5,0.5l-1.1-0.1l-1.4-1l-2.2-1l-0.6,1.8v1.4L343,282l-0.5,3.1l0.8,1l-0.4,2.4l-0.9,1.8l-0.3,1.9l-1.1,2l6.3,5.9
		l1.1,1.5l-1.6,1l-2.2-0.1l-1,0.5v1.1l2.9,1.4l-0.3,2l-2.9,3l-3,4.9l-1,3.3l-0.1,4l1.5,7.1l2.5,5.5l2,2.9l3.8,7.1l1-0.9l0.3-1.9
		l4.5-2.1l1.6,0.6l1.1,1.4l2.6-0.1l0.3,1.2l-0.1,2.5l-1.1,0.3v6.1l0.3,2.1l-1.2,1.5l0.6,1.6l0.4,2l-0.1,1.9l-0.6,1.9l0.3,2l-0.4,1.5
		l1.8,1.4l1.2,0.4v1.6l-1.1,0.6l-1,1.5l-0.2,4.5l-1.8,4.1l-1.8-0.1l-0.6,1.6l1.2,0.6l-1.5,1.4l-1.5,1l-2,4l2,1.5l2.9,7.4l0.2,0.9
		l-1.7,1.4l0.4,2.2l-1.6,0.8l-0.2,0.4l0.4,0.8l0.2,3l-1.6,1.1l-1.2,0.4l-0.5,0.5l-0.6,2.7l-0.4,0.5l-0.5,0.2h-1.2l-0.4,0.3l-0.4,2
		l-1.1,0.4l-0.8,0.5l-0.4,0.6v0.8l-0.8,0.9l0.5,0.6l1-0.6l1.4,2l1,1.9l0.8,0.1l-1.7,1.6l-1.1,0.5l-3.6-4.4h-1.8l-0.8,2.4l-0.5,0.9
		l-0.9-2l-1.5,0.6l-1,1.9l-1.1,0.4h-1.6l-1.9,1.6l-1.8,2.5l-6.5,1.4l-4.3-0.8l-0.2-3.1l-1.3-0.6l-1.2,0.9l-3.5-1.9l-1,0.5l-4.6-0.3
		l-4.6,0.1l0.8,1.6l-3.1,1.6l-3.5-0.6l-2.8,1l-1.2-0.1l-1.8,0.8l-7.9-0.9l-4.2-0.6l-3.3-0.1l-1.6,0.8H271l-1-0.5v-5.2l1-5.6
		l-5.2-1.2l-3,1.7l-2.4,0.8l-1.4-0.5l-1.5,0.1l-1.8,1.5v1l0.9,1l0.1,0.5l-0.5,1.2l-1-0.4l-1.6-1.1l-1.9-0.2l-0.1,1.7l-1.1,2
		l-0.5,0.4l-1.1-0.6l0.4-1.9l-0.3-3l-0.4,0.4l-2.2,3.9l-1.1,0.9l-1.4-0.3l-0.4-1.6l-0.1-1.8l-0.8-1.1L241.8,418.1"/>
	<path id="path3157" inkscape:connector-curvature="0" class="st0" d="M104.1,208.6l0.8-2.2l1.7,0.1l-0.6-1l1.1-0.1l-0.1-1.2l2-1.2
		l1.1,0.5l1.2,2l1.6,0.3l1-0.9l-2.5-2.8l1.5-0.7l-2.7-1.6l0.6-1.2l-1.4-0.9l0.5-0.8l-1.1-1.1l2.1-1.1l-1.5-0.9l-0.3-2.1l1.4-2
		l-0.1-4.1l1.1-3.3l2.5-2.4l1.6,0.8l2.6,0.6l2.4-2.4l1.2-2.1l1.3-1.3L121,171l0.2-0.1l0.4,0.1l2-1l0.5,0.8l0.6-0.5l1.5-0.1l0.6,0.4
		l0.8-0.2l0.1-0.4l0.7-0.1l0.4-0.4l4.2-2.1l1,1.9l1,0.1l0.5-0.5h0.7l0.1,0.2l0.8-0.2l0.4,0.1l0.1-0.1l0.9,0.6l0.1,0.3l0.5,0.1
		l0.6-0.6h0.6l0.1-1.3h-0.8l-0.1,0.3l-0.6-0.1l0.3-0.6l-0.1-0.3l0.1-0.1l-0.4-0.3l0.4-0.5l1.9-0.4l0.4,0.1l2-0.5l0.3-0.1l0.5-0.6
		l2.1-4.4l0.8-0.6l-0.1-0.5l-2.1-0.9l-1-0.1l0.1-0.8l1-1.1l0.9,0.1l0.1-0.4h-0.3l-0.3-0.8l0.3-0.3l-0.5-0.2l-0.1-0.8l0.1-0.3
		l0.6-0.3h0.7l0.8,0.9l0.1-0.6l-0.6-0.3l-0.3-0.4l0.3-0.9l0.4-0.3l-0.6-0.6l0.1-0.4l0.4-0.4l0.8-0.3l0.4,0.3l1.1-1.5v-0.4l0.5-0.4
		v-0.6l-0.3-0.3l0.1-0.6l0.4-0.3l-0.9-0.4l-0.5,0.4l-0.5-0.3l-0.3-1.1l0.6-0.4l0.4-0.5l0.4-0.3l0.8-1l0.6,0.7h1.8l2.7-0.4l0.9,0.9
		l1.9,0.6l1.4-1l-1.6-1.1v-1.2h0.8l3.7,1.7l0.3,4l1.1,0.1l0.5-2l0.5-0.9l0.1-1.1l-0.3-1.9l-2.5-3.4l-2.6-0.8l0.1-1.4l1.2-0.9v-1.3
		l0.9-0.1l1.1,0.3l1.3-0.7l2,2.2l2.4,0.2l5.4-8.1l3,1.5l3.1,2.1l4.5,1.3l4.8-0.5l3.6-1.2l3.4-2l2.6,0.2l1.1,1l0.9,2.6l-0.8,4.6
		l1.7,1l1.8-0.3l0.1-1.5l0.6-1.4l4,1.2l2.9-0.3l2.8-1.1l3.7-2.6l-0.3-1.9l2.1,0.5l1.4-0.5l6.4,12.3l1.6-1.1l1.7,1.1l0.5-0.4l0.4-1.2
		l2.9-2l0.1,1.1l-0.3,1.1l1.2,0.1l1.1-1.5l1.9,0.8l4.3-2.4l5.9-3l-0.9,3.1l0.9,2l-1.1,2.1l0.5,0.5h1l2-1.8l0.1-0.7l-0.4-1.1h1.2
		l1.1-1.4l0.5-1.6l0.9-0.6l3-1l-0.3,1.1l-2.1,0.5l-1,1.1l1.1,0.6l2.1-0.6l0.4,0.8l-0.8,1l-2.4,1.2l-2.1,2.2l-0.9,2.5l0.5,2l-0.9,1
		l-1.4-0.4l-0.6,1.1l0.8,1.2l2,1.5l1-0.5l4.8-0.3l1.2-0.5l0.8-1.5l-0.6-0.3l0.3-1.2l1-0.3l1.4-1.1l1.3,0.1v0.9l-1.3,1.5l-0.4,1.2
		l0.1,1.8l1,0.9l1.8-0.2l0.3,0.8l-3.4,1.1l0.2,2.4l-0.2,0.1l-2.4-1.2l-4.9,2.4l-0.1,2.1l-2.6,0.3l-0.5-1.6h-1.4l0.1,3.5l-3.6,0.4
		l1,1.9l2.8,0.2l1.7-1.5l2.4,0.4l2-1.9l2.4,2.4l1.6-1.5v-1l0.8-0.1l0.8,0.8l0.2,2.9h1.1l0.1,1.4l-2,0.9l1.8,4.8l4.4,1.4l1.6-0.9
		l0.5-1.4l1.1-0.1l-0.1-2.7l1.1-0.4l0.8,1l-0.4,2.1l1.1,1.3l-0.5,0.9l-2-0.1l-0.9,0.2l-0.6,1l-0.2,1.4l1.2,1.6l3.6,2.9l0.9,3.2
		l0.9,2.4l-0.5,1.6l-0.1,1.4l-1.4,1.5l-4.6,0.7l-2.8-0.4l-3.6-4.4l-1.6-1.8l-1.7-0.1l-5.8,4.2l-1.1,1.1l-0.2,2.8l-1.4-0.8l0.3-2.6
		l-4.8-0.7l-0.4,1.9l-2,0.7l-0.9,1.9l-1.7-0.3l-1,4l0.6,2.2l0.1,2.1l-1,0.9l-0.2-1.8l-2.4-1.2l-2.7-0.3l-1.9-1.1l-1.8-2.5l0.6-2
		l-1.4-0.6l-0.9,0.5l-2-1.3l-0.9,0.4l-2,2.4l0.3,2.6l-0.7,1.4l-1.4,0.1l-3.4-0.5l-2,0.4l-1.6,1.1l-2.4,2.9l-2,2.9l-1.8,0.5l-1.2,0.9
		l-1.3,2.4l-1.1,0.9h-2.5l-0.6,1.4l0.3,1.9l-1.3,0.1l-1.7,0.7l-0.4-1.4l-2.1,0.6l-2.2,1.2l-4.5,1.1l-1.9,2l-2.7,0.1l-0.6,1.1
		l-0.9,0.5l-0.1-6l-0.9-1.5l-0.4-1.1l1.1-1.2v-2.4l-3,1.4l-2.2-2.1l-2.7-0.9h-1.6l-3.9,0.6l-2.5-0.7v-1.9l-3.6-9.5L162,196l3,10.3
		l-1.1,3.4l-1.1,2.5l1.4,0.1l0.9,1.1l-0.9,2.5l-4.8,1.6l1.4,2.5l0.7,0.3l2.4-0.6l1.9,1l-2,1.9l-2.6,0.1l-3.3,0.6l-0.8,1.1l1.4,1.4
		l0.1,1.9l-2.2,1.1l-1.2,1.9l0.1,1.5l1.2-1l-0.1,1.9l-1.6,1.8l1,0.1l2-2l1.2,0.9l-2.4,3.9l-3.3,0.8l-0.9-0.1l-1.3,0.5l1.4,1.4v1.5
		l3.7-0.1l1.1,2.7l-1.2,1.8l-10.4-0.3l-6-2.6l-9.5-0.8l-3.9,1.9l-0.5-2.6h1.1l0.9-2.2l-1.4-2.1l-0.6-3.4l-0.8-2.6l-1-2.6l-0.7-0.5
		l-1.4-2.5l-1.5-0.5l-0.3-4.2l-2.5-0.8l-2.6-2l-0.6-1l-2.8,0.1l0.5-2.7h-2l-1.7-1.4H108l-0.8-2.7l-2-1.3L104.1,208.6"/>
	<path id="path3159" inkscape:connector-curvature="0" class="st0" d="M142.5,244.2l3.4,1.5l10.4,0.3l1.2-1.8l-1.1-2.7l-3.7,0.1
		v-1.5l-1.4-1.4l1.3-0.5l0.9,0.1l3.3-0.8l2.4-3.9l-1.2-0.9l-2,2l-1-0.1l1.6-1.8l0.1-1.9l-1.2,1l-0.1-1.5l1.2-1.9l2.2-1.1l-0.1-1.9
		l-1.4-1.4l0.8-1.1l3.3-0.6l2.6-0.1l2-1.9l-1.9-1l-2.4,0.6l-0.7-0.3l-1.4-2.5l4.8-1.6l0.9-2.5l-0.9-1.1l-1.4-0.1l1.1-2.5l1.1-3.4
		l-3-10.3l2.1-1.7l3.6,9.5v1.9l2.5,0.7l3.9-0.6h1.6l2.7,0.9l2.2,2.1l3-1.4v2.4l-1.1,1.2l0.4,1.1l0.9,1.5l0.1,6l0.9-0.5l0.6-1.1
		l2.7-0.1l1.9-2l4.5-1.1l2.2-1.2l2.1-0.6l0.4,1.4l1.7-0.7l1.3-0.1l-0.3-1.9l0.6-1.4h2.5l1.1-0.9l1.3-2.4l1.2-0.9l1.8-0.5l2-2.9
		l2.4-2.9l1.6-1.1l2-0.4l3.4,0.5l1.4-0.1l0.7-1.4l-0.3-2.6l2-2.4l0.9-0.4l2,1.3l0.9-0.5l1.4,0.6l-0.6,2l1.8,2.5l1.9,1.1l2.7,0.3
		l2.4,1.2l0.2,1.8l1-0.9l-0.1-2.1l-0.6-2.2l1-4l1.7,0.3l0.9-1.9l2-0.7l0.4-1.9l4.8,0.7l-0.3,2.6l1.5,0.8l-0.3,3l-1.5,1.9l0.4,2.2
		l-0.4,2.1l-0.1,4.1l-1.2,0.1l-1.4-0.1l0.1,1.9l-3.4,1.1l-1.6-1.4h-2.4l-1-0.4l-1.8,0.9l-3.5-0.8l2,1.9l3.1,0.6l-0.1,0.8l-1.2,0.2
		l-2.2-0.1l-0.6,1.5l0.9,0.8l1.9-0.4h3.1l2.9,0.3l2.6,3.9l5.6,3l1.1,1.6l-1.8,1l-3,1.2l-0.4,1.9l1.1,1.8l0.4,1.6l0.5,7.6l4-1.5
		l-1.5-3.3l0.3-2.4l1.6,0.1l1.2,1.5l1,3.9l2.6,4.1l1.1,1.4l-0.6,2l0.4,0.9l-0.1,3.9l-2,1.4l-0.5,1.2l1.8,0.6l4.8-0.3l-0.6-1.9h0.9
		l3,4.2v2.2H266l-1.1-1.5l-2-0.6l-1.2,0.9l-0.5,1.1l0.8,2.6l-0.6,0.4l0.8,0.6l-1.8,1.4l2.5,2.2l1.1,2.8l-1.3,0.5l-0.8-0.8l-0.6,0.8
		l0.9,1.9l0.9-0.3l-0.5,1.5l-1,1l-0.5,0.9l0.1,2l1.1,0.2l0.1,1.4l0.9,0.8l2.1-1.9l0.8,1.4l-0.9,2.5l1,1.1l-0.1,2l2.5,3.2l0.1,2.1
		l0.6,0.4l0.3,2.7l0.9,0.5l0.8,2l-0.9,1.4l1.1,0.1l-0.3,1.2l-4.6,1.9v3.4l-0.3-0.4l-2.4,0.8l-1.5,0.1l-2-0.5l-2.5,1l-1.2-1.1
		l-0.9-4.2v-2.5l-0.6-2.2l-2-4.1l-1.4,3.1l-4.9,2.5l-1.1,1.8l0.1,1.4l-2.5,0.6l-0.6-1l-1.9-0.1l-1.3,1l-2.6-4.5l-0.5-0.5l-0.4-2.9
		l1.2-1.1l-0.2-4h-3.4l-3.4,1.1l-0.4-0.4l-0.4-2l-1.4,0.2l-2.2,3l0.9,0.9l-2.5,2.6l-2,1.9l-0.5,0.8l-0.3-2.4l0.1-1.5l1.1-1.2
		l-0.1-2.1l-0.4-1.6l0.1-0.3l-6.4-0.4H213l-5.2-1.1l-1.6-1.4l-3.5,3.2l-3.1-0.4l-0.6,1.3l-0.1,2h-2.9l-2.6-1.4l-1,1.4H191l-3.4,7.2
		l-7.1,0.1l-7.5-0.3l-1.5-1.9l-0.2-1l-0.9-1.1l1-0.4l1.6,1.4l1.9,0.6l3.7,0.4l2.4,0.8l1.1-0.1l-4-3.4l-0.8-0.4l-3.9,0.9l-1.1-0.5
		l-2.5-0.6l-1.2-1l0.2-0.8l1.6-0.3l-0.4-1.1l-2.2,0.6l-2.8,0.4l-1-0.8v-2l0.6-2.4l-0.9-2.5l-1.1-4.3l-1.6-2l-2.2-0.8v-3.6h-0.3
		l0.5-3.4l-0.9-0.5h-4.1l-4.8-1.9l0.3-3.3l-0.3-0.9l-4.1,2.2L142.5,244.2"/>
	<path id="path3161" inkscape:connector-curvature="0" class="st0" d="M144.1,371.4l1.6-0.3l1.4-1l0.9-1.4l0.9-0.8l0.9-0.1l0.9-0.9
		l-1.1-1.6l0.4-1.9l-0.9-1.4l0.3-1.1l-0.9-1.2h-1.6l-0.4-0.3l-0.7-1.2l0.1-1.1l-0.3-1.1l3-1.2v-1.3l1.6-1.2l0.3,0.5l1.2,0.9l1-1.6
		l2-1.1l5.4-2.1l1-1.6l1,1.9l0.8-0.5l1.1-0.4l0.1-0.9l1.3-0.3l1-1.2l1.1-1l-0.4-0.9l0.4-1.1l-0.4-1.6l-1.4-1.6l-0.6-2l3.9-2l2.4-2.1
		h-0.9l-0.6-1.4l5.7-2.4l1.9-1.9l1.5-1.3l1.1-1.9l1.1-2.7l-1.5-2.1l1.1-0.1l0.5-1.6l0.6-3.4l2.9-0.1l2.4,0.5l0.9-3l2.2-1.1l1.3-1.8
		l1.1-2.7l-0.4-4.4l0.5-3.9l-1.2-2.6l0.9-1.8l-0.5-2.4l-4.3-0.1l3.4-7.2h1.3l1-1.4l2.6,1.4h2.9l0.1-2l0.6-1.3l3.1,0.4l3.5-3.2
		l1.6,1.4l5.2,1.1l7.5,0.3l2.1,0.1l-0.1,0.3l0.4,1.6l0.1,2.1l-1.1,1.2l-0.1,1.5l0.3,2.4l0.5-0.8l2-1.9l2.5-2.6l-0.9-0.9l2.2-3
		l1.4-0.2l0.4,2l0.4,0.4l3.4-1.1h3.4l0.2,4l-1.2,1.1l0.4,2.9l0.5,0.5l2.6,4.5l1.3-1l1.9,0.1l0.6,1l2.5-0.6l-0.1-1.4l1.1-1.8l4.9-2.5
		l1.4-3.1l2,4.1l0.6,2.2v2.5l0.9,4.2l1.2,1.1l2.5-1l2,0.5l1.5-0.1l2.4-0.8l0.4,0.5l2.6,1.9h1.3l0.1-1.4h2l1.1,1.8l1.4-0.3l1.2,0.9
		l1,0.4l0.1-2.1l1.3-0.6l0.6,2.5l0.9,1.1l4.2,0.6v1.9h0.8l0.8,0.4l0.4,2.4l1.6,0.1l2.1,1.9l0.8,2.5l-0.4,2.2l-1.5-0.9l-0.1,1.8
		l1.4,2.1l2.6,1.2l2.9,0.9l1.8,0.3l2.7-0.6l2.4,0.9l1.9,1.4l1.1,5.1l1.1,2.4l1.5,2.2l-1.4,2.1l-3.7-0.5l-2.2-0.5l-3-0.4l-2,0.3
		l-1.2-2.1l-1.6,0.8l0.6,2l-2.4,1.1l-3.5-5.9l-1.1-3.6l-1.9,0.9l0.5,1.9l-1-0.1l-1,0.8l-1,3l-0.5,4h-1.4l-0.4,1.6l-1.2,1.4l-1.4,0.9
		l-1,1.4l-0.8-0.1l-1.4,0.6l-1.4,1.1l0.9,2.1l-2.1,1.1l-2.4-0.8l-4-0.1l-2.6-1.4l-0.8,0.5v1l-2.1,1l2,2.2l-0.8,1.2l-3.8,3.3l-4,1
		l-2.6-0.2l-2.4,1.6l-0.6,1.5l1,2.5l0.8,1.4l0.1,2.1l1.5,2.6l1,1.1l1.1,1l0.5,2.1l0.9,1.5l-0.4,0.3l-0.9-0.1l-1.3-2.4l-0.6,0.1
		l0.1,2l-1.8,0.5l-4.5-0.1l-1,0.3l-0.6,0.8l0.1,1.9l-2,0.9l1.2,4.2l0.9,0.6l1.1-1.9l0.2,0.1v1.5l-1.1,2l-0.6,1.6l-1.3,1.2l0.4,1.5
		l2.9,1l0.9-0.4v-1.2l2.6,0.4l1.5-0.9l1.6,1.1l0.6-2.1l1.4-0.9l2.2,0.1l0.5,1l-1.1,1.6l0.5,4.7l-0.4,1.9l-1.1,0.6l-0.1,1.9l-1.1,1.2
		l-3.2-0.5l-1.4,0.9l-1.8,0.1l-1.6-0.5l-1.5,0.9l0.9,3.9l1.3,2.7l-1.1,1.9l-2.2,1.8l-1,2l1.6,2l3.6,2.6l0.9,1.2l-1.2,1.8l-3.9-0.6
		l-1.1,2.1l-1.1,1.4l-1.1,1l-2,0.4l-0.6,1.6l-1,0.3l-1.1-1.2l-0.1-1.1l-3.4-0.9l-0.7-0.9l-1.9,1.1l-1.4-0.4l-1.1,1.2v1l-0.8,1.1v0.8
		l1.1,1.8l0.5,1.4l1.1,1.8l-0.5,1.1l-1,0.3l-1.2-0.8l-1-1.8l-1.1-2.6l1.9-7l-0.8-1.1l-0.1-2.4l1-1.2l-0.5-1.5l-4,1.4l-0.3,2.1h-0.9
		l-0.6-2.4l-1.5-0.8l-2.1,0.4l-2.2,1.6l-0.4,1.4l1.4,3l0.4,2.5l0.8,1.5l1.2,1.5l0.3,1.1l-1.4,0.8l-2.9-2.1l-1.4-0.8l-1-1.4l0.3-1.4
		l-1.1-1.4l-1.2-0.4l-1.5,4l-1.5-1.6l-6.6,3.7l-1.1-2.9l-3.1-1h-6.6l-6,2.2l0.4,1.2l-2.9,0.8l0.5-6.5l-14.5-1l-2.1-1.2l-1.9-0.3
		l-0.4-0.6v-1.9l-3.4-3.8l-0.5,1.3l-0.4,0.2l-0.7-0.1l-0.6-1.9l-1,0.5l-0.1-0.4l0.6-1.9l-0.6-0.9l-0.1-2.2l-4.1,0.3l-1.8-1.6
		l0.4-1.2v-0.9l-0.8-0.6l-0.5-1h-0.3l-0.5-3l0.1-1.6l0.9-2.1l-1,0.8l-1.8-0.2l0.6-0.1l0.3-1.4l0.5-1.1l2.1-0.9l-0.3,1.1l0.1,0.5
		l2.4-1.4l0.8-0.8l2.7,0.9l0.8-0.9l0.3-5.7l-2.2-0.5l-2.2-5.2l-1.9-1.1l-0.3,1l-1.2-0.8l0.5-0.8l-0.4-0.9h-1.9L144.1,371.4"/>
	<path id="path3163" inkscape:connector-curvature="0" class="st0" d="M105.8,353.6l3.4-1.3l1.6,2.1l3.4,3.3l1.3,0.4l-0.4,1.1
		l0.6,1.2h1l0.5-1l1-1l0.9-2.4l2.2-2.6l1.4,1.3l0.5-1.1l3.4-0.6l-0.7-3.4l2.1,0.1l1.8-0.4l-0.1-2l0.4-1.8l2.4-1.4l1.4,1.1l0.9-0.1
		l-0.1-0.6l0.8-1.3l-1.5-5l-2.5-1.8l-2.6-0.4l-1.9-1.2l0.4-1.2l1.6,0.6h2.2l1.6,0.8v-2l2.1-2l-2.1-1.1l-2.1-2.4l-0.8-3.9l-1.1-1
		l-1.1-1.2L126,322l-0.5-0.4l0.7-0.9l-0.6-0.5l-0.4-2l0.8-1.7l-1.9-0.3l-1.4-1.5l-0.2-2l3.5-0.4l1.1,0.5l3,0.3l0.8-1.1l0.7-2
		l2.1-1.2l2-0.1l1.1-1.5l-0.1-2.5l-1.5-2.2l-0.1-3l0.4-2.2l-0.1-2.5l1.5-0.8l0.5-1.5l0.5,1.1l1.9-0.1l0.8,9l0.6,0.3l2.6-1.6l2.1,0.5
		l1.1-0.8l-0.1-1.8l0.2-1.1l1-0.1l-0.4-4l0.1-3.1l1.8-4.3l-1.8-3.1l0.4-15.6l8.8,0.5V265l1.9,0.4v3.6l2.2,0.8l1.6,2l1.1,4.3l0.9,2.5
		l-0.6,2.4v2l1,0.8l2.8-0.4l2.2-0.6l0.4,1.1l-1.6,0.3l-0.2,0.8l1.2,1l2.5,0.6l1.1,0.5l3.9-0.9l0.8,0.4l4,3.4l-1.1,0.1l-2.4-0.8
		l-3.7-0.4l-1.9-0.6l-1.6-1.4l-1,0.4l0.9,1.1l0.2,1l1.5,1.9l9.9,0.3l4.7-0.1l4.3,0.1l0.5,2.4l-0.9,1.8l1.2,2.6l-0.5,3.9l0.4,4.4
		l-1.1,2.7l-1.3,1.8L188,312l-0.9,3l-2.4-0.5l-2.9,0.1l-0.6,3.4l-0.5,1.6l-1.1,0.1l1.5,2.1l-1.1,2.7l-1.1,1.9l-1.5,1.3l-1.9,1.9
		l-5.7,2.4l0.6,1.4h0.9l-2.4,2.1l-3.9,2l0.6,2l1.4,1.6l0.4,1.6l-0.4,1.1l0.4,0.9l-1.1,1l-1,1.2l-1.3,0.3l-0.1,0.9l-1.1,0.4L162,349
		l-1-1.9l-1,1.6l-5.4,2.1l-2,1.1l-1,1.6l-1.2-0.9l-0.3-0.5l-1.6,1.2v1.3l-3,1.2l0.3,1.1l-0.1,1.1l0.7,1.2l0.4,0.3h1.6l0.9,1.2
		l-0.3,1.1l0.9,1.4l-0.4,1.9l1.1,1.6l-0.9,0.9l-0.9,0.1l-0.9,0.8l-0.9,1.4l-1.4,1l-1.6,0.3l1,3.3h1.9l0.4,0.9l-0.5,0.8l1.2,0.8
		l0.3-1l1.9,1.1l2.2,5.2l2.2,0.5l-0.3,5.7l-0.8,0.9l-2.7-0.9l-0.8,0.8l-2.4,1.4l-0.1-0.5l0.3-1.1l-2.1,0.9l-0.5,1.1l-0.3,1.4
		l-0.6,0.1l1.8,0.2l1-0.8l-0.9,2.1l-0.1,1.6l0.5,3l-1.5,0.5l-2.2,1.4l-0.6-0.2l-0.1-1.4l-0.8-1l-0.7-0.2v-0.8L140,397v-1.9l0.5-0.1
		l0.1,0.1l0.7-0.5l1.5,0.3l0.4-0.6l-0.6-0.6l-0.5,0.3V393l0.5-0.9v-0.6l0.5-1.5l0.2-2l-1.7-1.9l-0.4,0.8l-0.9,0.6l-0.6,1.2l-1.4,1
		l-0.3-0.4l-1.1-0.1l-1.1,0.5l-1-0.1l-1.3,0.5l-0.6,1l-1,0.4l-0.3,1.7l-0.9-0.5l-2-2.6l-3.5,1.4l-1.5-1.3l-0.9-2.9l-0.6,0.2l1.1-2.6
		l-1.7,0.5v0.5h-2l-1.7,5l-3.7-4l1.1-0.6l-4.6-5.2l-1.6-2.2l-0.5,0.9l-2.1-2l0.5-0.4l0.5,0.5l1.9-2.6l-0.9-1.5l-0.4-1.5v-0.9
		l0.5-0.8l0.1-0.5l-0.5-0.1l-0.9,0.8h-0.6l-0.4-0.8l0.1-10.6L105.8,353.6"/>
</g>
<g id="layer4" inkscape:groupmode="layer" inkscape:label="Border" sodipodi:insensitive="true">
</g>
<g id="layer1" inkscape:groupmode="layer" inkscape:label="Water Vmap0" sodipodi:insensitive="true">
	<path id="path3085" inkscape:connector-curvature="0" class="st2" d="M489,0l1.9,4.4l4.1,8.9l0.6,1.9l-0.4,1.8l-1,1.9l-2.5,2.2
		l-2,2.9l-5.1,5.9l-1.8,2.6l-1.1,3.5l-1.5,11.2l-0.9,3.5l-0.5,3l0.9,0.2l0.4-0.4h0.8l0.1,1.6l-0.4,3.9l-0.9,3.5v3.6l1.2,5.5l0.5,3.5
		l-0.4,1.8l-1,1.5h-1.2l-1.9-1.9l-0.9-0.6l-1.8,0.9l-1.8,0.1l-0.9-1l-0.8-1.5l-0.5-0.6l-1.2,0.9l-0.9-0.2l-1-1.6l-0.8-0.2l-1,0.2
		l-1.9,1.2l-1.6,0.8l-1.6,0.1l-3.2-0.2l-4.2-1.4l-6.2-0.6l-7.4,0.1l-6.2,2.9l-4.4,2.6l-2.5,2l-2.9,2l-1.5,2l-1,0.1l-0.4,0.5
		l-0.4,2.5l-1.1,1.5l-0.5,1.1l0.1,1.4l-0.8,1.6l0.2,3.5l-0.6,2.6l-0.2,2.8l-1,3.5v2l0.9,2.1l-0.9,3l-0.9,5.5v6.2l-1,2.2l-1,3.4v2.8
		l-0.4,2l-0.5,6.5l4.2,14.4l1.4,6.1l-0.8,1.8l-4.4,5l-2.2,2.2l-1.4,3l-0.8,3.4l-0.2,2.6l0.2,4.9l2,7.8l2.6,7.2l2,3.2l6,6.8l1.5,1
		l4.6,1l2.1,1.6l6.9,1.6l2.5,1l0.6,1l-0.2,1.5l-1,2.5l-0.5,2.4l0.5,0.9l3.1-6.1l0.8-3l0.9-0.9l1.4-0.5h1l1.6,0.6l1.2,1.4l1.1,1.8
		l5,9.2l1.9,2.8l1,3.1l2.9,3.9l1,1.8l3.9,3.5l7.8,5.9l4.2,2.8l1.2,1.8l0.8,2l-0.2,2.2l0.8,0.8l1-0.1l1.2-0.8l1.8,0.2l1.5,1.2l4,2.9
		l1.2,1.1l0.5,0.8l0.6,2.9l-0.1,3.4l0.9,2.1l4.1,7l2.8,4l3.2,6.1l0.4,2.6l-0.1,2l-1.2,3.5l-1,1.5l-1,0.6l-1.4-0.1l-0.9-1.1l-1.2-3.1
		l-1.5-2l-1.1-0.6l-0.8,0.1L492,292l0.4,0.9l1.5,1.2l-0.1,1.6l0.4,1.6l2,3.9l-0.2,1.5l-1.5,2.9l-1.5,1.5l-2.1,1.2l-5.1,1.5h-2.1
		l-1.1,1.1l0.6,1l2.2,0.4h1.5l0.6,1l-0.5,2.8l0.8,5.5l0.2,5.5l1,3l-0.5,0.6l-1-0.2l-0.6-0.6h-0.6l-0.5,1l1.5,3.1l-0.4,1l-1.6,1.8
		l0.1,0.5l1.2,0.9l0.1,1.1l-1.6,2.6l0.2,0.6l1,0.8l1.4,1.6l1.6,3.1l0.1,0.9l-0.8,2.1l0.1,0.6l1.6,2v1.5l-0.5,0.9l0.2,0.9l2,2.2
		l1.1,4.2l2.1,1.6l2,4.1l1.6,1.9l2.4,1.8l3.5,3.2l2.5,1.5l7.5,6l1.1,1.9l-0.1,1.2l0.4,2.6l-0.5,3.8l-0.4,1.5l-1.6-0.2l-1.2,1
		l-2.1,0.4l-4-0.8h-1.8l-0.8,0.8l0.6,1.5l-1.1,1.5v0.8l0.6,0.1l1.8-1l1.5-0.5l2.6,0.4l1.1,1l0.8-0.1l0.8-0.9h1.9l2,2.6l2,3.8
		l2.5,2.5l2.2,1.6l0.5,0.8l0.4,1.2l-0.5,1.1l-1.4,1l-0.5,0.9l0.2,0.8l0.6,0.5l1.1,0.1l1.1-0.9l1.9-2l1.4-1l3.8-0.2l6.6-1.9l6.2-1.1
		l2,0.1l2.4,2.6l0.8,1.5l0.2,1.8l-0.5,1.5l-1.9,1.2l-1.5,0.1l-0.9-1.8l-1.2,0.5l-0.6,1.8h-1.1l-0.5,0.8l0.8,3.2l-0.1,1.6l-1,1.5
		l0.1,0.8h1.6l2.6-1.5l1,0.1l1.8,2.8v1l-0.8,3l-2.2,3.4l-1.5,1l-2.5,0.9l-11,0.1l-3.6-0.5l-1-0.5h-2.4l-2.2,0.8l-2.9,2.2L516,439
		l-2.6,0.5l-3.5-0.2l-1.9-0.5l-2.9-0.1l-2.8,0.9l-2.9,0.1l-3.4,1.9l-1.8,0.2l-2.9-0.6l-3.2-2h-2.5l-0.4-0.5l-0.2-1.6l-2.5-2.1
		l-1.5-3.8l-1-1.2l-2.4-1.4l-0.9-1.6l-2.5-0.9l-1,0.1l-0.8,1.4h-1l-0.8-1.1h-1.6l-1.6-0.6h-1v1.4l0.8,2.4l1.8,0.4l1.1,0.8l3.4,0.4
		l3.8,2.1l2.1,2.8l2.6,5.2l1.5,1.8l2.6,1.4l3.1,0.2l4.6-0.1l1.9-0.8l4,0.1l2.4-1.2l1.5-0.5l2.5,0.4l3.8,0.2l9-2.5l4.2-1l1.9,0.4
		l2,1.1l2,0.2l2-0.6l1.2,0.4l3.4,2.4l1.6,0.4l2.8,0.1l1.6-0.2l3.2-1l2.1-1.4l1.6-1.4l2.9-4.5l0.9-2.4l0.1-1.2l-0.1-3.8l-1.6-2.9
		l-1-2.2l0.4-1.8l1.8-3.9l2.1-6.6l0.6-1.4l1.1-0.8l2.9,0.4l0.1-2.5l0.4-0.4l12.8-4.4l3.4-1.8l1.4,1.2l1.2,0.1l2.2-1.1l3.4-0.6
		l2.4,0.2l1.4,0.6l3-0.5l3.4,0.2l1.6-0.9l4.1,0.1l7.2-0.8l4.8-0.9h6.6l6.6,0.5l2.6-0.1l7.1-1.2h3.2l2.6-0.2l5.8-1.2l3.9-0.1l4.5,0.5
		l2.5,0.9l5.6,3h4.8l3.5,0.9l7.2,3.1l5.6,1.9l4.5,2.9l1.5,1.8l1.9,4.5l0.6,3.2l-0.2,3l0.5,2.7l-1.3,1.1l-1.2,4l-0.4,0.2l-0.2,4.5
		l0.6,1.5l2.4,1.4l0.4,1.4l-2,4.4l-4.2,4.4l-0.1,2l-1.2,2l-0.4,0.9l-2.4,1.4l-0.5,0.9l-0.4,0.9l-0.1,1l-0.4-0.1l-0.8,1.2l-1.4,1.6
		l0.4-0.5L679,457l-1.6-0.2l-0.5-0.6l-0.2-1.2l0.1-0.4l-3.1,0.2l-0.9-0.4l-1.2-1.2l-1-0.8l-4-2l-5.4-1.6l-5.9,2.1l-2.1-0.4l-2.2,0.8
		l-3.9,0.4l-1,0.4l-3,2.8l-0.1,0.4l1.4,0.1L641,455l-3.4,0.6l-2.5,0.8l-2.2,1.8l-2.4,0.8l-3,3l-1.8,1.4l-1.6,0.8l-1,0.9l-1,0.4h-1.4
		l-2.4,2.5l-6.4,2.9l-3,1l-3.6-0.1l-2.1,0.8l-1,0.8l-3.1,3.2l-2.6,0.8l-2.1-0.1l-2.2-1.4h-0.6l0.1-0.9l-3.8-1.2l-1.5-1l-9.6-12.6
		l-1.2-0.6l-2-0.1l-0.1,0.5L572,458l-1.2-0.5l-4.1-0.5l-1.6-0.8h-4.2l-9.1-1.8l-3.6-1.2l-5.6-2.4l-2.2-0.4l-4.4-0.4l-14.4-0.6
		l-5.6,0.2l-18.1,9.4l-8.6,4l-6.4,2.5l-5.8,0.5l-3.9,2.1l-2.5,0.1l-2.8,1.5l-4.9,1.1l-2.6,1.2l-5.4,3.1l-3.6,0.1l-2.8-0.9l-2.2-1.1
		l-5.8-3.5l-2-0.4l-2.6,0.1l-2.6,1.1l-1.9,1.9l-0.9,1.5l-0.2,1.4l0.4,1.9l-0.4,0.8l-1,0.4l-4.6-1.1l-1.2-0.6L422,475l-1,0.6
		l-0.6,1.2l-2.1,1.5l-2.9,0.8l-1.8,1.1l-0.4,0.8v0.4l1.5,0.1l0.9-0.8l1.6-1l2.6-0.9l3,0.2l2.9,1.6l1.2,2l0.2,1.6l-2.4,6.5l-0.8,0.5
		l-0.5-0.8v-1.8l0.4-2h-0.9l-0.9,1.1l-2,5.6l-0.4,2.1l0.1,1.2l3.2,8.1l2,3.9l1.4,1.9l3.5,8l1.1,6.2L431,526l-1.5,2l-2.4,2.1
		l-2.4,3.1l-2,3.8l-2.4,9.5l-1.2,2.5l-5.5,6.8l-2.5,4.4l-3.2,7.8l-2.1,7l-0.2,2.1l0.6,11.6l-0.9,4.6l-1.2,1.4l-2.8,1.1l-4.4,1
		l-2,1.4l-2.4,2.1l-3,5.2l-2.6,6.8l-2.4,8.2l-1.1,2.1l-6.2,5.6l-3.9,4.5l-2.2,3.6l-3.1,7l-0.6,2.4l0.6,3l0.5,1.2h17.5l0.2-0.6
		l1.1-0.9l2.4-0.2l2.1,1l2,0.2l0.9-0.8l-0.4-0.9L393,647l-3.2-1l-0.6-0.8l-0.1-1.4l1.2-5.8l-0.4-2.6l-0.8-2l0.2-1l0.8-0.6l2.6,0.2
		l0.9-0.5l0.2-0.9l-0.5-4.6l0.9-3.1l1.2-1.4l1,0.1l0.6,1.1l0.1,5.8l0.5,0.6l1.1,0.2l0.8-0.2l0.9-0.9l0.6-2.5l1-0.8l4.4,0.1l1.1,0.5
		l1.5,0.2l1.4-1l1-2.4l0.8-0.9l0.5-0.1l4,1l1.5-0.2l1.4-0.8l0.6-1.1v-0.9l-1.1-2.5l0.4-1l1.6,0.5l1.1-0.4l1.2-2.5l0.8-0.8l2.1-0.5
		l1.8-1.1l0.6-1l0.1-1.1l-1-2.5l0.6-1.4l1.1-0.5l2.5,1.4l1.6,0.1l0.4-0.8l-0.6-3.1l-1.1-0.9l-1-0.1l-1.5,0.2l-2.2,1.5l-2.4,4
		l-2.2,2.4l-1.8,2.5l-1.5,0.5l-1.4,1.1l-1.6,0.1l-0.6,0.6l-0.4,0.8l1.1,2.1l-0.4,2.4H416l-1.1-0.9L413,617l-0.5-1.1l-0.1-1.5l1-3.5
		l-1.4-8.4l-0.6-1.8l-1.6-1.1l-0.6-0.8l-0.1-0.8l0.6-1.2l5.4-3.6l0.2-0.8l-1.5-0.9v-0.8l1.8-7.2l1.1-1.5l1-0.2l3.4,0.6l1.8,0.6
		l1.1-0.4l1-2.8l1.5-2.1l1.8-1.6l3.6-3.8l2.1-2.6l2.4-4.2l1.6-4l0.5-3.8l1.6-3.1l5.2-6.2l1.9-3l0.6-1.8l0.1-2.5l-0.4-1l-1.9-3
		l-2.1-2.1l-0.8-1.6l0.4,0.6l1.1,0.4l0.5-1.1l0.6-4.4l0.9-1.5l1.5-1.8l6.1-2.4l1.9-2.2l-0.1-3.9L455,515v-5.2l0.4-8.6l1.6-7.1
		l3.4-2.9l3.9-2.2l4.6-0.9l8-3l3.2-0.2l4.4-1.8l3-0.6l1.4,1.6l2.2,2h0.4l3,2.1l8.2,7.2l1.5,0.6l5.2,0.4l0.9-0.4l-0.4-1.1l-1.5-1.9
		l0.1-0.1l0.6-0.5v-0.1l0.4-1l-0.4,1.1l0.5-0.4l0.5,0.1l0.4,0.9l4.6,0.1l1,1.9l3-1.9l7.2-2.1l2.8,0.1l3.8,4.2l1,0.2l2.2-1l2.9-0.1
		l2.9-1.5l3.2-1l5.6-0.4l1,0.9l0.1,0.5l-1.4,2.4l-2.4,2v1.1l0.6,0.6h1.6l0.6,0.5l2.2,0.9h1l2-1.1l1.8-2l2.6-1l3.1,0.4l4,1.4l0.8-0.1
		l0.5-0.5l-0.1-0.8l-0.6-0.9l-2.9-1.4l-0.6-0.9l-2.1-1.5l0.8-0.5l2.8-0.1l1.6-0.6l2-1.9l2.4-0.4l6.8-0.2l-0.5-0.6l-2.1-0.9v-0.4
		l1.5-0.8l3.1,2.1l1.2,2.9l1.1,2.4v1.2l-1,0.5l0.9,1l-0.1,0.5l-1.8,1.1l-0.5-1.2h-0.1l-0.1,0.4l0.4,0.9l-0.2,1.6l0.4,1.9l0.9,0.4
		l0.1,0.5l1.5-0.5l2.2,1.2l0.4-0.6l5.1-0.2l0.8,6.2l0.9,1.5l0.4-0.5h0.4l0.2-0.1l1.9,1.6v0.8l-1,1.2l-0.2,0.1l0.2,0.4l1.5,1.4l2.9,1
		l0.6,0.8l0.2,0.9l0.6,0.4l1.4-0.1l0.4,0.8l1.4-0.4l0.9,0.5l0.2-0.4l0.8,0.5l1.8-0.1l0.5,0.9l1.2-0.1l0.4,0.5l-0.2,1l0.1,0.2
		l1.5,0.6l2.8,1l1.6,0.6l0.5,0.1l0.6-0.2v-0.1l-0.1-0.9l0.6-1.1l-0.3-0.4l0.1-0.3l0.5-0.4l1.5-0.1l0.5-0.4l0.6-0.9l-1-2.1l0.2-0.5
		l0.8-0.4l3.2,0.4l0.5-0.4l1.1-3.8l1.2,0.5l0.4-1.8l1.1-0.8l0.1-0.1l0.5-2h-0.2l1.4-0.1h0.5l0.9,1l1.2-1l0.1-1l0.2-1.4h1.2l1-1
		l0.5-1v-0.4l-0.1,0.2l-1.8,1.8l1.9-2l-0.1-2.6V499l1.1-1l0.2-1.5l-0.1,1.4l0.2-0.1v-1.6l1.8-4.5l0.8-0.4l1.6,0.8h0.8l1.1-0.9
		l1.6-3.5l2.6-0.9l2.4-1.4h0.8l2.5-2.3l1.4-0.3l1.1-0.8l1.9-0.2l1.2-0.8l1.5-0.1l0.9,0.4l1.2,1.4l2.8,0.4l2.2,2.1l2.4,1.6l0.2,0.1
		l6.1,2l0.5-1l1.2-1.2l0.5-0.1l0.4-0.8l-1.8-0.1l2.4-4.1l3.6-1.8l0.1-3l-1.5-2.5l-0.2-0.5l-0.2-0.1l0.1-1V472l-0.8-0.4l-0.5,0.5
		l-0.2,0.1l-1.2,4.5l-1,0.8H668l-2.8-0.6l-3.8-1.4l-3.5-4.1l-0.9-2.5l-2.4-2.6l-3.1-1.8l-1.6,0.2l1.5-0.5l0.9-1.9l0.8-0.5h1l2.2,0.8
		l2.1,1.5l1.9,2.6l1.5,1.8l4.2,4.4l2,1.1l2.2,0.4l8.5-2.6l2.2-1.5l1-2.6l3.4-5.6l1.4-1.4l1.8-1l6.4-4.8l2.9-3.4l0.8-2.4l1.8-3.1
		l0.8-3l0.4-6.4l0.5-4.6l-0.6-11l-1.8-3.8l-3.4-6.5l-0.8-1l-0.1-1.5l-0.9-3.1l0.1-1l-5.1-2.1l-3.4-2l-2.2-0.8l-7-2.2l-2.1,0.6
		l-5-0.6l-3.1-0.8l-1.9-0.8l-4-4l-2.4-1l-3.8-0.6h-4.2l-8.9,2.9l-6-1l-1.9-0.8l-4.5-1.2l-2.8-0.2l-7.8,1.2l-6-0.1l-7.8,1.2l4.4,0.8
		l6.5-0.6l-0.1,1l-0.6,0.5l-6.4,0.9l-2.4-0.1l-1.1-0.4l-3.8-0.5l-3.1,0.6l-2.6-0.4l-5.4-2.2L590,388l-0.4-0.5l-1.6,0.1l-2.4,0.9
		h-1.4l-1.6-0.5h-1.4l-6,1.4l-1.1,0.6l-1,1.4h-0.9l-1.6-1.9l-1.1-0.8l-4.2-0.5l-5.5-3.4l-1.6-0.6l-2.9-0.6l-4.1-2.9l-0.1-0.2
		l-2.2-1.4l-1.9-0.5l-2.4,0.1l-2,0.4l-3.2,1.6l-3.1,0.4l-4.8-0.2l-2.8-0.8l-5.1-1.6l-2.2-1.1l-3.5-2.8l-1.9-1l-1.1-1.2l-1-4.1v-1.9
		l1.9-10.5l2-8.2l-0.1-2.6l0.5-1.5l1.5-2l0.4-2.1l-0.1-1.4l1.6-2.8l2.5-9.6l0.1-11.2l0.2-2.5l1.1-4.8l-0.2-5.5l-0.9-3.6l-0.5-6.8
		l0.4-0.8l1-0.5l3.9,0.1l1.4-0.4l1.1-1.2l0.5-1.9l-0.2-1.8l0.2-0.4h0.4l0.4,0.2l2,5.6l0.9,1l1.2,0.9l2.2,0.2l0.8-0.2l1.5-1.9
		l0.4-1.1l1-0.9l0.1-0.9l-1-3.6l0.9-2.4l-0.2-1.5l-1.8-1.2l-0.5-1.9V275l0.6-1.8l-0.5-2.4l0.5-2.2l1.1-1.8l2.4-2.6l0.5-1.1l-2-2.6
		v-1.2l1-1.9l0.9-0.5l1,0.1l1.4,1.4h1l1.4-1.5v-0.6l-1.4-0.4l-0.8-1l0.9-1l1.6-0.1l1.8,0.2l1,0.9l1,2.5l0.5,2.4l0.9,1.6l0.6,0.2
		l0.8-2.9l0.6-1.2l-0.2-1.4l-1.4-2.4l0.2-2.1l1-0.8l1.6,0.8l0.8-2l3.2-1.1l2.9-3.2l1.1-0.6l1.1,0.2l0.6,1.4l-0.5,0.9l-2.8,2.2
		l-0.6,1.1l0.4,1.2l1.5,1.2l1.8,0.4l1.4-0.2l1-1.8l0.8-2.4l0.1-1.2l0.9-1.6l-0.1-1.2l-2.1,0.2l-0.4-0.8l1.2-1.2l0.1-1.2l0.9,0.1
		l2,3.6l1-0.2l0.5-1.1v-1.5l-1.5-2l0.6-1.1l-0.2-3l0.9-1l1.5,0.2l1,2.1l1.4,0.6l1-3.6l1-0.9l4.5-0.6l1.2,0.1l0.1-0.6l-0.4-0.4
		l-3,0.1l-1.4-0.5l-0.8-0.9l0.2-1.9l-0.6-0.8l-0.4-0.8l0.4-0.8l5.5-4.8l1.6-1.1h2.4l0.4-0.2l0.5-1.9l0.1-1.6l-0.5-0.5l-1.1,0.2
		l-2,2.2l-3.9,2.4l-0.9,0.1l-0.4-2.1l0.6-1l1.4-0.1l0.4-0.8l-0.6-2.1l0.8-1.2l3.4-1.9l2-2.2l0.8-0.5l4-0.1l1.8-0.6l0.8,0.4l1.2-1
		l0.2-1l-1.2,1.1l-0.6-0.6l0.4-0.8l0.9-0.2l0.6,0.5l0.1-0.5l0.6,0.2l3.2-0.5l3-1.8l2.4-0.6l3.8,0.2l1.6-0.9l0.8-1l0.1-4l-1.1-1.8
		l-3.1-0.6l-1.6-1.2l-2-0.8l-2.9,1l-0.5-0.1l-0.5,0.1l-1.6,1.4l-1.2,1.5l-0.8,0.2l-0.5-0.6l-0.2,0.2l-0.1,1.1l-1.5-0.9l-1,0.2
		l-0.8,1.5l-2,3.1l-1.2,1.5l-1,0.2l-2.9-0.2l-1.6,0.1l-1-0.2l-0.4-0.8l-1.4-0.1l-0.2,1.4l-1.8,1.5l-1.2,0.4l-0.6-1L579,206l-3.9,1.2
		l-4.1,1.9l-1.2,2.2l-1.4,0.9l-0.2,1.1l-0.9,2.1l-3.1,2.2l-2.4,1l-4.2-0.1l-1.6,0.8l-0.5,1l0.2,2.4l-0.2,1.4l-0.6,1l-6.1,2.5
		l-7.5,6.2l-5.4,3.5l-2.6,2.9l-9.2,8.2l-1.5,2.1l-1,0.2l-1-1.1l0.1,3.6l-0.6,2l-0.8,1.4l-1.8,1.8l-2.2,1l-1.1,1.6l-1.6,4l-1,0.2
		l-1-0.5l-3.4-4.6l-1.9-1.2l-3.2-1.1h-3.2l-2.4-1.4l-1.1-0.9l-3-5.9l-5-6.4l-2.2-5l-0.9-4.6l0.1-1.5l1.4-2.2l1.5-4.9V223l-0.9-2.8
		l-1.5-1.9l-3.1-3l-5.2-3.4l-1.6-0.2l-2-1l-2.5-0.5l-1.6-0.8l-0.2-0.5l0.5-0.4l7-3.6l1.5-1.6l-0.5-1l-1,0.2l-1.8,1.2l-3.9,2.6h-2.2
		l-1.2,0.4l-1.5,1.2l-2.8-0.4l-2.9-1.1h-2.4l-1.8,1l-1-0.8l-1.6-3l-3.2-2.8l-2.8-3.1l-4.2-6.5l-4.4-5.5l-0.5-1.8l-0.6-6.8l-1.1-3.2
		l-6-6.5l-0.9-1.4l-0.1-3.5l-1.1-0.8l-3.1-0.6l-0.1-4.4l0.1-1.4l0.9-0.9l0.9-3.1l0.9-0.6l1.2-0.1l2.9,0.5l1.4-1.1l1.4-2.1l0.9-0.1
		l3-2.6l1-2.1l1.5-0.9l2.1-0.4l1.9-1.5l1-1.4l2.4-0.9l2.9-4.4l3.4-6.2l2.5-1.1l1.8,0.1l3.2,1.4l1.5-0.1l2.2-1.4h1.9l2.5-2.1l2.5-2.5
		l0.8-1.1l0.6-0.1l0.5,1.5h1.6l0.8,0.5l-1,0.9l-1.2,0.5l-3.4,2l1.6,0.4l1.9-1.8l3.4-0.1l1,0.8l1.2,0.2l1.4-2l1.6,0.4l1.4-1.4
		l0.9-0.1l1.6,0.8l0.5,0.6l-1,1.8l0.1,2l1-0.4l2.1-3.2l0.4-1.6l-2.5-4.6l-1-0.9l-2.2-0.4l-1.4,0.2l-0.2-0.6l1.5-2.4l1.2-1.4l1.6-0.4
		l1.6-0.9l3.1-2.5l2-3.8l0.8-0.9h0.9l0.8,0.5l0.6-0.2l-0.5-1.9l0.6-2.1l0.1-2.1l-2.4-7.6l-0.9-1.8l0.1-1.1l1.9-4.4l1.1-1.8l1.5-3
		l0.8-0.8l0.6,0.2l0.1,1.1l-1.6,4.1l2.2,1.1l0.5-0.9l1.5,0.6l1.2,0.9l0.4,0.6l-0.5,1l0.9,1.1l0.8-0.1l0.8-0.8l3-0.8l0.6,0.4
		l-0.1,1.1l-1,1.9l0.2,0.8l1.1,0.5l2.4-3l1.9,0.1l-0.9-1.1l0.4-0.5h1.6l2.2-1.9l1.1-0.1l1.9,0.9l1.4,0.2l1.5-0.6h1.9l0.8-1.4
		l1.2,0.1l0.5-0.6l-0.2-0.8h-0.2l-1.2-0.8l-1-0.4l-1.2,1l-2,1.1h-1.4l-1.6-1l-1.2-2.1l-1.4-1.1l-3.1,0.8l-3,1.4h-2.2l-1.6,1l-1-0.1
		l-0.1-0.8l0.9-2.1l0.2-2.4l-1.1-2.8l0.6-1.9l-0.4-0.6l-1,0.2l-1,1.6l-0.8,0.1l-1-0.8l-1.5,1.2l-0.1-1l1.1-2.4l1.4-1.9l2.6-2.5
		l1.5-2.6l1-5.2l1.2-2.8l1.1-0.9l1.2-0.6l3.1-2.6l1-1.8l-0.6-5.9l-0.1-7.2l1-2.2v-2.1l0.6-1l2.1,0.8l0.4,0.8l-0.6,1l-0.2,1l1.2,2.1
		l1.1,0.6l-0.4,1.8l3.1,3.6l-1.4-3.4l1.9-0.1l0.8-1.9l1.4-0.6l1.2-1.5l0.8,4v2.1l0.8,0.6l1,0.2l0.2-1.2l-0.1-0.6l0.8-0.2l1.4,1h0.2
		l0.4-1.5l-0.9-0.4l-0.2-0.8l0.9-1.2l-1-2.4l-1.6,2.4l-0.6-0.4v-1l1-3.5l0.1-1.8l-0.6,0.2l-1.9,1.4l-1.6,1.9l-0.6,0.1l-0.6-1.8
		l-1.1-1l-1.1-0.4l-0.8,1.1l-2.1-2.1l-2.8-1.6l-1.1,0.2l-3.2-0.1l-0.5,0.6l1.2,2.9l-0.5,0.8l-0.9-0.1l-0.6-2.1l-1.2-1.8l-2.5-5.4
		l-1.1-1.4l-2.8-4.5l-1.8-4.4l-0.8,1.4l-0.6-1l-0.2-3.1L499,6.1l0.5-2.2L499.2,0h-2.6l0.8,1.9l-0.2,1.2l-0.6-0.2l-1.2-2.4l-0.5-0.1
		L494,0H489z M494.9,93.4l0.1,2.8l-0.6,0.5l-0.5-1.2v-1.9L494.9,93.4z M488.5,95.1l0.4,0.1l0.2,0.4l-0.2,0.8l-0.6-0.2l-0.2-0.8
		L488.5,95.1z M486.6,95.9l0.6,0.8l-0.2,0.6l-0.4,0.2l-0.6-0.4v-1L486.6,95.9z M483.9,97l0.4,0.2l0.2,0.4l-0.1,0.6l-0.5,0.2h-0.5
		l-0.4-0.6l0.4-0.8L483.9,97z M483.9,99.2l0.2,0.6l-0.2,0.5l-0.4,0.4l-0.4-0.5l-0.1-0.8L483.9,99.2z M481,117.6h0.5l0.2,1.2
		l-0.2,1.4l-0.8,1.1l-0.9-0.5l0.1-1L481,117.6z M427.1,140.5l0.8,1.1l0.5,2.1l-0.6,0.6l-0.9-1.1l-0.1-2.4L427.1,140.5z M430.2,147.5
		l1.2,0.4l0.6,0.9v0.9l-0.6,0.5l-1-0.4l-0.6-0.8L430.2,147.5z M596.9,205.8l1,0.4l-0.1,1L597,207l-1,0.4l-1-0.2l-0.2-0.8l1.4-0.2
		L596.9,205.8z M592.8,206.8l1.4,0.1l0.8,0.9v0.9l-0.9,0.1l-1.2-1.1V206.8z M477.4,221.5l6.1,0.5l-0.1,1.4v2l-0.2,1l-0.2,0.4
		l-1.2-0.1l-1.4-1l-2.5-1.6l-1.8-1.5l0.4-0.8L477.4,221.5z M558.5,234.8l0.4,0.5l0.2,0.2l0.2,0.5l-0.4,0.2l-1.2,0.1l-0.5-0.6
		l0.1-0.5l0.5-0.4L558.5,234.8z M556.8,236.8l1,0.4l0.2,0.8l-0.6,0.9l-1.1,1l-0.9,0.2l-0.2-1.1l0.5-1.4L556.8,236.8z M553.6,240.8
		l0.6,0.2l0.6,0.4l-0.2,0.9l-0.2,0.4l-0.6-0.2l-0.4-0.6V241L553.6,240.8z M538.6,261.5l2.6,0.4l0.1,0.6l-0.9,1.6l-2.4,1l-2.2,1.2
		l-1.5,1l-1.4,0.4l-1.8,3.2l-0.9,0.5l-0.6-0.4l-0.4-0.9l0.5-1.4l1.5-2.4l1.6-1.1l2.8-1.2L538.6,261.5z M535.1,267.8l0.6,0.5v0.8
		l-0.2,0.4h-0.6l-0.6-0.4v-1L535.1,267.8z M533.5,274.9l1.1,0.5l0.1,0.5l0.8,1l-0.2,0.6l-1-0.2l-0.5-1.5L533.5,274.9z M524.1,275.5
		l0.2,1.1l-0.8,2l0.1,2.5l0.8,2.5v1.2l-0.5,0.5h-1.5l-0.6-0.6l-0.4-1.9l0.9-4l0.9-3.2L524.1,275.5z M534.2,278.2h0.9l0.2,1.2
		l-0.5,1.9l-0.9-0.1l-0.4-1.8L534.2,278.2z M517.8,295.1l0.6,1.2l-0.6,1.2l-0.4,0.4l-0.9,0.8l-0.6-0.9l1-2.1L517.8,295.1z
		 M558.5,385.5l0.6,0.4l-0.1,0.2l-0.2,1l-1.1,0.1l-0.4-0.9l0.6-0.6l0.4-0.1L558.5,385.5z M559.9,387.5l1,0.1l0.2,0.8l-0.1,1.1
		l-1.4,0.1L559.9,387.5z M562.4,387.6l0.5,0.2l0.9,0.8l-0.4,0.1l-0.1,0.1l-0.8-0.2l-0.6-0.8h0.1L562.4,387.6z M624.1,392.8l2,0.1
		h2.4l2.2,0.6l0.6,0.8l-0.8,0.8l-0.6,0.1h-3l-0.9-0.5l-1.4-0.2l-3.2,0.8l-0.5-0.8l0.4-0.8l0.8-0.4L624.1,392.8z M688.1,404.8h0.5
		l0.5,0.4l-0.2,1l-0.5,0.1l-0.6-0.4l-0.2-0.5L688.1,404.8z M694.4,408.1l0.5,0.8l0.1,1l0.5,1l0.8,1.4l-0.8,0.2l-1.5-1.6l-0.4-1.6
		l0.2-1L694.4,408.1z M697.4,414.6l0.5,0.1v0.8l-0.6,0.4l-0.8-0.2l0.2-0.8L697.4,414.6z M697.8,417.2l1.5,0.4l-0.8,1l-0.5,0.1
		l-1.1-0.2L697.8,417.2z M697,420.9h1l1,0.5l1,1.2l0.4,1.6l-0.5,2.1H699l-1.2-0.4l-1.6-2v-1.4L697,420.9z M534.8,453.9l2.8,0.2l4,1
		l3.4,0.8l0.5,1.2l-0.8,3.6l-0.4,0.4l-1.1,0.5l-1.5-0.4l-1.8-1l-0.6-1.1l-1.5-2l-1.5-0.9l-1.4-1.1L534.8,453.9z M554.4,458.4
		l4.6,1.8l8.2,0.5l1.5,0.4l1.1,0.9l3.6,5.5l1.5,3.1l0.2,3.8l-0.5,1.6l-1.4,1.8l-1.2,0.4l-1.4-0.1l-1.5-0.5l-3.1-3.1l-5.1-4.1
		l-2.5-2.9l-2.4-2.1l-2.6-4l-0.6-1.4l0.5-1.1L554.4,458.4z M634.9,458.5l1,0.2l0.2,0.1v0.6l-0.9,0.6l-2.1,0.6l-1.8-0.2l0.9-0.8
		l1.4-0.9L634.9,458.5z M643.5,458.6l3.5,0.5l0.4,0.9l-0.8,1.6l-0.6,0.8l-1.1,0.8h-1l-0.8-0.1l-0.4-1.6l-0.9-0.6l-2.2-0.2l-0.2-0.1
		l0.6-1.2l0.6-0.2L643.5,458.6z M653.4,458.6l5.8,2.6l-2.1-0.8L653.4,458.6z M679.2,460h1.9l0.2,0.9l-0.8,2.1l-3,3.6l-1.9,1.4
		l-4.2,2l-1.9,0.5l-2.2,0.1l-0.5-0.4l-0.4-0.8l1.6-1.9l0.2-1.2l-1-2.2l0.5-0.6l4.6-0.9L679.2,460z M636.9,462.1h2.6l5.1,2.2l4.5,0.5
		l-0.3,0l-1.5,0.4l-2.8,1.9l-2,0.2l-2.6-0.6L638,465l-2.2-0.1l-1.8-0.1l-2,0.8l-1.9,0.8h-1.5l-2,0.5l-2,0.6l-0.4,0.2H624l-0.5,0.4
		l-1.4,0.9l1.9-1.2l0.6-0.2l0.9-0.4l9.5-3.5L636.9,462.1z M550.4,465.5h0.6l1.2,0.5l4,5.1l2.1,2l2,2.1l5.4,3.9l2.2,1.2l5.1,1.5l2,1
		l1.8,2.4l-1-1.2l-0.4,0.4h-3.8h-1l-3.4-1.1l0.2,1.5l-3.4-0.4l-0.9,0.4v-0.4l-1-0.2l-0.4-1.5l-1.1-0.5l-0.6-0.8v-0.9l0.5-0.5
		l-0.6-0.6l-1.6-0.6l-0.6-1l-1.4-1l-2.1-3.4l-3.9-4.8h-0.6l0.5-0.6l-0.6-1.9L550.4,465.5z M631.5,466l-3.6,1.2l1.2-0.4L631.5,466z
		 M716,469.4l-3.4,0.1l-1.4,0.5l-1.4,1.2l-1.1,0.2l-2.1-0.6l-2.1-1.1l-0.5,0.6l-0.9,0.5l-0.5,1l-0.6,0.5l-0.9-0.1l-1.2-0.6l-1.4,0.1
		l-11-0.1l-2-1.9l-1.4-0.2l-0.1,0.8l1.4,1.1l-0.8,0.9l1.6,0.1l0.6,0.5l-0.2,3.2l1.1,0.6l1.2,0.4l0.1-0.1l0.9,0.1l0.6-0.2l0.4-1.2
		l0.1-0.2l1.4,0.1l0.4,1v1.4l0.5,0.1l0.9-0.8h1l2.6,1.6l0.6,1.8l0.8,0.8l4.6-1l1.4-0.8l4.1-0.4l1.2,1.4l0.6,3.8l3.1,1.8l0.2,0.6
		l0.2,1.4l1.1,1.2v-1.2V469.4z M622.2,469.9l-4,1.9l-3.2,1.4L622.2,469.9z M550.8,471.1l4,4.5l0.1,2.6h-1.6l-0.4-1.9l-1-1.1v-0.1
		l-2.5-2.5v-0.2l0.9-1L550.8,471.1z M683.6,472.5l-0.4,0.1l-0.6,0.1l-0.4,0.5v0.1l-0.4,0.6v0.8l1.9,0.4l0.1-0.2v-0.5L683.6,472.5z
		 M680,473.6l-0.2,1l-0.9,2.5L680,473.6z M436.4,474l1.2,0.2l0.4,1.6l-0.4,1l-0.5,0.6l-0.9,0.1l-1.1-0.4l-0.4-1.2l0.6-1.2L436.4,474
		z M495.8,475.4l0.5,0.8l-1.5,2l-0.8-0.5l1.1-2L495.8,475.4z M452.4,478.9l2,0l-5.8,0.2L452.4,478.9L452.4,478.9z M494.1,480.2
		l1.1,1l0.6,1.9l0.9,1l0.9,2.8l0.1,1.2l-9-6.4l2.4-1.1L494.1,480.2z M441.1,482h1.4l0.4,0.8l-0.4,0.8l-2.5,1.6l-0.9,1l0.2,1.6
		l-0.6,1l-1,0.1l-0.8-1.5l-1.2-0.1l-0.2-0.8l1.5-1.8l2.9-2.1L441.1,482z M442,489.6l-2.1,1l-0.2,0L442,489.6z M430.2,501.7l-0.3,2.1
		l0.2-1.9L430.2,501.7L430.2,501.7z M699.1,504.1l-0.8,1.4l-1.2,0.5l-0.6,0.1l-0.5,0.2v0.4l0.8,0.1l0.2,0.6v0.6l0.8-0.1l1.1-1.6h1.2
		l0.2-1.5h0.1l-0.1-0.4l-0.4-0.1L699.1,504.1z M706.4,505.5l-0.4,1.1l0.4,1.6l0.1,2.1l0.4-2.4l0.4-2.2L706.4,505.5z M445.2,511.5
		h1.5h0.1l0.5,1.1l-1,1.2l0.2,2l-0.4,0.2v0.1l-1.1,0.9l-1.9-1.5l-1.8,0.1l-0.4-0.9l0.1-1.1l0.8-0.9L445.2,511.5z M432.1,531.2
		l1.6,1.5l3.9,3.1l1.2,1.4v0.8l-0.6,0.5l-2.2-0.2l-0.4,0.5l1.1,1.8l-0.8,1l-1.4-0.1l-0.8-0.6l-1.2-3.2l-1.1-1.5l-1.5,0.2l-2.8,2.6
		l-0.9,0.1l-0.8-0.2l-0.2-0.8l0.4-0.9l2.9-2.2l2.1-2.8L432.1,531.2z M431,543.1l2.1,1l1,1l0.4,1.5l-0.6,1h-1l-3-2.2l-0.5-1.1l0.8-1
		L431,543.1z M428.5,548l3,2.2l0.6,1l-0.5,0.6l-1.6-0.2l-2.1-1.2l-0.5-1l0.2-0.9L428.5,548z M401.5,618.2h0.9l0.2,0.5l-0.5,1.1
		l-1,1.8l-0.8,0.1l-0.2-1l0.4-1.4L401.5,618.2z M405.1,619.6l0.4,0.8l-0.5,1l-0.8,1l-1,0.1l-0.4-0.9l0.6-1.1L405.1,619.6z"/>
</g>
</svg>
