<?xml version="1.0" encoding="utf-8"?>
<!-- Generator: Adobe Illustrator 25.2.1, SVG Export Plug-In . SVG Version: 6.00 Build 0)  -->
<svg version="1.1" id="Слой_1" xmlns="http://www.w3.org/2000/svg" xmlns:xlink="http://www.w3.org/1999/xlink" x="0px" y="0px"
	 viewBox="0 0 200 200" style="enable-background:new 0 0 200 200;" xml:space="preserve">
<style type="text/css">
	.st0{fill:#FEFEE9;stroke:#646464;}
</style>
<path id="path3157" class="st0" d="M4,124.94l0.91-2.5l1.93,0.11l-0.68-1.14l1.25-0.11l-0.11-1.36l2.27-1.36l1.25,0.57l1.36,2.27
	l1.82,0.34l1.14-1.02l-2.84-3.18l1.7-0.8l-3.07-1.82l0.68-1.36l-1.59-1.02l0.57-0.91l-1.25-1.25l2.39-1.25l-1.7-1.02l-0.34-2.39
	l1.59-2.27l-0.11-4.66l1.25-3.75l2.84-2.73l1.82,0.91l2.95,0.68l2.73-2.73l1.36-2.39l1.48-1.48l-2.39-5.11l0.23-0.11l0.45,0.11
	l2.27-1.14L26.72,82l0.68-0.57l1.7-0.11l0.68,0.45l0.91-0.23l0.11-0.45l0.8-0.11l0.45-0.45l4.77-2.39l1.14,2.16l1.14,0.11l0.57-0.57
	h0.8l0.11,0.23l0.91-0.23l0.45,0.11l0.11-0.11l1.02,0.68l0.11,0.34l0.57,0.11l0.68-0.68h0.68l0.11-1.48h-0.91l-0.11,0.34l-0.68-0.11
	l0.34-0.68l-0.11-0.34l0.11-0.11l-0.45-0.34l0.45-0.57l2.16-0.45l0.45,0.11l2.27-0.57l0.34-0.11l0.57-0.68l2.39-5l0.91-0.68
	l-0.11-0.57l-2.39-1.02l-1.14-0.11l0.11-0.91l1.14-1.25l1.02,0.11l0.11-0.45h-0.34l-0.34-0.91l0.34-0.34l-0.57-0.23l-0.11-0.91
	l0.11-0.34l0.68-0.34h0.8l0.91,1.02l0.11-0.68l-0.68-0.34l-0.34-0.45l0.34-1.02l0.45-0.34l-0.68-0.68l0.11-0.45l0.45-0.45l0.91-0.34
	l0.45,0.34l1.25-1.7v-0.45l0.57-0.45v-0.68l-0.34-0.34l0.11-0.68l0.45-0.34l-1.02-0.45l-0.57,0.45l-0.57-0.34l-0.34-1.25l0.68-0.45
	L55,51.68l0.45-0.34l0.91-1.14l0.68,0.8h2.04l3.07-0.45l1.02,1.02l2.16,0.68l1.59-1.14l-1.82-1.25V48.5h0.91l4.2,1.93l0.34,4.54
	l1.25,0.11l0.57-2.27l0.57-1.02l0.11-1.25l-0.34-2.16l-2.84-3.86l-2.95-0.91l0.11-1.59L68.4,41v-1.48l1.02-0.11l1.25,0.34l1.48-0.8
	l2.27,2.5l2.73,0.23l6.13-9.2l3.41,1.7l3.52,2.39l5.11,1.48l5.45-0.57l4.09-1.36l3.86-2.27l2.95,0.23l1.25,1.14l1.02,2.95
	l-0.91,5.22l1.93,1.14l2.04-0.34l0.11-1.7l0.68-1.59l4.54,1.36l3.29-0.34l3.18-1.25l4.2-2.95l-0.34-2.16l2.39,0.57l1.59-0.57
	l7.27,13.97l1.82-1.25l1.93,1.25l0.57-0.45l0.45-1.36l3.29-2.27l0.11,1.25l-0.34,1.25l1.36,0.11l1.25-1.7l2.16,0.91l4.88-2.73
	l6.7-3.41l-1.02,3.52l1.02,2.27l-1.25,2.39l0.57,0.57h1.14l2.27-2.04l0.11-0.8l-0.45-1.25h1.36l1.25-1.59l0.57-1.82l1.02-0.68
	l3.41-1.14l-0.34,1.25l-2.39,0.57l-1.14,1.25l1.25,0.68l2.39-0.68l0.45,0.91l-0.91,1.14l-2.73,1.36l-2.39,2.5l-1.02,2.84l0.57,2.27
	l-1.02,1.14l-1.59-0.45l-0.68,1.25l0.91,1.36l2.27,1.7l1.14-0.57l5.45-0.34l1.36-0.57l0.91-1.7l-0.68-0.34l0.34-1.36l1.14-0.34
	l1.59-1.25l1.48,0.11v1.02l-1.48,1.7l-0.45,1.36l0.11,2.04l1.14,1.02l2.04-0.23l0.34,0.91l-3.86,1.25l0.23,2.73l-0.23,0.11
	l-2.73-1.36l-5.57,2.73l-0.11,2.39l-2.95,0.34l-0.57-1.82h-1.59l0.11,3.98l-4.09,0.45l1.14,2.16l3.18,0.23l1.93-1.7l2.73,0.45
	l2.27-2.16l2.73,2.73l1.82-1.7v-1.14l0.91-0.11l0.91,0.91l0.23,3.29h1.25l0.11,1.59l-2.27,1.02l2.04,5.45l5,1.59l1.82-1.02
	l0.57-1.59l1.25-0.11l-0.11-3.07l1.25-0.45l0.91,1.14l-0.45,2.39l1.25,1.48l-0.57,1.02l-2.27-0.11l-1.02,0.23l-0.68,1.14l-0.23,1.59
	l1.36,1.82l4.09,3.29l1.02,3.63l1.02,2.73l-0.57,1.82l-0.11,1.59l-1.59,1.7l-5.22,0.8l-3.18-0.45l-4.09-5L181.42,97l-1.93-0.11
	l-6.59,4.77l-1.25,1.25l-0.23,3.18l-1.59-0.91l0.34-2.95l-5.45-0.8l-0.45,2.16l-2.27,0.8l-1.02,2.16l-1.93-0.34l-1.14,4.54l0.68,2.5
	l0.11,2.39l-1.14,1.02l-0.23-2.04l-2.73-1.36l-3.07-0.34l-2.16-1.25l-2.04-2.84l0.68-2.27l-1.59-0.68l-1.02,0.57l-2.27-1.48
	l-1.02,0.45l-2.27,2.73l0.34,2.95l-0.8,1.59l-1.59,0.11l-3.86-0.57l-2.27,0.45l-1.82,1.25l-2.73,3.29l-2.27,3.29l-2.04,0.57
	l-1.36,1.02l-1.48,2.73l-1.25,1.02h-2.84l-0.68,1.59l0.34,2.16l-1.48,0.11l-1.93,0.8l-0.45-1.59l-2.39,0.68l-2.5,1.36l-5.11,1.25
	l-2.16,2.27l-3.07,0.11l-0.68,1.25l-1.02,0.57l-0.11-6.81l-1.02-1.7l-0.45-1.25l1.25-1.36v-2.73L91,124.14l-2.5-2.39l-3.07-1.02
	h-1.82l-4.43,0.68l-2.84-0.8v-2.16l-4.09-10.79l-2.5,2.95l3.41,11.7l-1.25,3.86l-1.25,2.84l1.59,0.11l1.02,1.25l-1.02,2.84
	l-5.45,1.82l1.59,2.84l0.8,0.34l2.73-0.68l2.16,1.14l-2.27,2.16l-2.95,0.11l-3.75,0.68l-0.91,1.25l1.59,1.59l0.11,2.16l-2.5,1.25
	l-1.36,2.16l0.11,1.7l1.36-1.14l-0.11,2.16l-1.82,2.04l1.14,0.11l2.27-2.27l1.36,1.02l-2.73,4.43l-3.75,0.91l-1.02-0.11l-1.48,0.57
	l1.59,1.59v1.7l4.2-0.11l1.25,3.07l-1.36,2.04l-11.81-0.34l-6.81-2.95l-10.79-0.91l-4.43,2.16l-0.57-2.95h1.25l1.02-2.5l-1.59-2.39
	l-0.68-3.86l-0.91-2.95l-1.14-2.95l-0.8-0.57l-1.59-2.84l-1.7-0.57l-0.34-4.77l-2.84-0.91l-2.95-2.27l-0.68-1.14l-3.18,0.11
	l0.57-3.07h-2.27l-1.93-1.59H8.43l-0.91-3.07l-2.27-1.48L4,124.94"/>
</svg>
