<?xml version="1.0" encoding="utf-8"?>
<!-- Generator: Adobe Illustrator 25.2.1, SVG Export Plug-In . SVG Version: 6.00 Build 0)  -->
<svg version="1.1" id="Слой_1" xmlns="http://www.w3.org/2000/svg" xmlns:xlink="http://www.w3.org/1999/xlink" x="0px" y="0px"
	 viewBox="0 0 200 200" style="enable-background:new 0 0 200 200;" xml:space="preserve">
<style type="text/css">
	.st0{fill:#FEFEE9;stroke:#646464;}
</style>
<path id="path3163" class="st0" d="M36.55,128.41l4.89-1.87l2.3,3.02l4.89,4.75l1.87,0.58l-0.58,1.58l0.86,1.73h1.44l0.72-1.44
	l1.44-1.44l1.29-3.45l3.16-3.74l2.01,1.87l0.72-1.58l4.89-0.86l-1.01-4.89l3.02,0.14l2.59-0.58l-0.14-2.88l0.58-2.59l3.45-2.01
	l2.01,1.58l1.29-0.14l-0.14-0.86l1.15-1.87l-2.16-7.19l-3.6-2.59l-3.74-0.58l-2.73-1.73l0.58-1.73l2.3,0.86h3.16l2.3,1.15v-2.88
	l3.02-2.88l-3.02-1.58l-3.02-3.45l-1.15-5.61l-1.58-1.44l-1.58-1.73l-2.44,0.86l-0.72-0.58l1.01-1.29l-0.86-0.72l-0.58-2.88
	l1.15-2.44l-2.73-0.43l-2.01-2.16l-0.29-2.88l5.03-0.58l1.58,0.72l4.31,0.43l1.15-1.58l1.01-2.88l3.02-1.73l2.88-0.14l1.58-2.16
	l-0.14-3.6l-2.16-3.16l-0.14-4.31l0.58-3.16l-0.14-3.6l2.16-1.15l0.72-2.16l0.72,1.58l2.73-0.14l1.15,12.94l0.86,0.43l3.74-2.3
	l3.02,0.72l1.58-1.15l-0.14-2.59l0.29-1.58l1.44-0.14l-0.58-5.75l0.14-4.46l2.59-6.18l-2.59-4.46l0.58-22.43l12.65,0.72V1l2.73,0.58
	v5.18l3.16,1.15l2.3,2.88l1.58,6.18l1.29,3.6l-0.86,3.45v2.88l1.44,1.15l4.03-0.58l3.16-0.86l0.58,1.58l-2.3,0.43l-0.29,1.15
	l1.73,1.44l3.6,0.86l1.58,0.72l5.61-1.29l1.15,0.58l5.75,4.89l-1.58,0.14l-3.45-1.15l-5.32-0.58l-2.73-0.86l-2.3-2.01l-1.44,0.58
	l1.29,1.58l0.29,1.44l2.16,2.73l14.24,0.43l6.76-0.14l6.18,0.14l0.72,3.45l-1.29,2.59l1.73,3.74l-0.72,5.61l0.58,6.33l-1.58,3.88
	l-1.87,2.59l-3.31,1.15l-1.29,4.31l-3.45-0.72l-4.17,0.14l-0.86,4.89l-0.72,2.3l-1.58,0.14l2.16,3.02l-1.58,3.88l-1.58,2.73
	l-2.16,1.87l-2.73,2.73l-8.2,3.45l0.86,2.01h1.29l-3.45,3.02l-5.61,2.88l0.86,2.88l2.01,2.3l0.58,2.3l-0.58,1.58l0.58,1.29
	l-1.58,1.44l-1.44,1.73l-1.87,0.43l-0.14,1.29l-1.58,0.58l-1.15,0.72l-1.44-2.73l-1.44,2.3l-7.77,3.02l-2.88,1.58l-1.44,2.3
	l-1.73-1.29l-0.43-0.72l-2.3,1.73v1.87l-4.31,1.73l0.43,1.58l-0.14,1.58l1.01,1.73l0.58,0.43h2.3l1.29,1.73l-0.43,1.58l1.29,2.01
	l-0.58,2.73l1.58,2.3l-1.29,1.29l-1.29,0.14l-1.29,1.15l-1.29,2.01l-2.01,1.44l-2.3,0.43l1.44,4.75h2.73l0.58,1.29l-0.72,1.15
	l1.73,1.15l0.43-1.44l2.73,1.58l3.16,7.48l3.16,0.72l-0.43,8.2l-1.15,1.29l-3.88-1.29l-1.15,1.15l-3.45,2.01l-0.14-0.72l0.43-1.58
	l-3.02,1.29l-0.72,1.58l-0.43,2.01l-0.86,0.14l2.59,0.29l1.44-1.15l-1.29,3.02l-0.14,2.3l0.72,4.31l-2.16,0.72L89.9,196l-0.86-0.29
	l-0.14-2.01l-1.15-1.44l-1.01-0.29v-1.15l-1.01,0v-2.73l0.72-0.14l0.14,0.14l1.01-0.72l2.16,0.43l0.58-0.86l-0.86-0.86l-0.72,0.43
	v-1.44l0.72-1.29v-0.86l0.72-2.16l0.29-2.88l-2.44-2.73l-0.58,1.15l-1.29,0.86l-0.86,1.73l-2.01,1.44l-0.43-0.58l-1.58-0.14
	l-1.58,0.72l-1.44-0.14l-1.87,0.72l-0.86,1.44l-1.44,0.58l-0.43,2.44l-1.29-0.72l-2.88-3.74l-5.03,2.01l-2.16-1.87L61,176.87
	l-0.86,0.29l1.58-3.74l-2.44,0.72v0.72H56.4l-2.44,7.19l-5.32-5.75l1.58-0.86l-6.62-7.48l-2.3-3.16l-0.72,1.29l-3.02-2.88l0.72-0.58
	l0.72,0.72l2.73-3.74l-1.29-2.16l-0.58-2.16v-1.29l0.72-1.15l0.14-0.72L40,152l-1.29,1.15h-0.86L37.27,152l0.14-15.24L36.55,128.41"
	/>
</svg>
