<?xml version="1.0" encoding="utf-8"?>
<!-- Generator: Adobe Illustrator 25.2.1, SVG Export Plug-In . SVG Version: 6.00 Build 0)  -->
<svg version="1.1" id="Слой_1" xmlns="http://www.w3.org/2000/svg" xmlns:xlink="http://www.w3.org/1999/xlink" x="0px" y="0px"
	 viewBox="0 0 200 200" style="enable-background:new 0 0 200 200;" xml:space="preserve">
<style type="text/css">
	.st0{fill:#FEFEE9;stroke:#646464;}
</style>
<polygon class="st0" points="169.73,177.08 170.62,172.09 169.55,170.31 166.88,170.31 162.95,169.6 161.88,167.81 163.84,165.85 
	167.59,165.85 176.68,163.18 180.42,161.04 183.1,158.37 185.77,153.2 186.13,150.52 182.56,143.57 181.85,140.72 182.03,137.87 
	179.35,135.73 178.64,134.12 178.82,133.05 180.24,132.88 182.21,133.95 184.88,137.51 187.02,143.04 188.62,145 191.12,145.18 
	192.9,144.11 194.68,141.43 196.82,135.19 197,131.63 196.29,126.99 190.58,116.12 185.59,108.99 178.28,96.51 176.68,92.77 
	176.86,86.71 175.79,81.54 174.9,80.11 172.76,78.15 165.63,72.98 162.95,70.84 159.75,70.49 157.61,71.91 155.82,72.09 
	154.4,70.67 154.75,66.74 153.33,63.18 151.19,59.97 143.7,54.98 129.8,44.46 122.85,38.22 121.06,35.02 115.9,28.06 114.11,22.54 
	110.73,17.55 102.28,2 101.46,2.04 97.18,8.1 93.79,6.32 90.23,12.91 90.23,25.92 88.27,30.38 83.99,30.56 85.77,24.5 80.6,25.21 
	77.75,23.61 76.86,22 69.91,20.04 62.42,16.48 64.56,12.2 58.85,10.06 47.98,17.55 47.98,20.22 52.97,20.76 52.44,23.43 
	48.87,25.39 46.91,25.92 44.95,23.25 41.03,22.72 37.46,21.65 34.43,18.79 36.39,16.12 33.54,13.45 29.26,13.98 27.66,17.55 
	27.13,23.43 24.27,27.71 20.89,30.2 19.1,30.92 15.9,28.06 13.76,28.78 18.21,37.33 20.89,41.25 22.31,44.11 23.38,47.85 
	22.67,51.77 19.28,52.31 18.93,57.65 13.04,57.12 11.62,71.56 32.65,74.23 31.23,79.76 34.61,79.22 32.47,88.14 36.93,89.74 
	38.71,96.51 39.78,96.87 41.56,94.37 41.39,90.99 51.01,91.17 53.33,94.37 56.89,88.85 61.17,100.43 64.56,104.71 65.98,117.37 
	65.09,123.96 66.52,125.75 65.63,128.78 63.13,128.06 62.24,133.59 64.2,137.51 63.67,140.18 57.43,140.54 58.32,143.22 
	61.71,146.78 63.13,147.67 67.41,146.07 69.37,148.56 66.88,151.24 68.48,153.55 70.98,153.55 72.76,154.44 69.73,164.61 
	72.4,166.39 73.29,166.57 74.01,167.99 75.97,168.53 76.68,169.6 77.75,169.6 78.46,169.95 79.53,169.6 83.1,171.38 83.45,171.2 
	82.56,169.42 82.38,167.28 80.96,166.39 82.92,165.32 90.23,176.55 90.23,178.15 90.58,179.22 93.08,180.11 92.54,182.25 
	94.15,182.07 97.18,183.68 103.24,188.13 107.52,188.67 107.87,189.56 108.05,189.56 108.76,188.67 109.48,189.56 110.19,189.03 
	110.9,189.74 112.86,190.27 113.22,189.56 114.29,184.39 115,183.5 115.72,184.93 117.68,187.07 119.1,189.74 120.53,194.37 
	121.24,195.26 123.38,194.73 126.06,193.84 125.52,188.67 125.7,185.46 126.06,184.57 129.62,184.03 136.93,182.07 138.35,183.86 
	144.06,182.43 146.55,182.25 146.73,183.5 147.45,184.39 152.97,182.43 154.4,184.21 154.58,186.89 155.29,187.42 156.18,187.24 
	156.89,186.35 157.61,186.17 158.5,186.35 163.13,189.03 165.27,190.99 168.12,191.16 168.84,189.56 169.73,189.38 170.44,189.74 
	171.15,190.63 171.31,191.27 171.15,186.89 "/>
<polygon class="st0" points="-20.47,7.24 -20.45,7.26 -20.17,7.24 "/>
</svg>
