<?xml version="1.0" encoding="utf-8"?>
<!-- Generator: Adobe Illustrator 25.2.1, SVG Export Plug-In . SVG Version: 6.00 Build 0)  -->
<svg version="1.1" id="Слой_1" xmlns="http://www.w3.org/2000/svg" xmlns:xlink="http://www.w3.org/1999/xlink" x="0px" y="0px"
	 viewBox="0 0 200 200" style="enable-background:new 0 0 200 200;" xml:space="preserve">
<style type="text/css">
	.st0{fill:#FEFEE9;stroke:#646464;}
	.st1{fill:#C6ECFF;stroke:#0978AB;stroke-width:0.5;}
</style>
<polygon class="st0" points="-20.47,7.24 -20.45,7.26 -20.17,7.24 "/>
<polygon class="st1" points="117.72,-13.11 117.62,-13.11 117.72,-13.1 "/>
<path id="path3049" class="st0" d="M2,99.32l0.49-0.25l0.49-0.62l-0.62-0.74l0.99-1.36l1.73-0.37l0.99-1.23l1.48-0.62l1.48-1.48
	l0.37,0.12l1.48-1.36l-0.12-0.37l0.62-0.74l0.49-0.12v-0.12l1.6-0.62l0.62-0.12l0.37-0.49h0.12l0.49-0.62h0.49V88.1h0.12l0.12-0.49
	l0.12-0.37h0.12v-0.12h0.12v-0.37h0.12l0.12-0.37h0.12v-0.12l0.74-0.49v-0.12h0.12l0.12-0.37h0.12l0.49-0.74l0.62-0.25v-0.12h0.12
	v-0.12L20,83.42v-0.12h0.12v-0.12l0.49-0.12l0.12-0.62h0.37v-0.12l5.05-0.74l-0.62-1.23h0.12v-0.12l1.85,0.12v0.12h0.49l-3.2-6.9
	l0.99-0.62h0.25L5.57,61.85l0.12-0.49l0.49-0.37v-0.12h0.12v0.12v-0.12v0.12v-0.12h0.12H6.31h0.12v-0.12v0.12L7.92,60l1.36-1.73
	l-1.36-2.71l2.47-2.71l1.73-1.36l-0.12-0.37h-0.25v0.12h-0.12v-0.12H11V51l-0.12,0.12V51h-0.12l-0.37-0.49h-0.12v-0.12l-0.49-0.12
	v-0.25l-0.49-0.12v0.12l-0.62-0.12L8.53,49.4l-0.62,0.12v0.12H7.79l0.12-0.49l-0.37-0.12v-0.37L7.3,48.53l-0.62,0.12v0.12L6.19,48.9
	L5.7,48.78L5.45,48.9l-0.37-0.12v-1.11l-0.37,0.12v-0.12l-0.25-0.12l0.12-0.25H3.85v0.12l-0.74-0.37l0.12-0.12l-0.12-0.12h0.25
	l-0.12-0.37h0.12v-0.12h0.12l0.12-0.49H3.48l-0.12-0.49H3.23v-0.12H3.11v-0.12h0.12H3.11l-0.12-0.25h0.12v-0.12H2.99l6.66-7.27
	l8.14,0.62l1.97,0.62l-0.37,0.62l0.12,3.2l4.31,0.37l0.12,0.49l5.42,2.96l0.12,1.6l-0.12,0.86l1.97,1.11l-0.49,1.48l10.35,3.57
	l-0.74,1.97l0.99-0.12l2.71,1.48l0.74,0.74v1.48l0.74,0.62l1.85,0.49l0.49,0.86l2.34,1.97l0.49,0.86l1.36,0.12l-0.12,0.62h1.11
	l0.74-0.37l0.74,0.49l1.6-0.49l1.23,0.37l1.11-1.11l9.12-2.59h0.99l4.56,2.47l1.97-1.97l0.86,2.34l-0.49,0.62l0.99,1.73l0.62,0.49
	l-0.12,1.73l0.62,1.36l2.47,2.47l-0.49,1.36l0.62,0.62l-0.49,2.22l5.18,2.47l3.08-2.34l6.41-2.34l-0.62-2.34l1.23-1.85l0.49,0.99
	l0.99-0.74l1.48,4.44l1.73-1.23l5.42-6.04l1.73-0.49l-0.62-2.1l3.7-1.97l6.04-0.62l3.08-1.73l2.22,0.74l1.97-0.62l1.73-1.23
	l0.99-4.93l8.87,0.12l-0.12,2.96l1.23,0.62l0.74,1.6l1.97,1.73l1.85,2.96l6.66,3.08l0.49,1.11l0.62,0.12l1.23-2.71l-0.37-0.86
	l0.62-0.74l1.85,1.85v2.96l0.99,0.74v0.49l-0.49,0.74v0.49l0.49,0.62l2.34-0.25l0.25,0.62l2.34-1.11l0.37-0.99l-0.37-0.49
	l-1.73,1.48l-0.12-1.36l-0.74-0.12l-0.62,1.11l-0.25-0.12l-0.12-3.2l1.73-0.37l1.11,0.37v0.74l3.45,2.22l0.99-0.37l0.25,0.62
	l2.59,0.25l1.48-0.12l0.49,0.49l0.74,0.37l0.49-1.23l-2.59-1.48h-1.11l-0.12,0.49l0.12,0.62l0.99,0.37v0.25l-2.47-0.49l0.25-1.97
	l-0.25-0.62l0.12-0.49l4.93-0.37l1.36,0.62l0.62-0.49l1.73-0.12l0.12,1.11l0.49,0.62l0.74-0.49l0.25-0.62l-0.49-2.34l2.34-0.49
	l1.36,0.37l1.85-0.12l1.97,0.99l4.31,0.74l1.11,0.62v1.73l-0.62,1.85l2.71,6.16l2.22,3.57l-0.62,0.12l-1.73,1.36l0.74,7.89
	l1.73,5.67l-0.49,1.11h-0.12v0.49h0.12v0.12h0.49v0.12h0.12l0.12,0.62h0.12v-0.25h0.37v0.12l0.49,0.37v0.49h0.12v0.12h0.12v0.12
	h0.12v0.12h0.12v0.12v-0.12l0.49,0.25l-0.99,0.37l0.99,1.97l-0.12,0.37l0.74,1.73l0.12,0.99l0.25,0.12l1.85,6.78l0.12,0.99
	l0.74,1.85l0.12,3.2l0.49,2.59l1.11,3.08l-0.74,1.36l-2.59,1.85l-1.97,0.99l-1.23,3.45l-1.11-1.6l-1.23-2.59h-1.85l-1.85,1.23
	l2.96,1.97l0.49,2.47l-1.85,1.48v3.08h0.49l0.62,1.11l-1.23,0.49l-1.97-0.12l-0.12,1.85l0.37,1.23l2.47,1.73l1.6-0.74l1.11,2.34
	l-0.74,0.25l-1.36,1.73l-0.49,3.33l-9.37,4.81l-3.08,1.85l-2.34-0.99l-1.36,1.85l-1.48-0.12l0.37-1.36l-0.12-1.36l-3.57,2.47
	l-0.49,1.48l-0.62,0.49l-2.1-1.36l-1.97,1.36l-7.89-15.16l-1.73,0.62l-2.59-0.62l0.37,2.34l-4.56,3.2l-3.45,1.36l-3.57,0.37
	l-4.93-1.48l-0.74,1.73l-0.12,1.85l-2.22,0.37l-2.1-1.23l0.99-5.67l-1.11-3.2l-1.36-1.23l-3.2-0.25l-4.19,2.47l-4.44,1.48
	l-5.92,0.62l-5.55-1.6l-3.82-2.59l-3.7-1.85l-6.66,9.98l-2.96-0.25l-2.47-2.71l-1.6,0.86l-1.36-0.37l-1.11,0.12v1.6l-1.48,1.11
	l-0.12,1.73l3.2,0.99l3.08,4.19l0.37,2.34l-0.12,1.36l-0.62,1.11l-0.62,2.47l-1.36-0.12l-0.37-4.93l-4.56-2.1h-0.99v1.48l1.97,1.36
	l-1.73,1.23L73,163.29l-1.11-1.11l-3.33,0.49h-2.22l-0.74-0.86l0.25-1.73l0.37-0.49v-0.49l0.49-0.62l-0.12-0.37l-0.99,0.37
	l0.12-0.74l0.37-0.12l0.25-0.49h0.37v-0.49h-0.49l-0.99,0.62l-0.62-0.49l-1.6,1.97v0.49l-0.25,0.49l-0.37-1.85l-0.49-0.49
	l-1.11,0.37l-2.34-0.37l-0.12-0.25h-0.12l-0.12,0.25h-0.49l-0.12,0.37l-0.49,0.12l-0.12-0.25l-0.74-0.25l-0.25-0.12l-0.49,0.49
	h-0.49L53.03,157l-0.12,0.37h-0.12v0.12h-1.11v-0.12v0.12h-0.12h0.12h-0.12v0.12l-0.37-0.25V157h-0.12v0.12h-0.12V157l-0.37-0.12
	v-0.12h-0.62v-0.12l-0.49-0.12v-0.12v0.12l-0.49-0.12l-0.62,0.12V157h-0.49l-0.12-0.37h-0.12v-0.12h-0.12v-0.12h-0.12v-0.25h-0.12
	l-0.12,0.49h-0.12v0.12H46.5v-0.37h-0.25v-0.49l-0.37-0.12l-0.25-0.74l-0.74,0.12l-0.49-0.12v-0.12h-0.12v0.12h-0.12v0.12v-0.12
	h-0.12h0.12v-0.12h-0.12v0.12v-0.37h-0.49v0.12l-0.99-0.12v0.12l-0.62,0.25v0.12l-0.86,0.12v0.12v-0.12l-0.37,0.12v-0.12l-0.37,0.12
	v0.12h-0.12v0.12h-0.37v-0.12l-1.97,0.99v0.12L36.51,157v0.12l-0.62,0.12v0.12h-0.12v-0.12h0.12v0.12h-0.12v-0.12v0.12l-0.25,0.12
	l-0.12-0.25h-0.25v-0.12L34.66,157v-0.12h-0.12l-0.12-0.37h-0.12v-0.12h-0.12v-0.25h-0.25v-0.12H33.8v-0.12h-0.12v-0.12h-0.12v-0.25
	l-0.49,0.12v0.12l-0.62,0.12v0.12l-1.73,0.37l-2.96,0.99l-1.23-4.56l-0.86-1.48l-0.49-0.99l-2.1-2.34l-1.73-0.49l-0.99-1.11
	l0.49-0.62L20,143.57l0.62-0.62l-0.86-0.12l-0.25-0.37l1.73-0.62l-0.62-0.99l0.62-0.62l0.37-1.36l1.11-1.11l-0.49-0.86l-2.34-0.62
	l0.74-1.23l0.37-0.12v-0.12h0.12l0.37-0.86l0.99-0.12v-0.12v0.12v-0.12l3.57,1.73l0.62,0.49l1.85-0.74v-0.12l0.99-0.12v-0.12
	l0.74-0.12l-1.85-2.96v-0.37l2.34-0.74v0.12l7.4-2.22l0.12,0.62h1.36l0.25-0.62l-0.49-0.12v0.12v-0.12h-0.49v0.12v-0.12h-0.37
	l-0.62-0.86h-0.25v-0.12h-0.49v0.25h-0.25v-0.12l-0.12,0.12v-0.12h-0.12v0.12h-0.25v-0.12h-0.37v0.12H35.9v-0.12l-0.62-0.12v-0.12
	h-0.12v-0.12l-0.49-0.12l0.86-0.37v-0.12l0.62-0.37l0.37-0.49h0.49v-0.37h0.37l-2.22-2.34h-0.12l-1.6,1.97h-0.12v1.48l-0.74,0.37
	v0.37h-0.12v0.49h-0.12v0.12h-0.49v0.12h-0.49v0.12h-0.49v-0.12h-0.12v-0.12H30.6v0.12h-0.12v0.12v-0.12h-0.25v0.37h-0.49v0.12
	l-0.74,0.37l-0.37-0.12v0.12H28.5v0.12h-0.37v0.12h-0.12v0.12l-0.74,0.37l-0.12-0.12v0.37h-0.12v-0.12h-0.25v0.12h0.12h-0.12v0.12
	v-0.12l-2.96-1.11l-0.62,1.11l-1.36,0.37l-2.22,2.47l-1.23,0.12l-1.23-0.62l-1.23,0.12v-0.12h-0.49l-0.62-1.23h-1.85l0.12-0.74
	l0.62-0.62l0.74-0.25l0.74-0.99l-0.49-1.23l0.37-0.12l0.62,1.11l0.99-0.49l0.74,0.12l0.74-0.49v-1.23l0.62-1.85l-0.37-0.12
	l-0.74,0.12l-0.74,0.62l-0.37-0.37l0.62-0.49l0.12-0.74h0.12l0.12-0.37h0.12v-0.12l1.23-0.37l0.12-0.49l1.11-0.49v-0.12l0.99-0.12
	v0.12l0.49-0.12l0.37-0.62h0.12v-0.12h0.12v-0.37l0.37-0.12l0.12-0.37l0.62-0.12v-0.12l0.62-0.25v-0.12l1.23-0.12v-0.12h0.49v-0.12
	l0.49-0.12v-0.37l0.62-0.12l0.49-0.74h0.12h-0.12l0.37-0.12v-0.49h0.12l-0.12-0.12h0.12v-0.12h-0.12h0.12v-0.37h-0.12h0.12v-0.37
	h0.12v-0.25h-0.12l0.12-0.12h-0.12l-0.12-0.99l-0.12-0.62h-0.12l0.12-0.37h-0.12l0.12-0.62h0.12v-1.73h0.12l0.12-1.48h0.37v-0.12
	h-0.12l0.12-0.49h0.12l0.62-1.11h0.12v-0.49h0.12l0.12-0.49h0.12v-0.12h0.12v-0.37h0.12v-0.12h0.12v-0.37l-0.49,0.12l-0.74-1.6
	h-0.62v0.12l-0.49,0.12l-0.62,0.12v0.37h-0.12v0.12l-0.25-0.12v0.12l-0.49,0.12v0.49h-0.12v-0.12h-0.25v0.12l-0.62,0.12l-0.12-0.12
	v0.12H24.8v0.12l-0.37-0.12v0.37l-0.37-0.12v0.12l-1.11,0.37v0.12h-0.12l-2.59-2.71l0.74-1.23l1.73-0.99l3.2-0.49l2.59-1.36
	l-0.49-0.12l-2.96-4.93l-0.12,0.12l-0.25-0.12v0.12h-0.12v-0.12h-0.25v0.12h-0.12V95h-0.12v0.12h-0.49v0.12l-0.37,0.12v-0.12h-0.62
	l-0.12,0.62h-0.12v0.12l-0.74,0.12l-0.12,0.25h-0.12v0.37h-0.12v0.25v-0.12h-0.12v0.12h-0.12v0.12h-0.12v0.12h-0.62v0.12h-0.12v0.12
	h-0.37v0.12h-0.12v0.12l-1.23-0.12v0.12l-0.99,0.12v0.37h-0.49v0.12l-3.2,0.12l-0.12-0.49h-0.12v-0.12h-0.49v-0.12h-0.12v-0.12
	h-0.49v-0.12l-2.22,2.34v0.49l-1.36,1.23l-1.36,0.12l-0.49,0.37l-1.23,1.36l-0.49,0.37l-1.23-0.74l-0.12-0.74h0.62l0.12-0.25
	l0.62-0.37l-0.12-0.99L2,99.32"/>
</svg>
