<?xml version="1.0" encoding="utf-8"?>
<!-- Generator: Adobe Illustrator 25.2.1, SVG Export Plug-In . SVG Version: 6.00 Build 0)  -->
<svg version="1.1" id="Слой_1" xmlns="http://www.w3.org/2000/svg" xmlns:xlink="http://www.w3.org/1999/xlink" x="0px" y="0px"
	 viewBox="0 0 200 200" style="enable-background:new 0 0 200 200;" xml:space="preserve">
<style type="text/css">
	.st0{fill:#FEFEE9;stroke:#646464;}
	.st1{fill:#C6ECFF;stroke:#0978AB;stroke-width:0.5;}
</style>
<polygon class="st0" points="61.47,65.54 61.51,65.49 61.43,65.47 61.42,65.49 "/>
<path class="st0" d="M165.94,185.37l-0.09-0.93l-0.28-1.21l-0.93-1.12l-0.37-1.77l-0.09-3.07l-16.29-2.23l0.09-1.86l0.47-2.23
	l6.98-18.34l1.3-4.47l-8-2.51l1.12-2.89l-9.77-5.03l3.63-5.12l-1.95-0.84l5.96-10.24l-2.79-1.02l-1.95-0.37l-1.02-0.84l-1.3,0.56
	l-0.28-0.09l-0.09-0.56l-0.56-0.93l-0.93-0.93l-0.37-1.4v-1.68l-0.74-1.02l-0.47-1.4l-1.3-0.37l-0.47-0.56l0.47-0.84l-0.37-0.37
	l-0.37-1.68l-2.98-0.74l-1.86,0.09l-2.23-1.02l-1.77-0.47l-1.12-1.4l0.19-1.4l-1.49-1.77l-0.93-0.47l-0.93-1.3l-0.19-1.58l1.77-1.3
	l2.05-2.79l0.74-1.49l1.68-0.09l1.4,1.02l0.84,0.84l0.84,0.09l-0.09-1.4l0.37-1.86l1.12-0.56l0.09-2.23l0.93-0.09l-0.09-0.74
	l0.74-0.93l0.74,0.37l0.56-1.3l2.05-3.63l1.49-1.49l1.4-0.93l1.02,0.74l1.58,0.09l0.84-0.74l2.7,0.09l-0.74-1.02l0.09-0.84
	l-0.56-0.47l-0.09-0.47l0.09-1.12l1.02-1.12l0.84,0.09l1.4,0.84l0.84-0.93l0.56-0.93l1.02,1.3l1.49-1.49l-1.02-1.4l3.35,0.37
	l1.68-1.12l-0.56-0.93l0.74-1.49l0.84,0.47l-0.93-1.02l1.49-0.84l1.86-0.09l-0.74-1.3l1.12-0.93h0.56l-0.37-1.4l1.02-0.19
	l-1.21-1.86l0.37-0.84l-0.93-1.4l0.28-1.49l-1.4-2.42l1.49-2.23l1.58-0.84l1.86-0.37l0.47-1.02l-1.95-1.3l-1.21-1.3l0.56-0.93
	l0.09-0.47l-0.93-1.3l-0.84-0.56l-1.12-0.19l0.74-1.4v-1.4l0.19-0.28l-1.12-0.93l0.28-1.4l1.12-0.37v-1.3l0.37-0.47l-0.37-1.02
	l0.09-0.93l0.47-1.21l1.12-0.09l0.09-2.42l0.37-1.12l0.74-0.93L161.56,29l-0.37-1.4l-0.47-0.47l0.93-1.3l-1.49-1.95l-0.93-1.95
	l0.09-1.4l0.93-0.93l-3.35-1.49l-1.02,2.61l-2.23,1.49l-1.4-1.3l-0.09-0.19l-0.56-0.47l0.09-3.44l-1.86-3.16h-3.16l-10.7-0.56
	l-0.09-0.47h-0.09l-0.09-0.84h-0.09l-0.09-0.56h-0.09v-0.19h-0.09v-0.09h-0.09v-0.09h-0.09l-0.09-0.37h-0.09v-0.09h-0.09v-0.09
	l-0.56-0.19l-0.28,0.19l-0.93-0.09l-0.47-2.33l-0.84-0.37l-0.56-0.84l-1.49-0.28l-2.7,1.02l-0.84-0.74l-1.3-1.4l0.28-0.84
	l-0.28-0.28l-0.74,0.47l-0.84-0.37l-1.12-0.09l-0.28-0.37h-0.93l-0.28-0.37h-0.84V3.31h-0.09V3.22l-0.19-0.09v0.09h-0.47v0.09h-0.09
	v0.09h-0.37V3.5l-0.37-0.09l0.09-0.09h-0.37v0.09l-0.56,0.09v0.09h-0.09v0.09l-0.09-0.09v0.09l-0.09-0.09v0.09h-0.19V3.59h-0.09V3.5
	h-0.28v0.09h-0.09V3.5h-0.19V3.41h-0.47V3.31h-0.09V3.22l-0.37-0.09V3.03l-0.28-0.09l-0.09,0.09l-0.56-0.37l-1.49,0.28V2.85h-0.09
	v0.09h-0.09v0.09l-1.02,0.19l-0.37,0.09v0.09h-0.09V3.5h-0.37v0.09h-0.09V3.5h-0.37v0.09h-0.09l-0.09,0.37h-0.09v0.09v0.09
	l-0.74,0.09v0.09l-0.37-0.09l-0.37-0.09V4.06h-0.28V3.96h-0.09v0.09h-0.09V3.96h-0.09v0.37h-0.28l-0.09,0.74h-0.09v0.19h-0.09
	l-0.09,0.47h-0.09v0.09h-0.09V6.2h-0.09v0.09l-0.84,0.09v0.09l-0.47,0.09v0.09h-0.19v0.09h-0.28v0.09h-0.09v0.09l-0.09-0.09v0.09
	h-0.19v0.09h-0.09v0.09l-0.28,0.09L104.6,7.5l-0.19-0.09V7.5h-0.09V7.41h-0.09V7.32l-0.37,0.09l-0.19-0.09l-0.09,0.56h0.09v0.09
	h-0.09v0.09l-0.37-0.09l-0.37,0.28v0.09l-0.28-0.09v0.09l-1.02-0.09V8.15h-0.09v0.09V8.15h-0.28l-0.09-0.47h0.09V7.5h-0.09
	l-0.09-0.28l-0.47,0.09l0.09-0.09h-0.28v0.09V7.22h-0.09v0.09V7.22h-0.09V7.5h0.09h-0.09v0.09h-0.09v0.09h-0.28v0.09H99.3v0.09H99.2
	V7.78h-0.28V7.69h-0.47v0.09h-0.09v0.19h-0.19V7.87H97.9v0.09V7.87h-0.28V7.78h-0.09V7.69h-0.09V7.59h-0.37V7.5h-0.09v0.09h-0.19
	v0.09h-0.09V7.41H96.6V7.13h-0.09V7.04h-0.09V6.94h-0.09V6.85l-0.37-0.09v0.19h-0.09v0.09l-0.28,0.09v0.09h-0.09l-0.09-0.19
	l-0.47,0.09l-0.19-0.37l-0.74,0.09v0.09l-0.28,0.09V6.76h-0.09V6.66h-0.09V6.57h-0.09l0.09-0.09l-0.09-0.37l-0.09-0.37L91.2,7.59
	l3.16,1.4v3.72l-0.37,1.68l0.84,2.42l-2.61,1.77l-4.75-3.63l-1.4,9.03l-1.77,1.49l-5.49,8.1l-1.02,0.56l6.52,3.35h-0.09l0.37,0.37
	v3.82l1.02,2.98l1.3-0.19l0.09-1.95l0.47-0.28l1.4,0.37l-0.09,3.72l-2.79-0.09l-0.93-0.28l-0.37,3.91l-1.77,8.84l-2.89-1.02
	l-0.84-0.09l-0.56,2.33l-1.77-2.7l-0.47-0.09l-0.09-0.47l-0.56,1.12l-1.02,0.84l0.09,1.3l-1.77-1.3l-0.74-0.19l-1.21,1.77v4.1
	l-1.3,0.74l-1.21,1.49l0.37,0.09l-3.72,4.56l-1.02-0.84v-1.68l-0.93-0.37h-0.84l1.77-1.68l2.05,0.37L65.7,64l-1.3-0.84L62.35,64
	l-0.92,1.47l0.08,0.02l-0.04,0.05l1.06,0.97l-0.56,1.12l-0.93-0.09l-0.37-0.84l0.8-1.16l-0.06-0.05l0.01-0.02l-0.76-0.17l-1.3,0.09
	l-1.68-0.47l-2.23-1.02v-1.02l1.86-0.93l1.3,0.09v1.21L59,63.72h1.12l1.86-2.05l-1.4-1.95l0.37-0.74l-2.23,0.37l-0.74,0.74
	l-2.79-0.47l-1.58,1.02l-1.86-0.84l-1.58,2.33l-1.02,0.93l-0.28,1.68l0.56,1.49l1.4,0.74l1.4,1.12l0.74,1.3l-1.02,0.56h-1.77
	l-1.3,0.37l-0.37,1.02l0.28,2.33l1.86,1.95v1.02l-1.49,0.65l-2.89,3.44l-5.21-1.12l-1.3-0.84l-3.63-0.19l-3.35-4.19l-1.4-0.37h-1.49
	l-0.37,1.4l1.3,1.12l-2.33,4.56l1.86,1.4l1.49,1.77l-0.09,0.47l4.65,1.68l0.47,1.77l1.77,0.28l0.09,1.12h-2.42l-1.4-0.74l-0.56-0.56
	l-0.56,1.3l0.37,0.93l-0.47,1.12l-1.02-0.09v-2.42l-5.49,2.89l-1.49-0.56l-0.93,2.89l-0.47,2.42l-1.95,14.8l8,1.3l-0.37,5.49
	l0.37,5.31l-1.49,5.03v1.49l-1.4,1.12l1.02,2.89l1.49,2.79l-0.47,2.7l-0.19-1.02l-0.56,0.37h-0.93l-0.09,0.37l0.84,0.37l-0.74,1.02
	l2.23-0.19l6.98,6.52l-4.1,7.35l-3.66,6.16c0.85,8.99,3.07,17.14,11.65,18.94l1.32,0.03l0.02,0.18c0.08,0.01,0.15,0.03,0.24,0.04
	c-0.08-0.01-0.16-0.03-0.24-0.04l0.07,0.75l0.74-0.74l-0.09,1.95l0.19,0.56l0.56,0.37l2.33,4.1l1.58,1.68l7.45,1.3l1.58-10.24
	l9.03,1.68l6.79,0.93l0.56,0.47l0.56,0.19l0.56,0.56l0.56,0.37l23.73,3.91l-1.3,4.56l1.58,0.47l-0.93,2.79l-0.09,0.84l0.84,0.47
	l1.02,0.28l0.37-1.02l0.84-0.74l0.74-1.12l0.56-0.56l0.84-1.3l0.74-0.74l1.02-2.42h2.79l1.12-0.37l0.93,0.56l5.12,0.84l-0.28-0.84
	l0.09-0.56l0.74-0.56l1.77-0.47l0.84-0.56l0.37-1.3l-0.37-0.74l1.95-2.42l-1.49-1.77l1.3-1.4l0.74-0.47l5.49-2.23l3.07-0.74
	l2.7-0.93l2.51,6.14l0.56,0.93l-1.3,3.16l-0.09,1.95l3.26,2.23l25.5,3.35l1.95-0.28l0.84-6.24l1.49-0.28L165.94,185.37z
	 M110.19,94.06l-0.74,1.3l-0.37,6.05l-2.89,2.23l-0.37-2.51l-2.23,1.12l-0.84-0.47l0.47-1.95l-1.49-0.28l-2.23-2.05l-2.33,1.4
	l-1.86,1.49l-1.02,2.05L92.32,103l-1.77,0.28l-0.47,1.95H85.8l-1.58,1.95H81.8l-3.63,2.89l-2.33-2.33l1.21-7.91l1.3-0.09l0.28-2.42
	l2.05,0.47l0.74-2.23h2.42l0.09-3.26l2.42,0.56V90.9l-1.77-0.84l0.47-1.77l3.07,0.47l-0.28-2.79l3.63,0.09l0.37-3.44l-1.02-3.35
	l-1.02-1.77l-1.21-1.12l0.47-1.02l1.86-0.74l0.74-0.84l1.77-1.4l3.82,0.56l-1.12,5.68l0.56,3.72l6.33,0.84l-0.56,5.77l2.42,0.28
	l1.21,2.7l1.58,0.74l1.86-1.49l1.49,1.86L110.19,94.06z"/>
<polygon class="st1" points="86.27,108.1 86.18,108.1 86.27,108.11 "/>
<path class="st1" d="M30.33,162.46l2.61-1.12l2.79-2.33l2.42,0.37l0.09,0.56l-0.84,1.49l-2.23,0.93l-2.05,1.12l-1.4,0.93l-1.3,0.37
	l-0.48,0.85c0.41,2.23,0.98,4.33,1.8,6.2l0.26,0.12l0.09,0.47l0.74,0.93l-0.13,0.38c1.47,2.45,3.54,4.34,6.49,5.36l0.61-1.64
	l-0.19-1.4l-1.68-1.12l-0.47-1.77v-1.58l0.56-1.68l-0.47-2.23l0.47-2.05l1.02-1.68l2.23-2.42l0.47-1.02l-1.86-2.42v-1.12l0.93-1.77
	l0.84-0.47l0.93,0.09l1.3,1.3h0.93l1.3-1.4v-0.56l-1.3-0.37l-0.74-0.93l0.84-0.93l1.49-0.09l1.68,0.19l0.93,0.84l0.93,2.33
	l0.47,2.23l0.84,1.49l0.56,0.19l0.74-2.7l0.56-1.12l-0.19-1.3l-1.3-2.23l0.19-1.95l0.93-0.74l1.49,0.74l0.74-1.86l2.98-1.02
	l2.7-2.98l1.02-0.56l1.02,0.19l0.56,1.3l-0.47,0.84l-2.61,2.05l-0.56,1.02l0.37,1.12l1.4,1.12l1.68,0.37l1.3-0.19l0.93-1.68
	l0.74-2.23l0.09-1.12l0.84-1.49l-0.09-1.12l-1.95,0.19l-0.37-0.74l1.12-1.12l0.09-1.12l0.84,0.09l1.86,3.35l0.93-0.19l0.47-1.02
	v-1.4l-1.4-1.86l0.56-1.02l-0.19-2.79L69.7,135l1.4,0.19l0.93,1.95l1.3,0.56l0.93-3.35l0.93-0.84l4.19-0.56l1.12,0.09l0.09-0.56
	l-0.37-0.37l-2.79,0.09l-1.3-0.47l-0.74-0.84l0.19-1.77l-0.56-0.74l-0.37-0.74l0.37-0.74l5.12-4.47l1.49-1.02h2.23l0.37-0.19
	l0.47-1.77l0.09-1.49l-0.47-0.47l-1.02,0.19l-1.86,2.05l-3.63,2.23l-0.84,0.09l-0.37-1.95l0.56-0.93l1.3-0.09l0.37-0.74l-0.56-1.95
	l0.74-1.12l3.16-1.77l1.86-2.05l0.74-0.47l3.72-0.09l1.68-0.56l0.74,0.37l1.12-0.93l0.19-0.93l-1.12,1.02l-0.56-0.56l0.37-0.74
	l0.84-0.19l0.56,0.47l0.09-0.47l0.56,0.19l2.98-0.47l2.79-1.68l2.23-0.56l3.54,0.19l1.49-0.84l0.74-0.93l0.09-3.72l-1.02-1.68
	l-2.89-0.56l-1.49-1.12l-1.86-0.74l-2.7,0.93l-0.47-0.09l-0.47,0.09l-1.49,1.3l-1.12,1.4l-0.74,0.19l-0.47-0.56l-0.19,0.19
	l-0.09,1.02l-1.4-0.84l-0.93,0.19l-0.74,1.4l-1.86,2.89l-1.12,1.4l-0.93,0.19l-2.7-0.19l-1.49,0.09l-0.93-0.19l-0.37-0.74l-1.3-0.09
	l-0.19,1.3l-1.68,1.4l-1.12,0.37l-0.56-0.93l-1.21,0.19l-3.63,1.12l-3.82,1.77l-1.12,2.05l-1.3,0.84l-0.19,1.02l-0.84,1.95
	l-2.89,2.05l-2.23,0.93l-3.91-0.09l-1.49,0.74l-0.47,0.93l0.19,2.23l-0.19,1.3l-0.56,0.93l-5.68,2.33l-6.98,5.77l-5.03,3.26
	l-2.42,2.7l-3.13,2.79c1.21,5.95,0.95,13.92,1.87,21.03L30.33,162.46z M33.03,166.09l-0.19,0.37h-0.56l-0.56-0.37v-0.93l0.74-0.28
	l0.56,0.47V166.09z M89.34,107.54l0.65-0.37l0.93,0.37l-0.09,0.93l-0.74-0.19l-0.93,0.37l-0.93-0.19l-0.19-0.74L89.34,107.54z
	 M86.27,108.1L86.27,108.1l1.21,0.09l0.74,0.84v0.84l-0.84,0.09l-1.12-1.02V108.1h-0.09H86.27z M53.14,134.54l0.47-0.37h0.65
	l0.37,0.47l0.19,0.19l0.19,0.47l-0.37,0.19l-1.12,0.09L53.04,135L53.14,134.54z M51.65,136.77l1.02-0.74l0.93,0.37l0.19,0.74
	l-0.56,0.84l-1.02,0.93l-0.84,0.19l-0.19-1.02L51.65,136.77z M49.51,139.93l0.19-0.19l0.56,0.19l0.56,0.37l-0.19,0.84l-0.19,0.37
	l-0.56-0.19l-0.37-0.56V139.93z"/>
</svg>
