<?xml version="1.0" encoding="utf-8"?>
<!-- Generator: Adobe Illustrator 25.2.1, SVG Export Plug-In . SVG Version: 6.00 Build 0)  -->
<svg version="1.1" id="Слой_1" xmlns="http://www.w3.org/2000/svg" xmlns:xlink="http://www.w3.org/1999/xlink" x="0px" y="0px"
	 viewBox="0 0 200 200" style="enable-background:new 0 0 200 200;" xml:space="preserve">
<style type="text/css">
	.st0{fill:#FEFEE9;stroke:#646464;}
</style>
<path id="path3151" class="st0" d="M2.49,149.92l4.02-5.3l-0.64-3.05l1.29-2.89l2.57,0.16l7.39,1.45l1.29-0.48l0.64-2.25l-0.96-4.66
	l1.29-6.75l1.93,0.16l4.82,1.45l1.77-1.61l1.93-4.5l1.61-6.75l-1.45-1.77l-3.86-2.25l1.61-5.14l1.45-2.57l3.86-1.93l1.93-3.54
	L33.2,94.3l0.16-3.05l3.38,0.16l1.93,1.93l0.64,0.16l2.57-2.57l-0.8-4.98l-1.93-5.47l-2.25-3.05l-1.77,0.32L35.77,80l-6.27,5.3
	l-0.8,2.41h-5.14l-1.77-2.89l0.16-5.3l-2.41-0.8l-1.45,2.25l-1.29,0.32l-0.96,2.25l0.96,1.61l0.64,1.93L16,89l-1.45,0.16l-1.93-0.96
	l-0.48-3.38v-2.41l1.77-2.57l0.64-1.93l0.64-4.66l-2.25-0.96l-2.09-4.82l0.16-3.38l3.38-2.09l1.29-1.77l-0.16-5.47l1.45-3.54
	l2.89-1.93l1.29-1.77l-1.77-0.64l-1.45,1.45l-1.45-1.61l-0.96-3.05l1.45-1.77l-0.64-3.38l1.29-1.29l2.25,1.77l1.77-2.25l1.45-2.57
	l1.45-0.48l3.54-5.47l12.7,1.45l2.89-1.29l1.93,0.16l4.5-1.61l5.63,0.96l4.98-2.57l-1.29-2.57l9.64-0.16l5.3,0.48l1.61-0.8
	l5.63,3.05l1.93-1.45l2.09,0.96l0.32,4.98l6.91,1.29l10.45-2.25l2.89-4.02l3.05-2.57h2.57l1.77-0.64l1.61-3.05l2.41-0.96l1.45,3.21
	l0.8-1.45l1.29-3.86h2.89l5.79,7.07l-0.16,0.8l-1.45-0.32l-0.16,0.64l0.8,0.64l0.16,0.8l16.72,9.48l1.45,1.45l4.82,3.54l1.61,1.61
	l0.48,0.8l-0.64,0.96l-2.25-0.64l-1.61,0.8l-0.64,1.29l0.64,0.64l0.96,0.32l1.45,2.09l0.96,0.32l0.96,0.8l2.89,3.86l0.96,0.96
	l1.93,0.96l1.77,0.16l0.96-0.16l2.57-2.41h0.8l0.96,0.8l0.8,1.45l0.64,4.82l0.64,0.48h1.61l3.38,1.45l1.93,0.48l4.66,2.73l1.61,2.09
	l1.45,3.86l-9.48,8.2l-3.05,3.21l0.48,4.02l-0.8,0.96v0.8l0.48,0.8v1.93l-0.48,0.48l-0.16,0.96l0.16,0.64l2.09,0.64l0.8,0.96
	l2.41-0.32l3.54,1.77h0.8l0.64,0.8l0.16,1.45l1.61,0.64h0.96l0.48,0.96l1.93,1.45l0.16,1.45l-0.32,1.29l-1.77,1.29l0.96,1.61
	l1.77,1.29h2.57l1.93,1.61l1.61,0.16l0.8,0.8l3.21,0.64l-0.96,5.79l-2.25,0.8l0.48,0.64l-3.38,4.82l-4.66,3.21l-2.25,3.54
	l-0.48,2.57l-1.93,4.82l-6.43,8.84l-0.64,1.61l3.05,0.64l1.29,1.29v0.96l2.89,3.21l-1.61,1.29l-6.43,2.73l-1.45-0.16l-1.93-2.41
	l-2.89,0.96l-3.05,1.61l-2.41,2.89l-0.96,4.98l-0.64,1.29l-0.96-1.29l-1.61-0.16l-1.29,0.64l-1.29-2.57l0.64-0.96l1.93-1.61
	l0.64-0.8l-1.45-1.77l-3.21-2.41l-3.05-1.29h-0.96l-3.05,2.25l-3.54-4.5l-2.89-2.25l0.96-0.96l0.48-0.96l-0.64-0.64l-11.25,0.16
	l-2.25-0.16l-3.54-0.96l-1.77-2.09l-4.82,0.16l-8.04-0.64l0.48,12.38l-3.05,2.09l-2.89,0.96l-1.29,0.96l-3.54-0.16l-1.45,0.16
	l-1.61-2.41l-0.8-3.86l-1.29-1.77l-2.09-1.61l-1.29-1.61l-3.54-2.57l-1.45-0.8l-1.93-3.05l-1.29,1.45l-1.77-2.89l-2.41,3.21
	l-2.25,1.29l3.54,6.43l1.29-0.16l0.8,3.54l-7.39-1.61l-22.34-2.57l-0.64-1.61l0.64-1.45l-0.64-5.95l-6.27-0.96l-2.25,12.22
	l2.25,0.32l-0.8,7.72l-1.45,0.8l0.48,11.9l-1.61,0.8l-2.25-0.96l-0.16-2.09l-2.89-2.57l-0.64-3.05L34,164.07l-2.41-1.61l-4.5-0.48
	l-6.27-1.93l-1.77-3.21l-1.29-3.05l-1.61-1.61l-4.02-1.45l-4.18,0.8l-3.05-0.16L2.49,149.92"/>
</svg>
