<?xml version="1.0" encoding="utf-8"?>
<!-- Generator: Adobe Illustrator 25.2.1, SVG Export Plug-In . SVG Version: 6.00 Build 0)  -->
<svg version="1.1" id="Слой_1" xmlns="http://www.w3.org/2000/svg" xmlns:xlink="http://www.w3.org/1999/xlink" x="0px" y="0px"
	 viewBox="0 0 200 200" style="enable-background:new 0 0 200 200;" xml:space="preserve">
<style type="text/css">
	.st0{fill:#FEFEE9;stroke:#646464;}
</style>
<path id="path3155" class="st0" d="M35.1,185.47l1.14-2.18l4.04,0.62l1.24-1.86l-0.93-1.24l-3.73-2.69l-1.66-2.07l1.04-2.07
	l2.28-1.86l1.14-1.97l-1.35-2.8l-0.93-4.04l1.55-0.93l1.66,0.52l1.86-0.1l1.45-0.93l3.32,0.52l1.14-1.24l0.1-1.97l1.14-0.62
	l0.41-1.97l-0.52-4.87l1.14-1.66L50.13,149l-2.28-0.1l-1.45,0.93L45.77,152l-1.66-1.14l-1.55,0.93l-2.69-0.41v1.24l-0.93,0.41
	l-3-1.04l-0.41-1.55l1.35-1.24l0.62-1.66l1.14-2.07v-1.55l-0.21-0.1l-1.14,1.97l-0.93-0.62l-1.24-4.35l2.07-0.93l-0.1-1.97
	l0.62-0.83l1.04-0.31l4.66,0.1l1.86-0.52l-0.1-2.07l0.62-0.1l1.35,2.49l0.93,0.1l0.41-0.31l-0.93-1.55l-0.52-2.18l-1.14-1.04
	l-1.04-1.14l-1.55-2.69l-0.1-2.18l-0.83-1.45l-1.04-2.59l0.62-1.55l2.49-1.66l2.69,0.21l4.14-1.04l3.94-3.42l0.83-1.24l-2.07-2.28
	l2.18-1.04v-1.04l0.83-0.52l2.69,1.45l4.14,0.1l2.49,0.83l2.18-1.14l-0.93-2.18l1.45-1.14l1.45-0.62l0.83,0.1l1.04-1.45l1.45-0.93
	l1.24-1.45L75.4,100h1.45l0.52-4.14l1.04-3.11l1.04-0.83l1.04,0.1l-0.52-1.97l1.97-0.93l1.14,3.73l3.63,6.11l2.49-1.14l-0.62-2.07
	l1.66-0.83l1.24,2.18l2.07-0.31l3.11,0.41l2.28,0.52l3.83,0.52l1.45-2.18l-1.55-2.28l-1.14-2.49l-1.14-5.28l-1.97-1.45l-2.49-0.93
	l-2.8,0.62l-1.86-0.31l-3-0.93l-2.69-1.24l-1.45-2.18l0.1-1.86l1.55,0.93l0.41-2.28l-0.83-2.59l3.21,0.93l2.28-0.83l2.07-2.07
	l0.52-3.73l-0.83-1.24l-1.14-0.52h-0.52l-1.04-2.07l3.63-0.52l4.66-2.8l3.11-1.35l0.62,2.69l-1.04,1.45l3.11-0.83l2.28,0.1
	l1.14-1.14l1.14,1.66l0.62-1.66l1.66,0.62l-0.52-2.49l1.55-2.28l-0.52-2.18l-0.31-2.69l1.97-0.93l-0.1-1.04l-0.41-0.41l-1.66-0.1
	l0.62-1.35l0.83-3.52v-4.04l-1.66-3.42l1.45-1.14l0.1-1.04l1.24-0.1l0.83,1.14l3.11-1.76l-0.1-2.59l-1.35-1.97l0.31-0.62l1.66,0.93
	l0.52-2.07l3.21-1.04l0.41,0.52l-0.83,1.55l0.31,1.04l2.69-1.04l1.04,1.14l3.63-3.11l4.87-2.28l3.42-0.93l5.08-6.73l0.62-1.66
	l-0.52-3.11l-4.77-3.21l3.11-4.14l1.24-2.07l6.11,3.11l4.04-2.07l6.53-2.8l4.04,2.59l-6.42,7.36l4.25,3.21l2.07,1.66l1.66,2.49
	l-0.52,1.14l-2.59,0.1l-1.14,0.93l0.52,1.66l-0.31,1.97l0.83,2.07l0.62,0.31l2.69,0.1l-3.11,5.9l-2.28-2.18l-1.66-1.14l-1.55-0.41
	l-2.07,2.49l-1.04,1.97l-0.83,3.11l-1.55,4.25l-1.66,2.07l-1.45-0.62l-0.21-1.14l-0.52,0.52l-1.14-0.1l-1.45-1.04l-2.28-1.04
	l-0.62,1.86v1.45l-0.93,0.93l-0.52,3.21l0.83,1.04l-0.41,2.49l-0.93,1.86l-0.31,1.97l-1.14,2.07l6.53,6.11l1.14,1.55l-1.66,1.04
	l-2.28-0.1l-1.04,0.52v1.14l3,1.45l-0.31,2.07l-3,3.11l-3.11,5.08l-1.04,3.42l-0.1,4.14l1.55,7.36l2.59,5.7l2.07,3l3.94,7.36
	l1.04-0.93l0.31-1.97l4.66-2.18l1.66,0.62l1.14,1.45l2.69-0.1l0.31,1.24l-0.1,2.59l-1.14,0.31v6.32l0.31,2.18l-1.24,1.55l0.62,1.66
	l0.41,2.07l-0.1,1.97l-0.62,1.97l0.31,2.07l-0.41,1.55l1.86,1.45l1.24,0.41v1.66l-1.14,0.62l-1.04,1.55l-0.21,4.66l-1.86,4.25
	l-1.86-0.1l-0.62,1.66l1.24,0.62l-1.55,1.45l-1.55,1.04l-2.07,4.14l2.07,1.55l3,7.67l0.21,0.93l-1.76,1.45l0.41,2.28l-1.66,0.83
	l-0.21,0.41l0.41,0.83l0.21,3.11l-1.66,1.14l-1.24,0.41l-0.52,0.52l-0.62,2.8l-0.41,0.52l-0.52,0.21h-1.24l-0.41,0.31l-0.41,2.07
	l-1.14,0.41l-0.83,0.52l-0.41,0.62v0.83l-0.83,0.93l0.52,0.62l1.04-0.62l1.45,2.07l1.04,1.97l0.83,0.1l-1.76,1.66l-1.14,0.52
	l-3.73-4.56h-1.86l-0.83,2.49l-0.52,0.93l-0.93-2.07l-1.55,0.62l-1.04,1.97l-1.14,0.41h-1.66l-1.97,1.66l-1.86,2.59L118.6,198
	l-4.45-0.83l-0.21-3.21l-1.35-0.62l-1.24,0.93l-3.63-1.97l-1.04,0.52l-4.77-0.31l-4.77,0.1l0.83,1.66l-3.21,1.66l-3.63-0.62
	l-2.9,1.04l-1.24-0.1l-1.86,0.83l-8.18-0.93l-4.35-0.62l-3.42-0.1l-1.66,0.83h-2.18l-1.04-0.52v-5.39l1.04-5.8l-5.39-1.24
	l-3.11,1.76l-2.49,0.83l-1.45-0.52l-1.55,0.1l-1.86,1.55v1.04l0.93,1.04l0.1,0.52l-0.52,1.24l-1.04-0.41l-1.66-1.14l-1.97-0.21
	l-0.1,1.76l-1.14,2.07l-0.52,0.41l-1.14-0.62l0.41-1.97l-0.31-3.11l-0.41,0.41l-2.28,4.04l-1.14,0.93l-1.45-0.31l-0.41-1.66
	l-0.1-1.86l-0.83-1.14L35.1,185.47"/>
</svg>
