<?xml version="1.0" encoding="utf-8"?>
<!-- Generator: Adobe Illustrator 25.2.1, SVG Export Plug-In . SVG Version: 6.00 Build 0)  -->
<svg version="1.1" id="Слой_1" xmlns="http://www.w3.org/2000/svg" xmlns:xlink="http://www.w3.org/1999/xlink" x="0px" y="0px"
	 viewBox="0 0 200 200" style="enable-background:new 0 0 200 200;" xml:space="preserve">
<style type="text/css">
	.st0{fill:#FEFEE9;stroke:#646464;}
</style>
<path id="path3159" class="st0" d="M2,100.23l5.14,2.27l15.71,0.45l1.81-2.72L23,96.15l-5.59,0.15v-2.27l-2.11-2.11l1.96-0.76
	l1.36,0.15l4.98-1.21l3.63-5.89l-1.81-1.36l-3.02,3.02l-1.51-0.15l2.42-2.72l0.15-2.87l-1.81,1.51l-0.15-2.27l1.81-2.87l3.32-1.66
	l-0.15-2.87l-2.11-2.11l1.21-1.66l4.98-0.91l3.93-0.15l3.02-2.87l-2.87-1.51L31,63.67l-1.06-0.45l-2.11-3.78l7.25-2.42l1.36-3.78
	l-1.36-1.66l-2.11-0.15l1.66-3.78l1.66-5.14l-4.53-15.56l3.17-2.57l5.44,14.35v2.87l3.78,1.06l5.89-0.91h2.42l4.08,1.36l3.32,3.17
	l4.53-2.11v3.63l-1.66,1.81l0.6,1.66l1.36,2.27l0.15,9.06l1.36-0.76l0.91-1.66l4.08-0.15l2.87-3.02l6.8-1.66l3.32-1.81l3.17-0.91
	l0.6,2.11l2.57-1.06l1.96-0.15l-0.45-2.87l0.91-2.11h3.78l1.66-1.36l1.96-3.63l1.81-1.36l2.72-0.76l3.02-4.38l3.63-4.38l2.42-1.66
	l3.02-0.6l5.14,0.76l2.11-0.15l1.06-2.11l-0.45-3.93l3.02-3.63l1.36-0.6l3.02,1.96l1.36-0.76l2.11,0.91l-0.91,3.02l2.72,3.78
	l2.87,1.66l4.08,0.45l3.63,1.81l0.3,2.72l1.51-1.36l-0.15-3.17l-0.91-3.32l1.51-6.04l2.57,0.45l1.36-2.87l3.02-1.06l0.6-2.87
	l7.25,1.06l-0.45,3.93l2.27,1.21l-0.45,4.53l-2.27,2.87l0.6,3.32l-0.6,3.17l-0.15,6.19l-1.81,0.15l-2.11-0.15l0.15,2.87l-5.14,1.66
	l-2.42-2.11h-3.63l-1.51-0.6l-2.72,1.36l-5.29-1.21l3.02,2.87l4.68,0.91l-0.15,1.21l-1.81,0.3l-3.32-0.15l-0.91,2.27l1.36,1.21
	l2.87-0.6h4.68l4.38,0.45l3.93,5.89l8.46,4.53l1.66,2.42l-2.72,1.51l-4.53,1.81l-0.6,2.87l1.66,2.72l0.6,2.42l0.76,11.48l6.04-2.27
	l-2.27-4.98l0.45-3.63l2.42,0.15l1.81,2.27l1.51,5.89l3.93,6.19l1.66,2.11l-0.91,3.02l0.6,1.36l-0.15,5.89l-3.02,2.11l-0.76,1.81
	l2.72,0.91l7.25-0.45l-0.91-2.87h1.36l4.53,6.34v3.32h-1.36l-1.66-2.27l-3.02-0.91l-1.81,1.36l-0.76,1.66l1.21,3.93l-0.91,0.6
	l1.21,0.91l-2.72,2.11l3.78,3.32l1.66,4.23l-1.96,0.76l-1.21-1.21l-0.91,1.21l1.36,2.87l1.36-0.45l-0.76,2.27l-1.51,1.51l-0.76,1.36
	l0.15,3.02l1.66,0.3l0.15,2.11l1.36,1.21l3.17-2.87l1.21,2.11l-1.36,3.78l1.51,1.66l-0.15,3.02l3.78,4.83l0.15,3.17l0.91,0.6
	l0.45,4.08l1.36,0.76l1.21,3.02l-1.36,2.11l1.66,0.15l-0.45,1.81l-6.95,2.87v5.14l-0.45-0.6l-3.63,1.21l-2.27,0.15l-3.02-0.76
	l-3.78,1.51l-1.81-1.66l-1.36-6.34v-3.78l-0.91-3.32l-3.02-6.19l-2.11,4.68l-7.4,3.78l-1.66,2.72l0.15,2.11l-3.78,0.91l-0.91-1.51
	l-2.87-0.15l-1.96,1.51l-3.93-6.8l-0.76-0.76l-0.6-4.38l1.81-1.66l-0.3-6.04h-5.14l-5.14,1.66l-0.6-0.6l-0.6-3.02l-2.11,0.3
	l-3.32,4.53l1.36,1.36l-3.78,3.93l-3.02,2.87l-0.76,1.21l-0.45-3.63l0.15-2.27l1.66-1.81l-0.15-3.17l-0.6-2.42l0.15-0.45l-9.67-0.6
	h-4.53l-7.85-1.66l-2.42-2.11l-5.29,4.83l-4.68-0.6l-0.91,1.96l-0.15,3.02h-4.38l-3.93-2.11l-1.51,2.11h-2.11l-5.14,10.88
	l-10.72,0.15l-11.33-0.45l-2.27-2.87l-0.3-1.51l-1.36-1.66l1.51-0.6l2.42,2.11l2.87,0.91l5.59,0.6l3.63,1.21l1.66-0.15l-6.04-5.14
	l-1.21-0.6l-5.89,1.36l-1.66-0.76l-3.78-0.91l-1.81-1.51l0.3-1.21l2.42-0.45l-0.6-1.66l-3.32,0.91l-4.23,0.6l-1.51-1.21v-3.02
	l0.91-3.63l-1.36-3.78l-1.66-6.49l-2.42-3.02l-3.32-1.21v-5.44h-0.45l0.76-5.14l-1.36-0.76h-6.19l-7.25-2.87l0.45-4.98l-0.45-1.36
	l-6.19,3.32L2,100.23"/>
</svg>
