<?xml version="1.0" encoding="utf-8"?>
<!-- Generator: Adobe Illustrator 25.2.1, SVG Export Plug-In . SVG Version: 6.00 Build 0)  -->
<svg version="1.1" id="Слой_1" xmlns="http://www.w3.org/2000/svg" xmlns:xlink="http://www.w3.org/1999/xlink" x="0px" y="0px"
	 viewBox="0 0 200 200" style="enable-background:new 0 0 200 200;" xml:space="preserve">
<style type="text/css">
	.st0{fill:#FEFEE9;stroke:#646464;}
</style>
<path id="path3149" class="st0" d="M3,127.92l0.5-1.49v-1.99l0.66-1.33v-1.33l0.66-0.5l0.33-1.83L3.5,116.3l1.83-1.33l1.99-3.48
	v-4.31l0.83-3.32h3.65l3.49,2.99l0.5-0.17l1-1.66l1.66-1.66l0.17-4.81l21.74-5.48l-0.83-7.3l-2.99-0.83l0.83-0.17l0.66-0.83
	l0.33-1.83h1l1.66-1l0.66-1.83l1.66-0.17l1.83,0.17l2.66-2.66l-0.83-12.28l1-6.64V54.4l2.49-2.66l-0.5-0.83l-1.99,0.66l-1.99-1
	l-1.33,1l-1.83-1l-1.66-2.49l-1.83-0.83l-0.66-1.33l-0.83-6.64l-1.66-5.14l0.66-1.99l-2.49-1.49l-2.32-5.81l-0.83-0.17l-1.66,0.17
	l-0.33-0.83l-0.5,0.66h-0.17l-0.17-2.32l-1-1.49v-2.49l-1.83-0.17l0.17-0.66l1.83-0.66l2.99-2.66l1.33-0.66l1.66-2.99l3.65,3.48
	l2.16,0.66l2.32-1.99l0.5-3.32l5.81,2.99l5.48,2.32h4.31l8.96,3.15l3.15-1.83l2.49,2.32l-0.66,2.66l1.49,0.33l3.65,2.99l4.31,2.66
	l3.32,0.83l1-1.83l-0.83-2.16l0.66-1.66l-0.17-4.31l6.14-0.17l1.83-5.14l5.48,1.66l2.82,0.17l13.61-0.83l3.49,0.17l4.98,1l0.83,2.66
	l-0.83,2.66h-1l-1.66,0.83l-2.49,2.32l-2.66,0.83l-0.17,3.65l1.66,2.66l1-1.99l2.66,1.66l0.17,3.65l1.16,2.66l1.49,1l1.83-1
	l1.66-6.47l1.33-3.15l1.83,2.99l0.66,5.14l1.99-1.83l4.31-1.66l3.65-2.16l-1,4.98l-3.49,1.83l-1,3.98l5.64,3.15l-2.49,7.3
	l-1.83,0.66l-1.66-0.83l-1-2.32l-3.15-1.83l-1.16-0.17v1.66l1.49,5.14l-0.66,4.15l-1.66,1.66l-2.32-0.66l-3.65-3.48l-1,1l1.66,2.32
	l1.66,6.31h1.83l1.66-1l1.83,2.32l-1,3.65l-2.82,0.83l-0.83,1.83l0.17,4.31h-2.32l-2.32-6.31L120,68.84l-1.33,0.33l0.17,7.3
	l2.66,0.5l0.33,1.99l-2.32,1l1.83,1.99l-1.83,10.46l0.66,0.17l1.99-0.5l1.99,9.79l-2.32,3.15l0.33,7.63l2.16,0.66l2.82-1.49
	l-1.33-5.14l1.49,0.17l4.48,5.81l4.15,8.63l4.81-1.66l6.14,1.83l0.17-2.49l2.49-1.33l5.14,1.66l10.79,4.98l4.81,5.64l2.99-1.33
	l1.66,2.99l0.17,1.83l3.15,0.17l4.31,2.66l3.98,1.66l-0.17,5.48l-1-0.5v2.66l2.32,1.49l-0.17,2.49l5.14-0.17l4.31,1.49l-2.99,1.99
	h-0.66l-0.83-0.66l-0.66,1l-1.33-1.66l-3.32,2.66h-1.33l-13.61,9.29l-4.48,0.66l-11.62-5.14l-3.65,1.33l-28.54,5.97l0.17,1.99
	l-1.83-0.33l0.33-0.5l0,0l-1,0.17l-1-0.33l-0.5-1l0.17-1.66l-0.5-0.66l-1,0.83l-0.33-0.83l0.17-1l-0.5-0.83l-1.66-1l-6.64,10.29
	l-2.32-2.32v-1.66l0.5-0.83l-3.32-0.17l-0.66,1l0.83,1.49l-8.13-2.49l0.17-1.99l0.66-1.49l-0.17-1.66l1.49-1.49l-1-1.66h1.66
	l2.99-1.83l-0.66-0.83l-1.66,1.66l-1.66,0.17l-1.33-0.66l-0.17-0.83l2.32-2.32l0.17-1.33l-1.33-0.17l0.5-2.49l-2.32,1l-0.17,2.66
	l-1.49,2.32l-3.15-1.33h-0.66l-4.15,1.99l-8.46,0.66l-2.99-1.33l-0.66,1.33l-1.66,0.83l1,7.63l-0.83,0.83l-0.17,1.66l0.66,1.49
	l-0.83,6.31l-2.49-0.17l-0.66,2.32l-1.49-0.66l-0.83-2.49l-0.5-3.65l0.66-1l-0.17-2.66l1-0.83l0.5-2.66l0.66-0.83v-3.15l-1.99-1.83
	l-1.49-2.66l-1.66-0.33l-1.66,0.66l-1.99,1.33l-2.66,2.66l-1.83-2.66l-2.66-1.33l-0.83-1.49l0.5-3.32l1-0.33l0.5-3.32l-0.5-1.99
	v-5.14l-0.33-2.49l-2.66-6.64l-6.8,1.83l-3.98,3.15l-0.66,1.83l-1.16,1l-3.49-0.17l-1-1.99l-0.83-0.5l-1,0.66l-0.5,2.16l-2.66,1
	l-1.49-0.33l-1.16,0.17l-0.17,1.33l-1-0.17l-4.31,0.83l-4.15-1l-1.83,0.5l-1.66-0.83l0.17,5.31L12.13,149l-7.63-6.64l-0.17-8.63
	l0.83-0.66l-1.33-2.32L3,127.92"/>
</svg>
