<?xml version="1.0" encoding="utf-8"?>
<!-- Generator: Adobe Illustrator 25.2.1, SVG Export Plug-In . SVG Version: 6.00 Build 0)  -->
<svg version="1.1" id="Слой_1" xmlns="http://www.w3.org/2000/svg" xmlns:xlink="http://www.w3.org/1999/xlink" x="0px" y="0px"
	 viewBox="0 0 200 200" style="enable-background:new 0 0 200 200;" xml:space="preserve">
<style type="text/css">
	.st0{fill:#FEFEE9;stroke:#646464;}
</style>
<path id="path3161" class="st0" d="M1,118.74l1.92-0.36l1.68-1.2l1.08-1.68l1.08-0.96l1.08-0.12l1.08-1.08l-1.32-1.92l0.48-2.28
	L7,107.47l0.36-1.32l-1.08-1.44H4.36l-0.48-0.36l-0.84-1.44l0.12-1.32l-0.36-1.32l3.6-1.44v-1.56l1.92-1.44l0.36,0.6l1.44,1.08
	l1.2-1.92l2.4-1.32l6.47-2.52l1.2-1.92l1.2,2.28l0.96-0.6l1.32-0.48l0.12-1.08l1.56-0.36l1.2-1.44l1.32-1.2l-0.48-1.08l0.48-1.32
	l-0.48-1.92l-1.68-1.92l-0.72-2.4l4.68-2.4l2.88-2.52h-1.08l-0.72-1.68l6.83-2.88l2.28-2.28l1.8-1.56l1.32-2.28l1.32-3.24l-1.8-2.52
	L45,56.87l0.6-1.92l0.72-4.08l3.48-0.12l2.88,0.6l1.08-3.6l2.64-1.32l1.56-2.16l1.32-3.24l-0.48-5.28l0.6-4.68l-1.44-3.12l1.08-2.16
	l-0.6-2.88l-5.16-0.12l4.08-8.63h1.56l1.2-1.68l3.12,1.68h3.48l0.12-2.4l0.72-1.56l3.72,0.48l4.2-3.84l1.92,1.68l6.23,1.32
	l8.99,0.36l2.52,0.12L95,10.71l0.48,1.92l0.12,2.52l-1.32,1.44l-0.12,1.8l0.36,2.88l0.6-0.96l2.4-2.28l3-3.12l-1.08-1.08l2.64-3.6
	l1.68-0.24l0.48,2.4l0.48,0.48l4.08-1.32h4.08l0.24,4.8l-1.44,1.32l0.48,3.48l0.6,0.6l3.12,5.4l1.56-1.2l2.28,0.12l0.72,1.2l3-0.72
	l-0.12-1.68l1.32-2.16l5.88-3l1.68-3.72l2.4,4.92l0.72,2.64v3l1.08,5.04l1.44,1.32l3-1.2l2.4,0.6l1.8-0.12l2.88-0.96l0.48,0.6
	l3.12,2.28h1.56l0.12-1.68h2.4l1.32,2.16l1.68-0.36l1.44,1.08l1.2,0.48l0.12-2.52l1.56-0.72l0.72,3l1.08,1.32l5.04,0.72v2.28h0.96
	l0.96,0.48l0.48,2.88l1.92,0.12l2.52,2.28l0.96,3l-0.48,2.64l-1.8-1.08l-0.12,2.16l1.68,2.52l3.12,1.44l3.48,1.08l2.16,0.36
	l3.24-0.72l2.88,1.08l2.28,1.68l1.32,6.11l1.32,2.88l1.8,2.64l-1.68,2.52l-4.44-0.6l-2.64-0.6l-3.6-0.48l-2.4,0.36l-1.44-2.52
	l-1.92,0.96l0.72,2.4l-2.88,1.32l-4.2-7.07l-1.32-4.32l-2.28,1.08l0.6,2.28l-1.2-0.12l-1.2,0.96l-1.2,3.6l-0.6,4.8h-1.68l-0.48,1.92
	l-1.44,1.68l-1.68,1.08l-1.2,1.68l-0.96-0.12l-1.68,0.72l-1.68,1.32l1.08,2.52l-2.52,1.32l-2.88-0.96l-4.8-0.12l-3.12-1.68
	l-0.96,0.6v1.2l-2.52,1.2l2.4,2.64l-0.96,1.44l-4.56,3.96l-4.8,1.2l-3.12-0.24l-2.88,1.92l-0.72,1.8l1.2,3l0.96,1.68l0.12,2.52
	l1.8,3.12l1.2,1.32l1.32,1.2l0.6,2.52l1.08,1.8l-0.48,0.36l-1.08-0.12l-1.56-2.88l-0.72,0.12l0.12,2.4l-2.16,0.6l-5.4-0.12
	l-1.2,0.36l-0.72,0.96l0.12,2.28l-2.4,1.08l1.44,5.04l1.08,0.72l1.32-2.28l0.24,0.12v1.8l-1.32,2.4l-0.72,1.92l-1.56,1.44l0.48,1.8
	l3.48,1.2l1.08-0.48v-1.44l3.12,0.48l1.8-1.08l1.92,1.32l0.72-2.52l1.68-1.08l2.64,0.12l0.6,1.2l-1.32,1.92l0.6,5.64l-0.48,2.28
	l-1.32,0.72l-0.12,2.28l-1.32,1.44l-3.84-0.6l-1.68,1.08l-2.16,0.12l-1.92-0.6l-1.8,1.08l1.08,4.68l1.56,3.24l-1.32,2.28l-2.64,2.16
	l-1.2,2.4l1.92,2.4l4.32,3.12l1.08,1.44l-1.44,2.16l-4.68-0.72l-1.32,2.52l-1.32,1.68l-1.32,1.2l-2.4,0.48l-0.72,1.92l-1.2,0.36
	l-1.32-1.44l-0.12-1.32l-4.08-1.08l-0.84-1.08l-2.28,1.32l-1.68-0.48l-1.32,1.44v1.2l-0.96,1.32v0.96l1.32,2.16l0.6,1.68l1.32,2.16
	l-0.6,1.32l-1.2,0.36l-1.44-0.96l-1.2-2.16l-1.32-3.12l2.28-8.39l-0.96-1.32l-0.12-2.88l1.2-1.44l-0.6-1.8l-4.8,1.68l-0.36,2.52
	h-1.08l-0.72-2.88l-1.8-0.96l-2.52,0.48l-2.64,1.92l-0.48,1.68l1.68,3.6l0.48,3l0.96,1.8l1.44,1.8l0.36,1.32l-1.68,0.96l-3.48-2.52
	l-1.68-0.96l-1.2-1.68l0.36-1.68l-1.32-1.68l-1.44-0.48l-1.8,4.8l-1.8-1.92l-7.91,4.44l-1.32-3.48l-3.72-1.2h-7.91l-7.19,2.64
	l0.48,1.44l-3.48,0.96l0.6-7.79l-17.39-1.2l-2.52-1.44l-2.28-0.36l-0.48-0.72v-2.28l-4.08-4.56l-0.6,1.56l-0.48,0.24l-0.84-0.12
	l-0.72-2.28l-1.2,0.6l-0.12-0.48l0.72-2.28l-0.72-1.08l-0.12-2.64l-4.92,0.36l-2.16-1.92l0.48-1.44v-1.08l-0.96-0.72l-0.6-1.2H4.84
	l-0.6-3.6l0.12-1.92l1.08-2.52l-1.2,0.96l-2.16-0.24l0.72-0.12l0.36-1.68l0.6-1.32l2.52-1.08l-0.36,1.32l0.12,0.6l2.88-1.68
	l0.96-0.96l3.24,1.08l0.96-1.08l0.36-6.83l-2.64-0.6l-2.64-6.23l-2.28-1.32l-0.36,1.2l-1.44-0.96l0.6-0.96l-0.48-1.08H2.92L1,118.74
	"/>
</svg>
