<?xml version="1.0" encoding="utf-8"?>
<!-- Generator: Adobe Illustrator 25.2.1, SVG Export Plug-In . SVG Version: 6.00 Build 0)  -->
<svg version="1.1" id="Слой_1" xmlns="http://www.w3.org/2000/svg" xmlns:xlink="http://www.w3.org/1999/xlink" x="0px" y="0px"
	 viewBox="0 0 200 200" style="enable-background:new 0 0 200 200;" xml:space="preserve">
<style type="text/css">
	.st0{fill:#FEFEE9;stroke:#646464;}
	.st1{fill:#C6ECFF;stroke:#0978AB;stroke-width:0.5;}
</style>
<polygon class="st0" points="-20.47,7.24 -20.45,7.26 -20.17,7.24 "/>
<polygon class="st1" points="117.72,-13.11 117.62,-13.11 117.72,-13.1 "/>
<path id="path3023" class="st0" d="M53.77,112.45l0.11-4.28l1.07-3.53l3.21-5.24l3.1-3.21l0.32-2.14l-3.1-1.5v-1.18l1.07-0.53
	l2.35,0.11l1.71-1.07l-1.18-1.6l-6.74-6.31l1.18-2.14l0.32-2.03l0.96-1.92l0.43-2.57l-0.86-1.07l0.53-3.32l0.96-1.18v-1.5l0.64-1.92
	l2.35,1.07l1.5,1.07l1.18,0.11l0.53-0.53l0.21,1.18l1.5,0.64l1.71-2.14l1.6-4.38l0.86-3.21l1.07-2.03l2.14-2.57l1.6,0.43l1.71,1.18
	l2.35,2.25l3.21-6.1l-2.78-0.11l-0.64-0.32l-0.86-2.14l0.32-2.03l-0.53-1.71l1.18-0.96l2.67-0.11l0.53-1.18l-1.71-2.57l-4.28-3.42
	l-2.25-1.6l6.63-7.59l-4.17-2.67l0.11-4.49l3.85-1.5l1.5-0.32l1.5-1.6l0.96-1.82l1.71-1.92l1.28-0.64l1.5-1.5l0.64-0.96l1.28,0.11
	l0.53-1.92l1.92-0.32V7.12h0.53V6.37l0.86-2.67l0.64,0.21l-0.11,1.92l3.21,1.18l-0.32,1.5l-1.07,2.57l2.67,2.78v0.96l-1.28,1.92
	l-1.92,0.43l0.96,1.71l1.39,1.39l1.71-1.07l0.96-0.86v-1.18l3.53-0.53l2.35,1.28l0.53-0.64v-3.96l1.39,0.43l2.14,2.35l1.71,0.11
	l-1.5,2.14v3.32l-1.18-0.43l1.18,3.21l5.56,0.32l1.28,3.1l-1.92-0.11l0.53,2.35h3.42l-0.21,3.32l-3.53-0.32l-0.86,8.66l12.83,1.5
	l-0.86,3.32l2.03-0.32l-1.28,5.35l2.67,0.96l1.07,4.06l0.64,0.21l1.07-1.5l-0.11-2.03l5.77,0.11l1.39,1.92l2.14-3.32l2.57,6.95
	l2.03,2.57l0.86,7.59l-0.53,3.96l0.86,1.07l-0.53,1.82l-1.5-0.43l-0.53,3.32l1.18,2.35l-0.32,1.6l-3.74,0.21l0.53,1.6l2.03,2.14
	l0.86,0.53l2.57-0.96l1.18,1.5l-1.5,1.6l0.96,1.39h1.5l1.07,0.53l-1.82,6.1l-0.43-0.21l-0.53,0.21l-0.64,0.96l-1.92,1.71l2.03,1.5
	l0.11,0.43l-0.11,1.07l1.07,1.18l0.64,1.18h-1.82v0.32l0.43,0.32h0.43l0.21,0.43v1.07l1.5,0.11l0.43-1.5l0.43-0.32l2.25,1.18
	l0.86,0.11l0.21,0.53l-1.07,2.78l0.11,0.32l0.32,0.11l0.21,0.43l-0.11,1.07l-0.64,0.64l-0.96,0.11l0.11,1.28l-0.21,0.96v1.5
	l-0.43,0.96l-0.53,0.32l-0.21,0.43v0.64l1.18,1.71l2.14,0.96v0.53l-0.43,0.53l0.53,0.86l-0.43,0.64l-0.86,0.64l0.32,0.64l3.1,0.53
	l0.53,0.43l-5.35,4.81l-0.64,0.32l-0.96-0.86l-0.96-0.32l-0.21,1.18l-0.86,0.53l-0.96,0.11l-1.28-0.86l-1.07-1.07l-0.11,0.53
	l-0.43,0.21l-2.03,0.11l-0.86-0.53l-0.32-0.43v-0.96l-1.18,0.32l-2.78-0.64l0.43,1.71l-0.21,0.32v0.64l-0.32,0.43l-0.43,0.11
	l-2.35-0.86l-0.11,0.64l0.43,0.53l0.64,0.43l0.53,0.86l0.96,0.11l0.11,0.32l-0.11,0.32l-0.43-0.11l-0.32,0.32l0.32,0.43l1.5-0.32
	l0.11,0.53l-0.11,3.32l-0.43,0.32h-0.43l-0.64-1.18l-1.07,0.11l-0.86-1.5l-1.18-1.07l0.11-0.32l0.64-0.53l-0.11-0.43l-0.64-0.53
	l-0.21-1.18l-0.43-0.86h-0.43l-0.43,0.64l-1.18-0.96l-0.43,1.82l-1.07,0.53l-2.67-2.14l-0.64-1.18l-1.6,13.26l1.28,2.14v0.96
	l-0.32,0.64l2.25,0.64l0.53,0.53l1.18,0.86l1.92,0.43l0.64,0.43l1.71,0.21l-0.32,0.53l0.32,4.06l1.71-0.64l2.67,0.32l2.57-0.11
	l0.11,0.86l0.43,0.53l0.86,0.43l1.18-0.11l0.53-1.18l0.53-0.53l0.43,1.18l0.32,0.32h0.64l-0.32,0.53l-0.11,1.07l0.11,0.53l0.53,0.11
	l-0.86,0.53l-0.53,0.64l-0.43,1.07l-1.07-0.43v-0.53l-0.21-0.43l-3.32-1.92l-1.07-0.43v-0.53l-0.43-0.32l-0.43,0.11l-0.32,0.43
	l-1.5-0.53l-0.21,1.28h-0.43v0.43l-0.96,0.32l-0.21,0.53h0.96l-0.96,3.53l-0.86-0.43l-0.43-0.43h-1.07v0.64l-1.18,2.35l-0.96,2.67
	v0.53l0.53,1.6l-0.43,4.06l-0.43,1.71l-0.11,3.74l0.21,0.86h0.86l-0.64,2.35l-0.53,0.53l-0.96,0.53l-1.18,0.11l-1.07,0.43
	l-2.14-0.86l-0.43-0.43l-0.43-0.11v0.32l-0.64,0.43l-0.11-0.43l0.11-0.11l0.32,0.11l0.43-0.53l1.07-0.11l0.11-0.43l-0.11-0.32h-0.43
	l-0.11,1.39l-0.96-0.21l-1.6,2.03l-1.18-1.39l-0.43-0.96l-0.53-0.11l-0.43,0.11l-0.43,0.43l-0.53,1.71l-1.92,3.53l-0.43,0.11
	l-0.53-0.43l-0.43-1.07l-0.43-0.43h-0.64l-0.53-0.32l-0.64-1.6l0.32-0.53l-0.64-0.11l-1.18,0.96l-0.86,2.14h-0.43l-0.53-0.43
	l-0.11-0.43l0.32-0.43l1.92-1.28l0.43-1.39l-0.32-0.43h-0.53l-0.53,0.64l-1.07-0.86l0.53-1.18l-0.43-0.11l-0.86,0.11l-0.43-0.43
	l-0.32-1.18l-0.64-0.43l-0.32-0.64h-3.1l-0.53,0.64h-0.32l-0.43-0.64l-3.21,2.67l-0.53-0.53h-0.32l-0.21,0.43l-0.96,0.64l-0.21,0.43
	l0.11,1.07l-0.32,1.18l1.18,0.43l0.11,0.86l-1.07-0.11l-1.71-0.96l-1.5,0.86l-2.25,0.32l-0.43-0.43v-0.53l0.64-0.53l-0.11-1.6
	l0.53-2.03l-1.92-0.96l-2.03,0.64l-0.43,0.96l-0.11,0.86l-0.53,0.53l-0.53-0.11v-0.53l-0.96-0.32l-1.71-1.07l-0.64-0.11l-0.53,0.32
	L82,182.81l-0.64-0.11l-3.74,1.18l-1.18,0.11l-1.6-0.32l-0.64,0.86l-0.43,1.18l0.43,0.96l-1.5,1.18l0.11,2.14l0.53,1.07l3.21,0.21
	l0.43,0.32l0.11,0.43l-2.25,3.74l-1.6,2.25l-0.32-0.11l-1.28-3.64l-0.32,0.11l-1.6-4.71L68,185.49l-2.14-1.6l2.14-4.28l1.6-1.07
	l1.6-1.5l-1.28-0.64l0.64-1.71l1.92,0.11l1.92-4.38l0.21-4.81l1.07-1.6l1.18-0.64v-1.71l-1.28-0.43l-1.92-1.5l0.43-1.6l-0.32-2.14
	l0.64-2.03l0.11-2.03l-0.43-2.14l-0.64-1.71l1.28-1.6l-0.32-2.25v-6.52l1.18-0.32l0.11-2.67l-0.32-1.28l-2.78,0.11l-1.18-1.5
	l-1.71-0.64l-4.81,2.25l-0.32,2.03l-1.07,0.96l-4.06-7.59l-2.14-3.1l-2.67-5.88L53.77,112.45"/>
</svg>
