<?xml version="1.0" encoding="utf-8"?>
<!-- Generator: Adobe Illustrator 25.2.1, SVG Export Plug-In . SVG Version: 6.00 Build 0)  -->
<svg version="1.1" id="Слой_1" xmlns="http://www.w3.org/2000/svg" xmlns:xlink="http://www.w3.org/1999/xlink" x="0px" y="0px"
	 viewBox="0 0 200 200" style="enable-background:new 0 0 200 200;" xml:space="preserve">
<style type="text/css">
	.st0{fill:#FEFEE9;stroke:#646464;}
</style>
<path class="st0" d="M195.36,79.07l-0.71-1.6l-6.06,1.6l-8.91,3.57l-0.59-0.61l-0.48-3.32l0.36-1.97l0.48-1.23l1.78-2.34l0.59-1.97
	l-1.31-0.12l-1.19-1.11l-1.9,0.12l-0.59,1.48l-3.57-1.97l0.12-1.48l0.59-0.37h0.95l0.48-0.37l0.48-1.11l0.48-3.81l0.48-1.35
	l0.95-1.6l2.85-6.88l0.36-2.09l-1.31-0.74l-7.01-1.48l1.19-2.34l-14.74,1.11l-4.63,19.91l-5.47-1.23l1.66-7.25l-2.97-1.72l0.59-1.48
	l-0.59-0.49h-0.59l-0.36,1.23l-1.31,1.97l-0.12,0.98l-3.92-3.69l-0.59,0.74l-1.19,0.98l-4.75,2.09l-1.07-0.12l-1.43-1.84l-2.14,0.74
	l-2.26,1.23l-1.78,2.21l-0.71,3.81l-0.48,0.98l-0.71-0.98l-1.19-0.12l-0.95,0.49l-0.95-1.97l0.48-0.74l1.43-1.23l0.48-0.61
	l-1.07-1.35l-2.38-1.84l-2.26-0.98h-0.71l-2.26,1.72l-2.61-3.44l-2.14-1.72l0.71-0.74l0.36-0.74l-0.48-0.49l-1.78,0.12l-8.2-0.12
	l-2.61-0.74l-1.31-1.6l-3.57,0.12l-5.94-0.49l0.36,9.47l-2.26,1.6l-2.14,0.74l-0.95,0.74l-2.61-0.12l-1.07,0.12l-1.19-1.84
	l-0.59-2.95l-0.95-1.35l-1.54-1.23l-0.95-1.23l-1.07-0.98l-2.61-1.72l-1.43-2.34l-0.95,1.11l-1.31-2.21l-1.78,2.46l-1.66,0.98
	l2.61,4.92l0.95-0.12l0.59,2.7l-5.47-1.23l-16.52-1.97l-0.48-1.23l0.48-1.11l-0.48-4.55l-4.63-0.74l-1.66,9.34l1.66,0.25l-0.59,5.9
	l-1.07,0.61l0.36,9.1l-1.19,0.61l-1.66-0.74l-0.12-1.6l-2.14-1.97l-0.48-2.34l-1.19-1.72l-1.78-1.23l-3.33-0.37L21.85,61l-1.31-2.46
	l-0.95-2.34l-1.19-1.23l-2.97-1.11l-3.09,0.61l-2.26-0.12l-2.5-0.74l-1.31,0.98l-0.36,2.58l-1.66-0.74l-0.36,2.46L2.6,60.38
	l0.24,2.09l1.19,0.49l1.78-0.61l1.43,0.37l6.18-2.34l0.48,1.72l0.71,0.74l0.36,0.74l-0.59,0.25l-0.48,1.11l1.07,1.97l4.16-0.61
	v-1.84L18.4,62.6l1.07-0.49l0.48,1.23l1.07,0.12v2.7l1.9,5.16l1.54-0.98l-0.59-2.95l-1.07-1.35l0.12-1.11l1.9,1.11l1.07,3.07
	l0.59,1.11l0.12,1.72l-1.9,2.46l-0.12,0.98l2.61,3.2l1.07-1.11h0.95v2.46l-1.19,5.16l3.8,2.34l3.92-0.12l4.04-1.23l0.12-4.43
	l4.75-0.12l2.97,2.95l1.78-0.49l5.82,18.19l-0.71,3.93l-3.45,1.35l-3.45,0.74l-4.16,5.16l-0.59,1.23l-3.57,1.23l-3.68,7.01
	l4.87,4.43l2.85,1.84l0.48,2.34l1.43,0.12l1.66,1.48l3.09,1.35v0.74l-1.31,0.74v1.97h1.66l0.71,0.49l3.68-0.37l4.75,7.25l-0.95,1.84
	l3.57,1.11l1.78-1.11L68.2,150l1.43-1.11l1.9-0.98l2.26-0.49l2.02,0.12l1.07-0.12l2.5-3.81l3.92-1.35l1.43-2.21l3.09-0.49h2.14
	l2.26-1.23l2.14-1.84l4.52-2.46l1.19-1.48l2.26-0.61l1.78,0.12l5.11,3.93l2.61,1.35l6.06,2.46l7.72,5.53l0.48-1.23l-1.66-0.37
	l-0.12-0.74l2.02-4.18l0.59,0.25l1.31-2.58l2.61,1.11l0.71-0.98l1.66-0.61l15.09,8.61l1.31-3.57v-1.6l2.85-5.16l2.38-0.98
	l-0.36-2.58l0.36-0.74l4.99,0.49l1.31-0.12l0.95,0.61l1.78,3.57l-0.36,0.49l0.71,0.98l1.31-0.12l0.95,0.74l1.07,1.23l0.48,1.97
	l1.19,1.35l2.61-1.84l1.66-0.61l1.9,0.12l1.07-0.12l1.54-1.97l1.07-0.12l0.36-0.37l0.24-2.34l1.78-2.58l2.38-1.84l2.5-0.49
	l2.78,0.92c2.46-16.02,1.25-32.7,7.14-46.99L195.36,79.07z"/>
</svg>
