<?xml version="1.0" encoding="utf-8"?>
<!-- Generator: Adobe Illustrator 25.2.1, SVG Export Plug-In . SVG Version: 6.00 Build 0)  -->
<svg version="1.1" id="Слой_1" xmlns="http://www.w3.org/2000/svg" xmlns:xlink="http://www.w3.org/1999/xlink" x="0px" y="0px"
	 viewBox="0 0 200 200" style="enable-background:new 0 0 200 200;" xml:space="preserve">
<style type="text/css">
	.st0{fill:#FEFEE9;stroke:#646464;}
</style>
<path id="path3013" class="st0" d="M17.8,82.92l0.31-0.94l0.73-1.04l0.21-1.15l0.42-0.31L20.1,80l0.94,1.15l0.73,0.1l1.36-0.52
	l2.09,0.31l1.04-0.42l0.94-0.73l0.73-0.42l1.46-0.31l1.56-1.46l0.42-0.52l0.63-1.67l0.31-0.42l1.15-0.94l0.52-0.63l0.42-0.94h-0.1
	l0.94-3.65l0.94-2.19v-0.63l-0.63-1.15l-1.67-1.88h-0.1V63h-0.1l-0.31-0.73l0.1-0.63l0.52-0.63l1.46-0.31l0.94-0.1l0.73-0.63
	l0.63-1.04l0.63-0.52l1.04-0.31V58l0.42-0.31v-0.1h0.1l0.63-2.29h0.1l1.04-1.67l0.42-0.63l0.94-0.31v-0.1h0.94v-0.1l0.73-0.1v-0.1
	h0.1v-0.1h0.1v-0.42h0.1l0.42-1.25l0.21-2.71l-0.21-1.46l-0.31-0.83v-0.83l1.25-1.56l-0.1-0.94l-0.52-0.73v-0.1h-0.1l-0.1-1.56h-0.1
	l-0.63-0.73l-0.52-0.42v-0.1h-0.1v-0.83h0.1l0.52-0.94l1.46-1.04l0.21,1.56l-1.15,0.83l0.52,0.1l0.1,0.63l-0.1,0.52l0.73,0.94h0.21
	l0.63-1.88l0.52-0.94l1.36-0.94l0.21-0.42l1.56,0.31l0.63,0.52l0.63,0.1l-0.42,0.63l-1.36,1.04v0.1l2.09-0.63l0.73,0.83l-0.1,0.63
	l-0.42,0.1l-0.31,0.42l-1.46,0.63v0.1l-1.56,0.42l0.73,0.63l0.1-0.1l0.42,0.42h-0.1l0.42,0.21l0.1-0.21h0.1l0.31-0.42l-0.31-0.1
	l0.31-0.52l0.42-0.31l0.94,0.94l0.31-0.31l1.04,1.15l0.42-0.31l0.42,0.31v-0.1l0.1,0.1l0.52-0.63h0.31v0.31l-1.36,1.46l-1.15,0.52
	l0.52,0.52l0.42-0.21v-0.21h0.1v-0.1h0.1v-0.1l0.31-0.1l0.1-0.21h0.1v-0.1h0.1l0.1-0.52h0.1l0.1-0.42h0.1l0.31-0.42h0.1v-0.1
	l0.42-0.1v-0.1h0.21l0.52-0.94l0.42-0.94h0.1v-0.21h0.1l0.42-0.94l2.09-5.42h0.1l0.73-1.77l0.52-0.42l1.46-0.31l0.63,0.1l0.31-0.21
	h-0.1l-0.21-1.04H64v-0.1l0.73-0.1l0.31,0.1l0.42-0.1l0.21,0.83v0.83l0.31,0.63v0.31h-0.1h0.1l0.1,0.42l1.15,0.1l1.56,0.1l0.31-0.1
	l0.42-0.63l0.1-0.63h0.1l0.1-0.52l0.42-0.1v-0.21l0.42-0.1v-0.1h0.1l0.1-0.31h0.1v-0.21h0.1l0.1-0.52h0.21v-0.1h0.1v-0.1l0.63,0.21
	v0.1l0.31,0.1l0.42,1.04l-0.1,1.98l1.04,0.42l1.15,0.1l0.63,0.42l1.04,1.56l0.73,0.42l4.07-2.5l0.73-0.94h0.1v-0.1h0.1l0.1-0.52h0.1
	l0.1-2.09h0.1l0.1-0.63h0.1V28.8h0.1v-0.1h0.1v-0.1l1.67-0.1l0.31,0.1v-1.36h-0.31v-0.1l1.67,0.42l1.04-0.52l0.52,0.1l1.04-0.42
	l1.56,0.52l0.52,0.52l0.42,1.25l0.42,1.46l0.21,0.1v0.1h1.04v-0.1l0.52-0.31l0.1-0.42h0.1l0.83-2.09l0.63-0.42h0.83v0.1l1.67,0.1
	l0.31-0.63l-0.52-2.09h0.1v-0.1l0.94-0.83l0.63-0.21l0.52,0.1l0.31-0.52l0.63-0.1l0.1,0.73l-0.1,0.42l0.52,0.42l0.21-1.46l1.36-1.98
	l0.83-0.63l1.56-0.1l0.1,0.52l-0.1,0.63l-0.42,0.52l-0.52,0.31l-1.04,0.1L103,22.96l-0.1,0.52l0.31,0.83l0.42,0.52l1.46,0.83h1.77
	l1.67-0.52l0.42-0.42l0.83-1.88l0.52-0.52h0.52l0.83,0.52l0.1-1.25l1.15-1.56l1.25,0.1l0.52-0.42l2.5,0.52l0.52-0.31l0.63-1.04
	l0.42-1.04l-0.52-0.83l-0.83-0.83l-0.94-0.1l-0.52,0.1l-0.42-2.92l1.46-2.09h0.1l-0.1,0.83l0.1,0.52h0.21l0.31-1.56l0.31-0.21h0.21
	l0.31,0.21l0.42-0.1l0.83,0.63H120l-0.1-0.31h-0.42l-0.21-0.42l2.5-1.67l-0.63-0.63l1.04-1.98h0.63l0.63-0.31l1.36-1.77l-0.42-0.52
	V3.67l0.42-0.42l-0.31-0.63h0.1v0.1l0.42,0.1v0.1l1.56,0.52v0.1h0.42v0.1h0.42v0.1l0.42,0.1l0.1,0.52h0.1v0.1h0.31v0.31h0.1v0.52
	h-0.1l3.13-0.42l-0.94-1.56l1.36-0.63l0.42,0.63h1.15l1.04-0.21l0.31-0.31l1.04,0.1l1.04,1.46l2.19-0.83L141.79,2h0.73l0.52,0.42
	l-0.52,1.98l0.1,0.63l-1.25,2.19l-2.5,2.5l-2.71-0.63l-1.67-0.83l-2.61,2.5l-1.15,3.44l0.1,4.28l-1.46,2.09l0.31,2.19l1.56,0.94
	l-2.19,1.15l1.15,1.15l-0.52,0.83l1.46,0.94l-0.63,1.25l2.82,1.67l-1.56,0.73l2.61,2.92l-1.04,0.94l-1.67-0.31l-1.25-2.09
	l-1.15-0.52l-2.09,1.25l0.1,1.25l-1.15,0.1l0.63,1.04l-1.77-0.1l-0.83,2.29l1.15,0.52l2.09,1.36l0.83,2.82h0.63l1.77,1.46h2.09
	l-0.52,2.82l2.92-0.1l0.63,1.04l2.71,2.09l2.61,0.83l0.31,4.38l1.56,0.52l1.46,2.61l0.73,0.52l1.04,2.71l0.83,2.71l0.63,3.55
	l1.46,2.19l-0.94,2.29h-1.67l0.52,2.71l4.07-1.98l9.91,0.83l2.71,1.15l2.82,14.08l4.28-2.29l0.31,0.94l-0.31,3.44l5.01,1.98h4.28
	l0.94,0.52l-0.52,3.55l-1.67,0.21v3.23l-9.18-0.52l-0.42,16.27l1.88,3.23l-1.88,4.48l-0.1,3.23l0.42,4.17l-1.04,0.1l-0.21,1.15
	l0.1,1.88l-1.15,0.83l-2.19-0.52l-2.71,1.67l-0.63-0.31l-0.83-9.39l-1.98,0.1l-0.52-1.15l-0.52,1.56l-1.56,0.83l0.1,2.61l-0.42,2.29
	l0.1,3.13l1.56,2.29l0.1,2.61l-1.15,1.56l-2.09,0.1l-2.19,1.25l-0.73,2.09l-0.83,1.15l-3.13-0.31l-1.15-0.52l-3.65,0.42l0.21,2.09
	l1.46,1.56l1.98,0.31l-0.83,1.77l0.42,2.09l0.63,0.52l-0.73,0.94l0.52,0.42l1.46-0.52l1.15,1.25l1.15,1.04l0.83,4.07l2.19,2.5
	l2.19,1.15l-2.19,2.09v2.09l-1.67-0.83h-2.29l-1.67-0.63l-0.42,1.25l1.98,1.25l2.71,0.42l2.61,1.88l1.56,5.21l-0.83,1.36l0.1,0.63
	l-0.94,0.1l-1.46-1.15l-2.5,1.46l-0.42,1.88l0.1,2.09l-1.88,0.42l-2.19-0.1l0.73,3.55l-3.55,0.63l-0.52,1.15l-1.46-1.36l-2.29,2.71
	l-0.94,2.5l-1.04,1.04l-0.52,1.04h-1.04l-0.63-1.25l0.42-1.15l-1.36-0.42l-3.55-3.44l-1.67-2.19l0.94-0.21l0.31-0.83l1.15-1.67
	l-4.07-4.69l-1.04-2.09l0.63-0.42l-0.63-0.52l0.63-2.09l-0.94-0.21l-0.52,0.94l-1.04,0.42l-0.1,1.46h-0.42l-0.1-2.09l-6.05-4.07
	l-2.09-0.1l-1.56-1.15l-2.19-3.55l-2.29-5.11l-1.56-1.15l-0.42-0.94l0.1-3.02l-0.94-0.42l-0.52-0.83l-0.1-0.52l0.63-2.09l-0.83,0.31
	l0.42-0.52v-0.42l-1.04,0.1l1.25-1.98l-0.1-0.83l-0.83-1.04l-1.04,0.1l-0.1-1.15l-2.61-1.77l-4.38,4.9l-3.23-2.61l-0.42-0.94
	l-1.25-0.42l0.42-1.04l0.63-1.04l0.63-2.61l5.11-2.19l0.1-1.67l-0.52-0.83l-0.94-0.63l-1.56,0.21l-0.42-0.63l-1.98,0.21l-1.46,1.15
	l-0.21-0.52l0.94-1.15L92.68,136l-1.98-0.1l-0.42,0.52v0.52l-1.04,0.94l-0.83-0.52l0.42-0.52l3.13-2.29l-0.52-0.21l-0.94,0.83
	l-0.94,0.52H88.4l-1.46,0.94L86,135.06l-0.83,0.52l-0.83-0.83l-1.46,1.15l-3.23-0.1l-0.31-1.67l-0.63-0.94l-0.63,0.52v-1.15
	l-2.71,2.5h-0.52l5.01-5.42l-0.42-3.65l0.52-6.99l3.13-6.78l0.52-0.31l0.21-1.04h1.15l0.52,1.15l0.63,0.83l0.94-0.42l0.21,1.15h0.42
	l0.31-0.42l-0.1-0.94l-0.83-1.15l-3.86-1.46l-1.15-0.1l-0.52-1.56H81.1v-0.83l0.94-0.42l-0.1-0.83h-0.52l-0.94,0.52l1.25-3.02
	l-2.09-1.56l-1.88,1.15L77.45,102l0.94-0.83l-0.31-1.25l-2.29-0.52l-0.31-2.71l-2.19,0.63l-0.73-0.21l-0.1-0.52l-0.21-0.1L71.72,97
	v0.63l0.42,1.04l1.04,0.94l-1.56,1.04H71.3l-0.73-0.83l-0.42-0.94v-0.63l1.04-0.94v-0.42L69.63,97l-1.98,0.52l-0.1-0.63l1.25-1.67
	l-0.52-0.63l0.52-1.15l-1.67-1.46l0.1-0.94l-0.94-0.1l-0.94-0.94l-0.1-0.83l0.1-0.42l-0.42-0.1l0.63-1.98h-0.52v-0.52l-0.42-0.73
	l-1.04-0.1l-0.52,0.73v0.52l0.63,1.04v0.52l-1.46-0.1v-0.52l-0.31-0.21l-1.04-0.42l0.42-1.88l-0.42-0.52l-2.09,1.67l-0.52-0.63
	l-2.5-0.42v-2.19h-0.42l-2.29,0.94l-1.67,0.1l-0.42-1.15h-0.42l-0.94-0.63l-0.94,0.73l-2.09-0.31l-0.1-0.94l1.77-0.42l0.1-0.63
	l-0.52-0.94l-2.61,1.46l-1.46-1.56l0.94-1.98l1.56-0.1l0.42-4.59l-0.94,0.1l-1.15-0.52l-0.94-0.94l0.1-0.52l0.52-0.63l-0.1-0.52
	l-2.29,0.94l-0.52,1.88l0.52,1.67l-1.46,0.1l-0.42,0.63l-0.1,1.88l1.25,0.83l-0.63,0.63v0.42L41.16,80v0.52l-0.73-1.04l-0.73,0.1
	l-0.31,0.52l0.1,1.04l1.67,1.98l-0.73,0.52l-1.36-0.73l0.1-0.94l-0.42-0.94v-0.63l0.94-3.02l-0.52,0.1l-5.42-0.52l-0.42,0.52
	l0.21,2.09l0.63,1.67l1.67,1.98l-0.1,0.83l-0.42,0.21l-1.56-0.52l-3.44,0.42l-0.1-2.09l-0.94-1.67l-0.73,0.1l-0.63-0.1l-1.04,1.98
	l-0.42,2.61l-2.09,0.42l-0.63,0.52l-0.52,1.15l0.1,1.36l-2.19-0.31l-0.52-2.29h-0.21l-0.63-1.04l-0.31-0.1l-0.21,0.31l0.1-0.83
	l-0.1-0.21l-1.36-0.63L17.8,82.92"/>
</svg>
