<?xml version="1.0" encoding="utf-8"?>
<!-- Generator: Adobe Illustrator 25.2.1, SVG Export Plug-In . SVG Version: 6.00 Build 0)  -->
<svg version="1.1" id="Слой_1" xmlns="http://www.w3.org/2000/svg" xmlns:xlink="http://www.w3.org/1999/xlink" x="0px" y="0px"
	 viewBox="0 0 200 200" style="enable-background:new 0 0 200 200;" xml:space="preserve">
<style type="text/css">
	.st0{fill:#FEFEE9;stroke:#646464;}
</style>
<path id="path3033" class="st0" d="M2,147.27l6.38,0.16l4.79,1.28l3.19-1.76l4.95-1.91l5.58-3.35l0.16-5.43l-5.43-0.8l-4.15,4.79
	l-2.55,0.48l-0.16-3.03l-0.8-3.99l4.95-5.43l4.95-2.39v-12.45l2.87-0.32l-7.18-10.21l1.44-0.8l2.39-2.23l5.58-7.34l1.76-3.19
	l0.96-4.63l1.6-2.55v-3.51l-1.44-2.39l-2.23-4.63l-1.76-2.71l9.73-5.43l1.91-3.03l8.3-10.05l0.48-0.96l-5.74-6.7l2.23-2.39l0.8-0.64
	l4.95-5.58l1.76-4.63l0.64-1.76l-1.44-0.96l-1.6-2.23l4.63-8.14l3.35,0.64l10.37,0.48l12.77,1.91l3.19,16.59l-0.48-0.48l-0.8,0.16
	l-0.96-0.16l-0.32,0.8l-0.48-0.32v0.16l-0.16-0.16l-0.16,0.16l-0.8-0.16v0.16l-0.48-0.16v-0.48l-0.8,0.16L77,36.05l-0.96-0.16v-0.16
	l-0.8-0.48l-0.16,0.48l-0.8,0.16v0.16h-0.16l0,0h-0.16l-0.32-0.64l-0.64,0.16l-0.16,0.48l-0.32,0.16v0.16l-0.8-0.16l-0.16,0.48
	h-0.48v0.16l-0.64,0.16v0.32h-0.64v-0.16H69.5l-0.64,1.44h-0.48v0.16h-0.64l3.35,6.54l7.66,9.57l0.8,1.44l23.78-2.55l3.03,3.99h0.16
	v-0.16h0.16v-0.16h0.16v-0.16l0.64,0.16l0.16-0.48h0.48l-0.8-11.49l-4.63,0.16l-0.96-12.77h0.64v0.16H103v0.16h0.16v0.16l1.28-0.16
	l1.6-0.64l0.48,0.16v-0.16l0.16,0.16v-0.48h0.16v0.16v-0.16h0.16l0.16-0.48l0.8-0.16l-1.76-8.78l6.38-2.71l2.55,5.9l5.74-2.07
	l10.69-4.79l4.31,10.21l10.69-4.15l-1.76-6.22l-0.32-3.51l-0.16,0.64l-3.83,0.96l-0.16-4.15l2.55,0.16l1.6,0.8l-0.8-9.89l8.62-1.12
	l0.16,0.8l-1.28,8.62l-0.16,2.55l1.91,0.16l0.64-0.32l0.48,0.32l0.8-0.16v-0.16l1.28,0.16l0.64,0.8l0.64-0.16l0.16,0.8l2.07,0.64
	l0.32,0.16l0.48,1.6l0.96,0.16l0.16,0.64l1.6,0.64l1.76,0.96v0.16l3.83-0.32l0.64-0.8l0.96-0.16v-0.16h0.16v-0.16h-0.16h0.32v0.16
	l1.28-0.16l0.96,0.48l0.48-0.16V19.3h-0.16l0.48-0.16v-0.16l0.8-0.16v0.16h0.16V18.5h0.32v-0.16h0.48v-0.16h0.48v-0.16h0.16v-0.16
	h0.64V17.7v0.16l0.16-0.64l0.64-0.96l0.96-0.16l0.16,1.12h0.16l0.32-0.8l1.6-0.32l-0.8,5.43l9.57,2.39l0.64-3.03l3.03,0.64l1.6-2.39
	v0.64h0.16v-0.16l0.96-0.48l0.8-0.64v-0.16h0.16l0.48,0.96l-0.8,1.12l-0.32,0.16l-0.16,0.48l-1.6,0.64h-0.16l0.16,1.12L193,23.29
	l0.16,0.96l0.8,0.96l-0.64,1.12l-0.96,0.8l-1.28,0.16l-0.48,0.96l-1.28,0.16v-0.16l-0.48,0.16l-0.16,0.96h-0.64l0.16,0.8h-0.48
	v-0.16l-2.23-0.32l-0.64-0.16l-0.64,0.96l0.16,0.48l1.28,0.32l0.32,0.8h0.16v0.16h-0.16v0.16h-0.16v0.48l-2.87,1.6l-2.23,5.27
	l-3.83,3.19l-0.8,2.55l-1.44,1.76l-0.16,2.39l-2.23,1.76l1.6,3.03l-2.71,0.8l0.64,2.55l-1.44,3.19l2.39,1.6v3.19l3.03,0.16
	l3.03,2.23l2.55,3.19l1.44,4.63l0.16,3.51l1.28,1.76l0.16,2.55l3.35,0.96l-2.71,2.55l1.76,0.16l1.91-1.6l2.87,1.44l1.76,2.39
	l2.39-0.48v4.47l-4.95,1.6l1.28,0.96l0.48,3.19l-2.55-2.55l-0.96,2.23l0.48,2.23l-0.64,1.6l0.64,1.76l-15.96-1.6l-3.83-0.16
	l-12.61,1.76l-7.98-0.96l-2.55,11.01l3.83,0.16l7.66-1.91l3.35,12.92l-12.77,2.23l-7.98,3.99l4.63,5.74l-0.32,5.11l-4.15-0.48
	l-17.07,0.64l-11.01-2.39l-1.91,1.28l-7.18,13.4l0.16,3.83l6.38,0.96l-0.64,4.47l-2.39,2.55l0.8,7.02l-4.95,2.39l-1.44,1.28
	l-4.15,5.11l-13.4-0.8l-10.53-2.39L61.68,187l-4.95-1.91l-3.51-3.19l-3.99,0.16l-4.31-1.6l-1.28-2.39l-2.23-2.39l-1.44-2.23
	l3.99-3.03l-13.08,2.07l-5.58-3.99l-2.55,2.55l-3.35-3.51l-7.34-2.39l-0.96,1.28l-2.23-0.16l0.16-1.76l-3.99-3.99v-3.03l3.35-1.28
	l-0.48-3.99l-5.74-0.16L2,147.27"/>
</svg>
