<?xml version="1.0" encoding="utf-8"?>
<!-- Generator: Adobe Illustrator 25.2.1, SVG Export Plug-In . SVG Version: 6.00 Build 0)  -->
<svg version="1.1" id="Слой_1" xmlns="http://www.w3.org/2000/svg" xmlns:xlink="http://www.w3.org/1999/xlink" x="0px" y="0px"
	 viewBox="0 0 200 200" style="enable-background:new 0 0 200 200;" xml:space="preserve">
<style type="text/css">
	.st0{fill:#FEFEE9;stroke:#646464;}
</style>
<path id="path3153" class="st0" d="M12.81,66.1l2.69-2.15l-0.81-8.2l1.61-1.48l1.34-2.55l0.54,0.67v-0.67h0.4l0.13,0.4l1.48-1.08
	l1.48-1.48l1.48-0.13l2.55,0.13l1.08,0.54l0.67,0.81l-0.27,0.54l1.08,1.34h0.27l1.34-1.48l-0.4-1.21l-0.67-0.81l-0.67-3.63
	l0.81-2.96l1.08-0.4l0.81,0.81l1.48-0.54l0.54-0.67l0.4-1.88l-0.67-0.81l-0.94,0.81l-1.48,0.67l-0.13-0.13l0.81-1.21l-1.08-0.67
	l-0.67,0.13l-0.54-0.54l-0.81,0.54l1.34,1.48l-1.34,0.4l-1.21-0.67l-2.55-0.4l-2.55,1.48v0.54l-0.27,0.54l-0.54-0.81l0.67-12.1
	l0.67-9.68l3.9-1.08l-0.54-1.61l8.06-2.96h8.87l4.17,1.34l1.48,3.9l8.87-4.97l2.02,2.15L60.79,11l1.61,0.54l1.48,1.88l-0.4,1.88
	l1.34,1.88l3.9,2.28l1.88,1.48l1.88-1.08l-0.4-1.48l-1.61-2.02l-1.08-2.02L68.85,11l-1.88-4.03l0.54-1.88l2.96-2.15l2.82-0.54
	l2.02,1.08l0.81,3.23h1.21l0.4-2.82L83.1,2l0.67,2.02l-1.34,1.61l0.13,3.23l1.08,1.48l-2.55,9.41l1.48,3.49l1.34,2.42l1.61,1.08
	l1.34-0.4l0.67-1.48l-1.48-2.42l-0.67-1.88l-1.48-2.42v-1.08l1.08-1.48v-1.34l1.48-1.61l1.88,0.54l2.55-1.48l0.94,1.21l4.57,1.21
	l0.13,1.48l1.48,1.61l1.34-0.4l0.81-2.15l2.69-0.54l1.48-1.34l1.48-1.88l1.21,2.69l1.08,1.48l0.13,2.42l0.54,2.15l1.88,0.4
	l1.48-1.21l2.96-5.24l0.54-0.54l0.4,4.03l-0.54,2.55l1.48,0.81l0.67-0.54l1.48-2.69l0.13-2.28l2.55,0.27l2.15,1.48l1.34,0.54
	l0.67-1.61l-0.13-0.67l-1.21-1.34v-1.34l2.42-2.02l2.02-0.13l1.88,0.67l3.23-1.08l4.03-2.28l6.99,1.61l-1.34,7.53v6.99l1.34,0.67
	h2.15l2.15-1.08l7.26,0.54l2.82,0.54l-2.96,4.57l-1.21,0.4l-1.21,2.15l-1.48,1.88l-1.88-1.48l-1.08,1.08l0.54,2.82l-1.21,1.48
	l0.81,2.55l1.21,1.34l1.21-1.21l1.48,0.54l-1.08,1.48l-2.42,1.61l-1.21,2.96l0.13,4.57l-1.08,1.48l-2.82,1.75l-0.13,2.82l1.75,4.03
	l1.88,0.81l-0.54,3.9l-0.54,1.61l-1.48,2.15v2.82l0.4,2.02l1.61,0.81l1.21-0.13l1.21-1.61l-0.54-1.61l-0.81-1.34l0.81-1.88
	l1.08-0.27l1.21-1.88l2.02,0.67l-0.13,4.43l1.48,2.42h4.43l0.67-2.02l5.24-4.43l-0.54-1.88l1.48-0.27l1.88,2.55l1.61,4.57l0.67,4.17
	l-2.15,2.15l-0.54-0.13l-1.61-1.61l-2.82-0.13l0.13,2.15l1.48,2.82l-1.61,2.96l-3.23,1.61l-1.21,2.15l-1.34,4.3l3.23,1.88l1.21,1.48
	l-1.34,5.64l-1.61,3.76l-1.48,1.34l-4.03-1.21l-1.61-0.13l-1.08,5.64l0.81,3.9l-0.54,1.88l-1.08,0.4l-6.18-1.21l-2.15-0.13
	l-1.08,2.42l0.54,2.55l-3.36,4.43l-1.48,1.08l-0.4,2.82l-1.88-0.81l-0.4,2.69l-1.48,1.61l0.13,1.48l1.34,0.54l2.02-0.67l1.61,0.4
	l6.99-2.55l0.54,1.88l0.81,0.81l0.4,0.81l-0.67,0.27l-0.54,1.21l1.21,2.15l4.7-0.67v-2.02l-0.81-2.02l1.21-0.54l0.54,1.34l1.21,0.13
	v2.96l2.15,5.64l1.75-1.08l-0.67-3.23l-1.21-1.48l0.13-1.21l2.15,1.21l1.21,3.36l0.67,1.21l0.13,1.88l-2.15,2.69l-0.13,1.08
	l2.96,3.49l1.21-1.21h1.08v2.69l-1.34,5.64l4.3,2.55l-1.08,2.82l1.21,3.36l-0.54,1.48l-3.76-2.15l-2.69-0.4l-2.02-1.61l-2.55-1.48
	l-3.49-3.49l-2.15,2.69l-5.24,4.03l-2.69,0.81l-0.81,1.34l-0.4,1.88l-3.9,0.13l-2.15,0.67l-5.91-3.23l-4.17,2.15l-2.28,0.4
	l-3.76-0.4l-2.96-0.81l-2.96,1.08l-0.67,6.85l0.13,12.63l-2.96,1.75l-3.49,1.34l-1.61,1.48l-0.54-4.17l-1.48-2.42l-1.08,2.55
	l-1.34,5.24L97.07,197l-1.21-0.81l-0.94-2.15l-0.13-2.96l-2.15-1.34l-0.81,1.61l-1.34-2.15l0.13-2.96l2.15-0.67l2.02-1.88l1.34-0.67
	h0.81l0.67-2.15l-0.67-2.15l-4.03-0.81l-2.82-0.13l-11.02,0.67l-2.28-0.13l-4.43-1.34l-1.48,4.17l-4.97,0.13l0.13,3.49l-0.54,1.34
	l0.67,1.75l-0.81,1.48l-2.69-0.67l-3.49-2.15l-2.96-2.42l-1.21-0.27l0.54-2.15l-2.02-1.88l-2.55,1.48l-7.66-2.82h-3.49l-6.72-2.96
	l-2.42-1.21l-0.4,2.69l-1.88,1.61l-1.75-0.54l-2.96-2.82l0.67-1.48l2.02-2.02v-0.67l-2.02-0.13l0.81-10.08l1.08-6.85l-3.23-0.4
	l1.21-10.62h1.48l1.75-23.38l0.27-3.63h0.54l0.67-2.55v-0.67l-0.81-0.54h-1.21l-0.54,0.54l-0.54-0.13l0.13-0.67l-0.54-0.13
	l-2.55,0.13l-1.21-1.48l1.34-1.34l2.02-0.13l1.21,0.27l2.15-0.27l3.49-1.48l0.81-0.81l-2.15-3.63v-1.75l3.49-2.69l2.15-0.13v-2.02
	L35.52,95l-4.7,0.13L28.8,84.38l1.61-1.61L28,78.33l-1.21,1.48l-11.56,2.02l-2.69-4.03L12.81,66.1"/>
</svg>
