<?xml version="1.0" encoding="utf-8"?>
<!-- Generator: Adobe Illustrator 25.2.1, SVG Export Plug-In . SVG Version: 6.00 Build 0)  -->
<svg version="1.1" id="Слой_1" xmlns="http://www.w3.org/2000/svg" xmlns:xlink="http://www.w3.org/1999/xlink" x="0px" y="0px"
	 viewBox="0 0 200 200" style="enable-background:new 0 0 200 200;" xml:space="preserve">
<style type="text/css">
	.st0{fill:#FEFEE9;stroke:#646464;}
</style>
<polygon class="st0" points="-20.47,7.24 -20.45,7.26 -20.17,7.24 "/>
<path id="path3143" class="st0" d="M3,98.9l1.14-0.29l1.28,0.71l2,5.42h2l-0.14-3.71l0.71-1.57l2.42-0.71l0.86-3.14l-1.57-2
	l-1.43,0.86H8.7l-1.43-5.42l-1.43-2l0.86-0.86l3.14,2.99l2,0.57l1.43-1.43l0.57-3.56l-1.28-4.42v-1.43l1,0.14l2.71,1.57l1,2.14
	l1.43,0.71l1.57-0.57l2.14-6.27l-4.85-2.71l0.86-3.42l2.99-1.57l0.86-4.28L22.1,51.3l0.71-7.27l3.14-1.14l3.14,0.86l3.99,0.43
	l2.42-0.43l4.42-2.28l6.27,3.42l2.28-0.71l4.13-0.14l0.43-2l1.14-1.14l2.85-0.86l5.56-4.28l2.28-2.85l3.71,3.71l2.71,1.57l2.14,1.71
	l2.85,0.43l3.99,2.28l0.57-1.57l-1.28-3.56l1.14-2.99l4.7-0.14l4.85-1.43l0.14-5.13l5.7-0.14l3.56,3.42l2.14-0.57l6.98,21.09
	l-0.86,4.56l-4.13,1.57l-4.13,0.86l-4.99,5.99l-0.71,1.43l-4.28,1.43l-4.42,8.12l5.84,5.13l3.42,2.14l0.57,2.71l1.71,0.14l2,1.71
	l3.71,1.57v0.86l-1.57,0.86v2.28h2l0.86,0.57l4.42-0.43l5.7,8.41l-1.14,2.14l4.28,1.28l2.14-1.28l5.13,3.42l1.71-1.28l2.28-1.14
	l2.71-0.57l2.42,0.14l1.28-0.14l2.99-4.42l4.7-1.57l1.71-2.57l3.71-0.57h2.57l2.71-1.43l2.57-2.14l5.42-2.85l1.43-1.71l2.71-0.71
	l2.14,0.14l6.13,4.56l6.41,2.99l4.13,1.43l9.26,6.41l-0.86,0.71l-1.71,0.57h-2l-1.28-0.71l-0.71-1.28l-0.86-0.29l-2.99,1.28
	l-2.28,0.57l-1.28,2l-2.42,2l-2,3.99l-0.43,4.99l16.25-0.71l6.56,0.29l-5.99,10.83l-1.14,5.84l0.71,2l-0.57,1.85l0.43,0.29
	l0.14,0.71l-2.85,0.29l-1.14-1.14h-1.14l-2.99,2.99l-0.29,0.86l-2,0.86l-2-0.29l-1.57,1.14l-0.86,1.57h-1.14l-0.43-0.71l-2,0.43
	l-0.57-0.86l0.43-0.86l-0.14-0.43l-0.57-0.14l-0.57,0.29l-0.71,1.57l-0.14,1.85l-1.43-0.57l-1.28,1.43l-1.28,0.14l-1.28-0.71
	l-1.14,0.71l-2.99,2.85l-1.43-4.85l-2.71-3.42l-0.14-1.57l-1.85-2.28l0.14-10.97l-0.57-1.43l-0.71-1.14l-0.29,2.14h-1.14l0.29-6.41
	l-14.39-4.28l-0.29-2.85l-4.42,2.71l-0.71,7.13l-0.43,0.71l-1.14,5.7l3.99-0.71l1.28-1.14l0.71,0.86l-1.71,2l-1.43,2l-2.28,2
	l-0.57-2l-2,0.86l-1.43-1.14l-0.57-1.14l0.57-1.14l-0.14-0.86l-1.71,0.71v3.71l0.86,1.14h1.14v-1.43l1.71,0.86l-2,4.99l-2.14-1.14
	l-1.71,0.43l-1.43-0.14l-1.28,1.43l0.14,1.85l0.71,0.14l0.14,1.28l0.71,1.43l-1.71,1.28l2.71,3.71l-3.71,11.26l1.14,2l1.14,0.71
	l0.71,2.28l0.57,0.29v1.28l0.86-0.14l0.43,0.43l-0.71,1.57l-1.28,0.86l-0.43,1.14l0.43,0.29l-1.71,0.86l0.71,1.71l-0.57,0.86
	l0.43,0.14v0.57l-0.71,0.57l-1.14-0.14l-0.86,0.14l-0.14-1.28l-1.71,0.57l-0.14,0.57l-0.57,0.43v0.57l0.29,0.14l-0.71,1.14
	l-1.71,0.43l-0.14,0.86h-1l-0.14-1.14h-0.43l-0.14,0.86l-2.14-0.14l-0.43,0.57l0.57-1.85l-6.98-8.69l-3.42,2.85l-3.71-0.14
	l-0.57-5.13l-11.26-1.43l-2.28,2.42l-1.57-2.28l-8.69-1.14l-1.43-1.28l-3.42-0.57l-1.43-1.28l-3.85-1.14l-3.42-1.43l-3.71-2.28
	l-2.71-0.14l-0.14-1.57l-1.43-2.57l-2.57,1.14l-4.13-4.85l-9.26-4.28l-4.42-1.43l-2.14,1.14l-0.14,2.14l-5.27-1.57l-4.13,1.43
	l-3.56-7.41l-3.85-4.99l-1.28-0.14l1.14,4.42l-2.42,1.28l-1.85-0.57l-0.29-6.56l2-2.71L6.42,118l-1.71,0.43l-0.57-0.14l1.57-8.98
	l-1.57-1.71l2-0.86l-0.29-1.71l-2.28-0.43L3,98.9"/>
</svg>
