<?xml version="1.0" encoding="utf-8"?>
<!-- Generator: Adobe Illustrator 25.2.1, SVG Export Plug-In . SVG Version: 6.00 Build 0)  -->
<svg version="1.1" id="Слой_1" xmlns="http://www.w3.org/2000/svg" xmlns:xlink="http://www.w3.org/1999/xlink" x="0px" y="0px"
	 viewBox="0 0 200 200" style="enable-background:new 0 0 200 200;" xml:space="preserve">
<style type="text/css">
	.st0{fill:#FEFEE9;stroke:#646464;}
	.st1{fill:#C6ECFF;stroke:#0978AB;stroke-width:0.5;}
</style>
<polygon class="st0" points="-20.47,7.24 -20.45,7.26 -20.17,7.24 "/>
<path class="st0" d="M185.46,102l-0.54-0.4l-0.54,0.14l-0.13-0.14l-1.35,0.54l-0.14-0.14l-0.54,0.14v-0.67h-0.13v-0.14h-0.13v-0.13
	h-0.4v-0.13h-0.81v0.13h-0.27v0.13h-0.4l-0.81-0.54v0.13h-0.13v-0.13h-0.13v0.13h-0.13v-0.13h-1.08v-0.81h-0.13v-0.13l-1.08-0.14
	v-0.13h-0.13v-0.13h-0.4V99.3l-0.81-0.13l-0.67-2.43l0.81-2.16l-0.13-1.35l0.54-4.05l0.54-1.62l1.08-2.02l1.08-1.21l0.67-1.89
	l-1.48-0.54l-1.48-1.62l-1.21-2.16V77.3h0.13v-0.13h-0.13l0.13-0.14l-0.13-0.13l0.13-0.67h-0.13l-0.13-0.67h-0.13v-0.13h-0.13v-0.4
	l0.27,0.4l1.21-0.4l-0.4-0.81v0.13h-1.08V74.2h-0.13v-0.27h-0.13v0.14h-0.27v-0.14h-0.13v0.14h-0.13v-0.14l-0.4-0.13l-0.27,0.13
	v0.14h-0.13l0.13-0.14h-0.13l-0.13-0.54h-0.4v-0.14h-0.27v-0.13h-0.4l-0.13,0.27h-0.13v0.13h-0.13v0.13h-0.54l-0.13,0.54h0.13
	l-0.4,0.54h-0.13V74.6h-0.13v0.54l-1.21,0.13l-0.13-0.4h-0.13v0.13h-0.4v0.27l-0.67-0.13v0.13v-0.13h-0.4v-0.27h-0.13v0.13h-0.4v0
	v0.13v-0.13h-0.13v0.13l-0.4,0.13v-0.13l-0.4-0.14v0.14h-0.13v0.13l-0.4-0.13v0.13h-0.13v0.14h-0.13v-0.14l-0.4,0.14v-0.14h-0.67
	l0.54-1.89l0.54-1.48v-1.21l0.54-0.81l0.13-1.21l0.54-0.94l1.48-1.35l0.81-0.14L169,65.7h0.54v-0.4l1.08-0.67l1.08-0.14v-0.13h0.67
	v-0.13l0.54-0.14l0.81-0.4l0.13-0.94l-1.21-0.27l-1.35-0.94l-3.51-1.48l-2.56-0.4v-1.35l0.81-4.45l-0.13-0.67l-1.08-1.21l-1.21-4.59
	l-0.54-4.59l-3.37-4.45l-2.83-2.29l-2.16-2.16l-10.93-7.42l-1.62-1.48l2.29,0.27l4.05-1.35l-0.54-2.97l-3.91,0.54l-6.48-0.81
	l-6.61-10.26l-2.02-0.94l-2.02-2.02l-1.08-2.43L122.57,2l-1.08,0.94l-8.23,2.43l-1.21,0.67l6.75,6.88l-6.75,6.34l-0.13,0.81
	l-6.48-1.62l-1.89-2.56l-4.32,0.14l-6.88,3.91l-1.48,2.97l-2.43,7.56l-0.81,3.91l-1.21,1.35h-0.27l-0.4,0.67l-1.35,1.48v-0.54
	l0.54-0.4l-0.4-0.54l-0.27,0.54l-0.4,0.13l-1.08-1.21l-0.81-0.14l-0.67,0.14l0.4,0.81l-0.13,0.67l-0.67,0.13l-0.13,0.81l-0.54,0.67
	l-0.67,0.13l-1.08-1.62l0.13-0.94l-0.81-1.62l-0.67-0.54h-0.81l-0.13,1.35l-0.4,0.54l-0.54,0.13l-0.4-0.54l-0.27,0.14l-1.21-0.14
	l-0.13-0.81l-0.67-0.54l-0.4-0.54l0.13-0.67l-0.13-0.54l-0.54-0.13l-0.54,0.13l-0.54,0.67l-0.54,0.14l-0.13-0.67l-1.48-0.4
	l-0.54-0.94l-0.54-0.14l-0.13,0.4l-0.54,0.14l-0.13-0.54l0.4-0.54l0.81-1.35l-0.13-0.14l-1.71,1.22
	c0.53,10.14-0.73,20.09-4.12,26.86c-8.1,14.84-21.59,36.44-22.94,52.63C37.4,127.65,32,139.8,18.5,151.94c3.31,0,6.12,0,9.03,0
	l1.38-1.49l2.56,1.35l0.01,0.14c0.6,0,1.22,0,1.86,0c-1.04,4.16-1.29,8.32-4.44,11.25l-0.13,0.76l2.16,3.24l2.02,1.21l2.02-2.97
	l3.37,1.48l0.67,2.02l0.81,1.35l3.24-0.81l4.59,5.26l3.51-1.89l0.4-0.67l-0.4-2.56l-2.29-0.4l-0.4,2.02l-1.21-0.67l1.21-3.37
	l2.02-1.35l0.81,0.81h1.48l0.67-2.83l2.83-2.56l1.62-0.67l0.54,2.02v1.48l0.67,1.62l0.4,2.02l-3.37,2.56l-1.08,1.35l-0.14,0.81
	l2.43,0.54l0.14-1.89l1.21-1.62l1.89,2.16l2.83,0.13l-0.54-6.07l2.7,0.81l1.89-0.81l3.64,2.43l5.94-2.56l3.91-2.43l1.75,1.21
	l-1.08,0.67l1.35,6.07l2.56,2.83l0.67,2.16l3.24,3.64l2.97,7.56l6.21,0.81l12.55,2.83l-0.81,4.05l9.99,2.02l0.67-6.88l4.05-6.21
	l7.02-14.04l11.88,7.56l7.96-11.34l4.05-4.86l2.97-1.89l7.96-11.74l2.56-2.16l2.02-13.09l6.88,5.26l3.78-2.56l-1.21-3.51l0.54-2.43
	v-5.4l-4.59-2.02l3.1-2.7v-0.54h-0.4l-0.13-0.54h-0.13l-0.13-0.27l-0.13-0.81h-0.13l0.13-0.13l-0.13-0.67h-0.13v-0.27l0.81-0.13
	l0.13-0.27l-0.13-0.13h0.13v-0.14v0.14l1.08-0.27l0.81-0.4v-0.14l0.4-0.13v-0.27h0.13l0.13-0.67h0.13l0.4-2.16h0.14l0.13-0.27h0.13
	l1.08-1.35h0.54l0.67-0.81l0.4-0.13L185.46,102z"/>
<path class="st1" d="M81.95,101.46h-0.27l-1.62-1.08l-1.35-0.54l-1.62,1.35l-2.7,1.48H72.5l-2.16-1.35l-1.62-2.83l-1.89-1.48
	l-4.18,1.08l-4.05,1.89h-2.97l-2.16,1.35l-1.35-0.14l-0.13-1.08l1.21-2.83l0.27-3.24l-1.48-3.78l0.81-2.56l-0.54-0.81l-1.35,0.27
	l-1.35,2.16l-1.08,0.13l-1.35-1.08l-2.02,1.62l-0.1-0.97c-1.81,4.08-3.37,8.13-4.49,12.02l2.02-4.04l1.08-1.08l0.81,0.27l0.14,1.48
	l-2.16,5.53l2.97,1.48l0.67-1.21l2.02,0.81l1.62,1.21l0.54,0.81l-0.67,1.35l1.21,1.48l1.08-0.13l1.08-1.08l4.05-1.08l0.81,0.54
	l-0.14,1.48l-1.35,2.56l0.27,1.08l1.48,0.67l3.24-4.05l2.56,0.13l-1.21-1.48l0.54-0.67h2.16l2.97-2.56l1.48-0.13l2.56,1.21
	l1.89,0.27l2.02-0.81h2.56l1.08-1.89l1.62,0.14l0.67-0.81L81.95,101.46z"/>
<polygon class="st1" points="117.72,-13.11 117.62,-13.11 117.72,-13.1 "/>
<path class="st1" d="M65.74,29.13c0.17,1.18,0.19,2.39,0.14,3.6c0.01,0.31,0.03,0.63,0.03,0.94l0.79-1.32l2.83,1.08l0.54,1.08
	l-0.81,1.35L69,37.22l1.62,2.83l1.48,0.81l-0.54,2.43l4.18,4.86l-1.89-4.59l2.56-0.13l1.08-2.56l1.89-0.81l1.62-2.02l1.08,5.4v2.83
	l1.08,0.81l1.35,0.27l0.27-1.62l-0.13-0.81l1.08-0.27l1.89,1.35h0.27l0.54-2.02l-1.21-0.54l-0.27-1.08l1.21-1.62l-1.35-3.24
	l-2.16,3.24l-0.81-0.54v-1.35l1.35-4.72l0.13-2.43l-0.81,0.27l-2.56,1.89l-2.16,2.56l-0.81,0.13l-0.81-2.43l-1.48-1.35l-1.48-0.54
	l-1.08,1.48l-2.83-2.83l-3.78-2.16l-1.48,0.27l-0.33-0.01c0.09,1.26,0.15,2.51,0.19,3.76C65.93,31.52,65.9,30.31,65.74,29.13z"/>
</svg>
