<?xml version="1.0" encoding="utf-8"?>
<!-- Generator: Adobe Illustrator 25.2.1, SVG Export Plug-In . SVG Version: 6.00 Build 0)  -->
<svg version="1.1" id="Слой_1" xmlns="http://www.w3.org/2000/svg" xmlns:xlink="http://www.w3.org/1999/xlink" x="0px" y="0px"
	 viewBox="0 0 200 200" style="enable-background:new 0 0 200 200;" xml:space="preserve">
<style type="text/css">
	.st0{fill:#FEFEE9;stroke:#646464;}
	.st1{fill:#C6ECFF;stroke:#0978AB;stroke-width:0.5;}
</style>
<polygon class="st0" points="91.63,118.09 91.27,109.3 91.63,104.63 93.06,98.53 95.57,93.15 99.52,89.21 107.41,80.24 
	108.85,77.01 106.34,66.07 98.8,40.23 99.29,33.93 98.98,33.96 95.39,30.37 95.57,36.65 93.96,34.32 91.63,32.88 91.81,34.85 
	89.29,34.49 88.4,38.26 86.78,39.16 89.29,40.41 87.14,43.28 85.35,42.75 80.5,42.57 79.61,40.59 79.43,38.08 81.22,37.01 
	82.12,36.83 81.58,34.85 79.43,30.55 74.94,28.93 71.89,31.45 68.31,31.98 66.15,30.19 64.18,30.73 62.39,30.55 63.28,32.16 
	62.75,32.88 59.88,33.42 57.18,35.57 54.49,38.44 47.14,42.21 41.22,40.23 40.68,42.39 43.19,45.08 46.42,45.98 48.57,47.41 
	49.11,49.38 48.57,50.28 39.43,46.69 36.73,47.05 38.17,50.64 38.89,51.54 41.22,53.33 44.99,54.05 51.09,57.64 51.8,58.71 
	47.5,59.79 42.12,57.64 41.58,61.22 43.19,66.42 42.3,70.01 39.61,71.45 35.66,71.63 34.58,71.99 34.04,74.32 32.43,74.68 
	32.43,76.65 30.64,78.26 28.12,79.16 24.18,78.98 22.56,78.08 19.69,75.57 17.36,72.88 13.95,71.81 12.88,71.81 11.98,74.68 
	14.31,79.34 13.24,80.95 8.93,81.13 7.14,82.75 8.39,84.72 11.62,85.44 15.57,85.44 18.44,87.05 18.98,89.03 18.08,91.36 
	14.49,93.87 13.42,96.56 12.34,97.46 10.72,97.28 9.83,98.18 10.9,100.69 11.98,102.12 11.8,103.92 10.9,104.99 9.47,105.89 
	9.29,108.4 14.31,108.58 16.29,107.68 18.8,107.5 22.03,108.04 25.61,109.84 26.69,111.63 29.56,110.19 31.35,111.63 31.35,112.89 
	29.38,114.68 29.2,116.65 30.64,115.04 32.25,113.96 33.87,114.14 35.48,115.04 36.91,116.83 37.81,121.32 36.74,123.83 
	39.43,127.59 37.99,128.67 37.81,131.18 38.35,133.33 39.07,134.05 42.3,132.08 44.81,132.98 45.88,133.87 46.78,135.67 
	48.22,136.74 47.32,139.25 44.63,139.07 42.65,142.66 42.12,145.53 43.55,149.3 32.79,151.81 41.4,154.32 50.37,158.63 
	53.78,158.99 55.75,158.27 56.47,153.96 56.11,152.17 56.47,151.27 57.9,150.2 58.08,147.69 57.01,146.61 57.72,145.71 
	59.52,145.53 62.21,146.97 61.49,149.84 63.64,154.5 63.46,157.37 65.62,159.17 68.13,159.17 71,161.86 72.97,161.32 75.84,162.22 
	78.53,160.42 78.53,156.65 79.25,151.99 79.07,151.27 75.12,148.58 74.58,144.64 76.2,142.66 77.81,142.12 78.89,142.66 
	80.5,142.66 78.53,138 79.61,137.1 85.89,138.54 87.5,136.92 88.04,133.51 93.42,130.64 93.6,134.41 95.71,133.46 95.21,132.08 "/>
<path class="st0" d="M171.63,24.63l-0.44,0.53c0.24,0.02,0.48,0.02,0.72,0.04c-0.24-0.02-0.48-0.03-0.72-0.04l-1.24,1.49
	c1.64-0.22,3.27-0.5,4.89-0.85L171.63,24.63z"/>
<path class="st0" d="M192.62,41.31l-11.66-10.76l-3.41-3.77l-2.72-0.99c-1.62,0.36-3.26,0.63-4.89,0.85l-4.02,4.8l-2.01,3.05
	l-4.31,1.61l-1.79,2.51l-3.41,2.69l-3.77,0.72l-2.69,1.61l-1.79,3.77l-5.38,4.66l-1.61,0.18l-2.51,3.77l-2.51,1.97l-5.2-0.9
	l-2.15,0.18l-1.61,1.08l-1.61,5.56l-1.61,1.61l-0.18,2.51l0.18,7.89l5.56,1.08l1.97,1.44l0.18,6.28l1.61,2.51l8.71,9.44l5.46-4.6
	l7.18-16.14l5.92-2.51l22.6-2.87l7.18-4.66l5.2-6.46l4.48-7.89L192.62,41.31z"/>
<path class="st1" d="M141.1,97.89l-9.83-10.65l-1.61-2.51l-0.18-6.28l-1.97-1.44l-5.56-1.08l-0.18-7.89l0.18-2.51l1.61-1.61
	l1.61-5.56l1.61-1.08l2.15-0.18l5.2,0.9l2.51-1.97l2.51-3.77l1.61-0.18l5.38-4.66l1.79-3.77l2.69-1.61l3.77-0.72l3.41-2.69
	l1.79-2.51l4.31-1.61l4.46-6.77c-23.08,2.14-46.16,6.3-69.23,8.03l-0.34,4.48l7.53,25.83l2.51,10.94l-1.44,3.23l-7.89,8.97
	l-3.95,3.95l-2.51,5.38l-1.44,6.1l-0.36,4.66l0.36,8.79l2.86,11.15C111.32,120.82,137.75,117.5,141.1,97.89z"/>
<polygon class="st1" points="131.09,51.54 133.24,52.25 134.32,53.87 134.32,55.48 133.24,56.38 131.45,55.66 130.37,54.23 "/>
<polygon class="st1" points="125.53,38.98 126.96,40.95 127.86,44.72 126.79,45.8 125.17,43.82 124.99,39.52 "/>
<polygon class="st1" points="-37.85,386.98 -38.85,388.78 -39.65,388.88 -39.85,387.88 -39.45,386.48 -38.45,385.38 -37.55,385.38 
	-37.35,385.88 "/>
<polygon class="st1" points="-34.95,388.58 -35.75,389.58 -36.75,389.68 -37.15,388.78 -36.55,387.68 -34.85,386.78 -34.45,387.58 
	"/>
<polygon class="st1" points="126.79,45.8 127.86,44.72 126.96,40.95 125.53,38.98 124.99,39.52 125.17,43.82 "/>
<polygon class="st1" points="133.24,56.38 134.32,55.48 134.32,53.87 133.24,52.25 131.09,51.54 130.37,54.23 131.45,55.66 "/>
<polygon class="st1" points="-38.45,385.38 -39.45,386.48 -39.85,387.88 -39.65,388.88 -38.85,388.78 -37.85,386.98 -37.35,385.88 
	-37.55,385.38 "/>
<polygon class="st1" points="-36.55,387.68 -37.15,388.78 -36.75,389.68 -35.75,389.58 -34.95,388.58 -34.45,387.58 -34.85,386.78 
	"/>
</svg>
