<?xml version="1.0" encoding="utf-8"?>
<!-- Generator: Adobe Illustrator 25.2.1, SVG Export Plug-In . SVG Version: 6.00 Build 0)  -->
<svg version="1.1" id="Слой_1" xmlns="http://www.w3.org/2000/svg" xmlns:xlink="http://www.w3.org/1999/xlink" x="0px" y="0px"
	 viewBox="0 0 200 200" style="enable-background:new 0 0 200 200;" xml:space="preserve">
<style type="text/css">
	.st0{fill:#FEFEE9;stroke:#646464;}
</style>
<path id="path3119" class="st0" d="M40.46,112.47l2.49-1.83l2.88-3.93l1.05-2.1l2.36-0.13l1.97,1.44l1.18,1.18l1.18,0.13l-0.13-1.97
	l0.52-2.62l1.57-0.79l0.13-3.15l1.31-0.13l-0.13-1.05l1.05-1.31l1.05,0.52l2.36-4.32l1.44-2.62l2.1-2.1l1.97-1.31l1.44,1.05
	l2.23,0.13l1.18-1.05l3.8,0.13l-1.05-1.44l0.13-1.18l-0.79-0.66l-0.13-0.66l0.13-1.57l1.44-1.57l1.18,0.13l1.97,1.18l1.18-1.31
	l0.79-1.31l1.44,1.83l2.1-2.1l-1.44-1.97l4.72,0.52l2.36-1.57l-0.79-1.31l1.05-2.1l1.18,0.66L89.6,70.8l2.1-1.18l2.62-0.13
	l-1.05-1.83l1.57-1.31h0.79l-0.52-1.97l1.44-0.26l-1.7-2.62l0.52-1.18l-1.31-1.97l0.39-2.1l-1.97-3.41l2.1-3.15l2.23-1.18L99.43,48
	l0.66-1.44l-2.75-1.83l-1.7-1.97l0.79-1.31l0.13-0.66l-1.31-1.83l-1.18-0.79l-1.57-0.26l1.05-1.97v-1.97l0.26-0.39l-1.57-1.31
	l0.39-1.97l1.57-0.52v-1.83l0.52-0.66l-0.52-1.44l0.13-1.31l0.66-1.7l1.57-0.13l0.13-3.41l0.52-1.57l1.05-1.31l-1.7-1.18l-0.52-1.97
	l-0.66-0.66l1.31-1.83l-2.1-2.75l-1.31-2.75l0.13-1.97L94.71,2l0.52,0.13v0.52l-0.39-0.13l-0.13,0.13l0.52,0.66l0.26-0.13
	l-0.13,0.39l6.68-0.66l1.31-0.13l7.99,0.79l1.97,1.57l-1.44-0.13l-0.13,3.15l3.8,0.13l-1.57,24.38l10.75,0.92l-1.18,16.12l1.31,1.18
	l2.23,0.52l0.66,1.18v1.31l0.26,0.52h0.66l0.79-0.66l1.18-1.31l0.79-0.13l0.66,0.66l0.39,0.79l1.18,1.18l-1.31,0.52l4.59,9.04
	l2.62,7.34l2.49,6.03l0.52,4.19l-6.81,2.62l5.77,15.2l1.31,1.97l-1.18,0.79v0.66l1.18-0.13l0.13,1.18l-0.13,1.05l-0.66,0.13
	l-0.66,0.79l-0.66,0.13l-0.13,1.44h-0.66l-0.66,1.44l0.79,0.13l-0.39,0.66l0.39,0.52l-0.79,0.52l0.52,1.18l-0.79,0.13l0.13,0.66
	l-0.66,0.79l-0.52,0.13l-0.26,0.66l0.52,0.79l-0.52,0.52l0.26,0.52l-0.52,0.52l0.13,1.44l-0.66-0.13l0.13,0.79l-0.13,0.39
	l-0.79-0.13l-0.13,0.66l-0.66-0.13l-0.13,0.66l0.39,0.79l-1.18,1.44l0.13,0.66l0.79,0.26v0.52l-0.66,0.13l0.13,0.66l-0.66,0.13
	l0.52,0.79l-0.13,1.18l-0.79,1.7l0.26,0.52v0.66l-0.79,0.13l-0.13,0.79l-0.66,0.52l-0.13,0.66l0.52,0.79v1.44l0.52-0.13l0.39,0.13
	l-0.39,1.97l-0.39,0.52l0.13,0.66l-0.26,0.52l0.26,0.66h0.66v0.26l0.66,0.66l0.13,0.66l-0.13,0.39l-0.52-0.13l-0.52,1.05l0.66,0.92
	l1.05,0.13l0.79,1.18l-0.52,0.66l0.13,0.39l-0.39,3.28l-0.66,0.13l-0.13,0.66l0.66,0.79l0.52,0.39l-0.13,1.18l1.05,0.39h-0.26v0.13
	h-0.13l0.13,0.52l0.66-0.13l-0.26,1.18l0.13,0.13l-0.13,0.13l0.26,0.52l-0.52,0.79l0.39,0.66l0.52-0.13v0.39l0.79,0.39l-0.13,0.26
	l0.13,0.39l1.05,0.39l-3.8,7.86l-4.98,8.78l-3.15-1.44l-4.46,1.05l-1.83,0.13l-4.32,1.83h-0.66l-0.52,5.77l-1.57-0.13l-4.72-1.18
	l-5.37,10.35l0.66,1.57l-0.13,1.97l0.26,0.92l-0.13,1.18l0.52,1.05l-9.44-1.31l0.66-0.13l0.39-0.66l-0.66-0.52l-0.26-0.52l0.26-0.13
	l0.39,0.26l0.39-0.66l-0.39-0.52l-8.39-3.15l1.83-6.29l-11.27-3.54l1.57-4.06l-13.76-7.08l5.11-7.21l-2.75-1.18l8.39-14.42
	l-3.93-1.44l-2.75-0.52l-1.44-1.18l-1.83,0.79l-0.39-0.13l-0.13-0.79l-0.79-1.31l-1.31-1.31l-0.52-1.97v-2.36l-1.05-1.44l-0.66-1.97
	l-1.83-0.52l-0.66-0.79l0.66-1.18l-0.52-0.52l-0.52-2.36l-4.19-1.05l-2.62,0.13l-3.15-1.44l-2.49-0.66l-1.57-1.97l0.26-1.97
	l-2.1-2.49l-1.31-0.66l-1.31-1.83L40.46,112.47"/>
</svg>
