<?xml version="1.0" encoding="utf-8"?>
<!-- Generator: Adobe Illustrator 25.2.1, SVG Export Plug-In . SVG Version: 6.00 Build 0)  -->
<svg version="1.1" id="Слой_1" xmlns="http://www.w3.org/2000/svg" xmlns:xlink="http://www.w3.org/1999/xlink" x="0px" y="0px"
	 viewBox="0 0 200 200" style="enable-background:new 0 0 200 200;" xml:space="preserve">
<style type="text/css">
	.st0{fill:#FEFEE9;stroke:#646464;}
</style>
<polygon class="st0" points="69.38,21.28 66.83,25.16 65.62,25.65 65.5,23.22 66.71,21.04 66.1,20.31 64.16,19.34 63.07,19.46 
	61.37,21.16 59.43,20.67 57.73,23.1 56.27,22.86 55.06,21.89 50.93,22.01 48.63,24.19 46.69,23.71 50.81,21.28 52.27,20.67 
	53.48,19.58 52.51,18.97 50.57,18.97 49.96,17.15 49.24,17.28 48.27,18.61 45.23,21.64 42.2,24.19 39.89,24.19 37.22,25.89 
	35.4,26.01 31.52,24.31 29.34,24.19 26.3,25.53 22.18,33.05 19,37.88 19.26,37.9 24.24,31.96 28.24,33.41 30.55,35.96 38.44,43.24 
	42.08,50.16 39.04,55.5 35.52,59.87 30.67,63.02 15.38,64.96 11.38,66.66 6.52,77.58 2.74,80.74 3.85,81.95 5.19,85.83 5.92,94.08 
	6.52,96.27 11.86,102.94 16.96,110.83 20.36,114.59 24.24,117.99 26.18,121.63 27.39,122.6 29.58,121.39 32.49,121.39 36.01,122.72 
	39.41,123.21 41.23,121.75 42.68,121.27 45.35,121.27 50.09,118.11 52.27,116.65 53.48,116.41 54.09,117.62 52.27,119.57 
	43.78,123.93 43.17,124.42 43.41,125.03 45.35,126 48.39,126.6 50.81,127.82 52.75,128.06 59.06,132.19 62.83,135.83 64.65,138.13 
	65.74,141.53 65.74,143.96 63.92,149.9 62.22,152.57 62.1,154.39 63.19,159.97 65.86,166.04 71.93,173.81 75.57,180.96 76.9,182.06 
	79.81,183.76 83.7,183.76 87.58,185.09 89.89,186.55 94.01,192.13 95.22,192.73 96.44,192.49 98.38,187.64 99.71,185.7 
	102.38,184.48 104.57,182.3 105.54,180.6 106.27,178.17 106.14,173.81 107.36,175.14 108.57,174.9 110.39,172.35 121.56,162.4 
	122.08,161.81 121.68,161.43 118.76,161.67 119.74,160.34 118.64,159.85 118.76,159.37 119.98,159.37 120.71,158.88 120.95,160.22 
	121.56,156.7 119.61,153.06 118.28,149.29 120.1,147.84 120.1,145.9 122.04,139.34 121.56,132.43 122.04,125.27 111.36,123.81 
	112.58,114.23 114.52,101.37 115.73,97.6 117.67,98.33 124.83,94.57 124.83,97.73 126.17,97.85 126.77,96.39 126.29,95.18 
	127.02,93.48 127.74,94.21 129.56,95.18 132.72,95.18 132.6,93.72 130.29,93.36 129.68,91.05 123.62,88.87 123.74,88.26 
	121.8,85.96 119.37,84.13 122.4,78.19 120.71,76.73 121.19,74.91 123.13,74.91 124.95,75.4 129.32,80.86 134.05,81.1 135.75,82.19 
	142.55,83.65 146.31,79.16 148.25,78.31 148.25,76.98 145.82,74.43 145.46,71.39 145.94,70.06 147.64,69.57 149.95,69.57 
	151.28,68.85 150.31,67.15 148.49,65.69 146.67,64.72 145.94,62.78 146.31,60.59 147.64,59.38 149.71,56.35 152.13,57.44 
	154.2,56.11 157.84,56.71 158.81,55.74 161.72,55.26 161.23,56.23 163.05,58.77 160.63,61.44 159.17,61.44 158.69,60.84 
	158.69,59.26 156.99,59.14 154.56,60.35 154.56,61.69 157.47,63.02 159.66,63.63 161.35,63.51 162.34,63.73 163.54,61.81 
	166.21,60.72 167.91,61.81 168.64,65.69 165.97,65.21 163.66,67.39 164.63,67.39 165.84,67.88 165.84,70.06 167.18,71.15 
	172.03,65.21 171.55,65.08 173.13,63.14 174.82,62.17 174.82,56.83 176.4,54.53 177.37,54.77 179.68,56.47 179.56,54.77 
	180.89,53.68 181.62,52.22 181.74,52.83 182.35,52.95 184.65,56.47 185.38,53.44 186.47,53.56 190.23,54.89 192.54,43.36 
	193.03,38.27 194.24,38.63 197.88,38.75 198,33.9 196.18,33.41 195.57,33.78 195.45,36.33 193.75,36.57 192.42,32.69 192.42,27.71 
	191.93,27.23 192.05,27.23 183.56,22.86 182.23,23.83 178.59,28.2 171.43,38.39 160.75,31.59 157.59,37.9 154.44,44.09 150.8,49.67 
	150.19,55.86 141.21,54.04 141.94,50.4 133.57,48.46 125.07,47.13 122.4,40.33 119.49,37.05 118.89,35.11 116.58,32.57 115.37,27.1 
	116.34,26.5 114.76,25.41 111.24,27.59 105.9,29.9 102.63,27.71 100.93,28.44 98.5,27.71 98.99,33.17 96.44,33.05 94.74,31.11 
	93.65,32.57 93.53,34.26 91.34,33.78 91.46,33.05 92.43,31.84 95.47,29.53 95.1,27.71 94.5,26.26 94.5,24.92 94.01,23.1 
	92.55,23.71 90.01,26.01 89.4,28.56 88.07,28.56 87.34,27.83 85.52,29.05 84.42,32.08 85.52,32.69 85.88,30.87 87.94,31.23 
	88.31,33.54 87.94,34.14 84.79,35.84 80.66,31.11 77.75,31.84 77.02,30.62 76.42,28.8 73.38,27.47 71.56,30.14 69.74,29.05 
	67.8,26.13 68.29,23.22 70.59,19.34 70.23,15.21 67.92,14 67.32,14.65 69.86,19.34 "/>
</svg>
