<?xml version="1.0" encoding="utf-8"?>
<!-- Generator: Adobe Illustrator 25.2.1, SVG Export Plug-In . SVG Version: 6.00 Build 0)  -->
<svg version="1.1" id="Слой_1" xmlns="http://www.w3.org/2000/svg" xmlns:xlink="http://www.w3.org/1999/xlink" x="0px" y="0px"
	 viewBox="0 0 200 200" style="enable-background:new 0 0 200 200;" xml:space="preserve">
<style type="text/css">
	.st0{fill:#FEFEE9;stroke:#646464;}
</style>
<path id="path3055" class="st0" d="M43.72,104.68l3.19,0.73l1.64-0.82l0.91,0.36h2.19l1.46,1.28l3.1-1l-0.09-1.73l1.28,0.09
	l1.09-0.09l0.09-3.74l0.36-1.92l-0.36-2.01l1.37-1.73l0.27-2.74h-0.09l0.18-2.55l1-1l5.29-3.83l1.55,0.09l3.1,3.56L73,89.63
	l2.55,0.36l4.2-0.64l1.28-1.37l0.09-1.28l0.46-1.46l-0.82-2.19l-0.82-2.92l-3.28-2.65l-1.09-1.46l0.18-1.28l0.55-0.91l0.82-0.18
	l1.82,0.09l0.46-0.82l-1-1.19l0.36-1.92l-0.73-0.91l-1,0.36l0.09,2.46l-1,0.09l-0.46,1.28l-1.46,0.82l-4.01-1.28l-1.64-4.38
	l1.82-0.82l-0.09-1.28h-1l-0.18-2.65l-0.73-0.73l-0.73,0.09v0.91l-1.46,1.37l-2.19-2.19l-1.82,1.73l-2.19-0.36l-1.55,1.37
	l-2.55-0.18l-0.91-1.73l3.28-0.36l-0.09-3.19h1.28l0.46,1.46l2.37-0.27l0.09-1.92l4.47-2.19l2.19,1.09l0.18-0.09l-0.18-2.19l3.1-1
	l-0.27-0.73l-1.64,0.18l-0.91-0.82l-0.09-1.64l0.36-1.09l1.19-1.37v-0.82l-1.19-0.09l-1.28,1l-0.91,0.27l-0.27,1.09l0.55,0.27
	l-0.73,1.37l-1.09,0.46l-4.38,0.27l-0.91,0.46l-1.82-1.37l-0.73-1.09l0.55-1l1.28,0.36l0.82-0.91l-0.46-1.82l0.82-2.28l1.92-2.01
	l2.19-1.09l0.73-0.91l-0.36-0.73l-1.92,0.55l-1-0.55l0.91-1l1.92-0.46l0.27-1l-2.74,0.91l-0.82,0.55l-0.46,1.46l-1,1.28H59.5l0.36,1
	l-0.09,0.64l-1.82,1.64h-0.91l-0.46-0.46l1-1.92l-0.82-1.82l0.82-2.83l0.36-2.46l1-1.28l0.55-0.18l-0.82-1.73l-1.19,0.55l-1.82-1.28
	l-0.27-0.91l0.09-1.37l1.46,0.09l0.91-0.36l-0.46-0.82h-0.36v-2.28l1.37-1.09l-0.36-1.82l-2.19-1.46l1.37-0.91h1.37l0.91,1.92
	l0.82,1.19l0.82-2.65l1.46-0.73l1.92-1.37l0.55-1l4.01-0.46l-1.37-3.1l-0.73-2.28l-0.91-1.73l0.27-1.46l1.55-0.64l0.46,0.18
	l2.28-2.28l0.46-4.65l0.36-0.09l0.09-0.36h0.09V2.15l0.82-0.18l-0.09,0.09l0.27,0.09l0.27-0.46h0.46l0.27,0.46l0.91,0.27l0.91,0.82
	h0.27v0.09h0.18v0.18h0.09V3.42L76.1,3.7l0.46,0.09h-0.09h0.27v0.09l0.73,0.09v0.09h0.18v0.09h0.36v0.09h0.27v0.18H78.2v0.09h-0.09
	v0.27h0.09v0.27l0.18,0.09h-0.09v0.36h0.09h-0.09v0.46l-0.27,0.09l-0.09,0.82h-0.09v0.09h0.09v0.09l3.28-1.37l0.73,1.46l1.73,2.19
	l2.28,1.46l3.19-0.73l2.46,0.09l0.27-0.09l4.1,5.84l-1.64,0.18v7.12l-2.83,1.37l-2.83,3.1l0.46,2.28l0.09,1.73l1.46-0.27l2.37-2.74
	l3.1,0.46l-0.09,3.1l-3.19,1.92l-2.83,1.09l-1.82,1l-2.74-0.73l-3.65-0.09v2.46L85.13,38l0.27,2.28l-1.92,0.73v1.73l2.28,2.28
	l-0.09,1l1.28,0.09l0.55-0.73l4.2,1.37l1.92,2.01l1.46-1.46l3.19,2.28l7.48-1.19l-2.28,1.73l0.82,1.28l1.28,1.37l0.73,1.37
	l2.46,0.91l2.28-0.09l2.01,1.82l2.83,1.09l6.75-4.1l6.02,1.37l7.66,0.46l5.02,1.28l-1.09,1.64l-1.64,1.82l0.82,4.74l1.46,2.19
	l1.37-0.64l1.28,0.55l0.36,2.83l-0.91,0.27l-0.82,2.28l0.91,2.01l-0.55,2.74l-0.09,4.1l0.73,0.91l1.37,0.46l0.36,0.91l-1,1.82
	l-0.09,1.28l0.55,2.28l1.28,1.73l0.73,0.55l1.46-0.27l1.92-1.37l3.01,0.27l0.46,1.37l-1.37,1.46l-0.82,1.37l-0.73,2.19l-0.09,1.46
	l-4.1-0.91l-1.46-0.09l-1,1.09l-0.46,3.56l0.91,2.55l-0.55,4.1l-0.82,1.09l-0.09,1.73l2.55,0.82v1.46l-1.28,1l-0.73,1.46l0.82,1.82
	l-0.82,1.64l0.82,0.91l1.19,0.09l0.18,1.28l2.55,2.19v0.91l2.92,1.82l4.1,0.82h2.19l1.55,1.37l0.09,1.37l1.55,1.37l-0.09,3.65
	l-7.48,3.38l-1.73,0.91l-5.38-2.74l-1.09,1.82l-2.74,3.65l4.2,2.83l0.46,2.74l-0.55,1.46l-4.47,5.93l-3.01,0.82l-4.29,2.01
	l-3.19,2.74l-0.91-1l-2.37,0.91l-0.27-0.91l0.73-1.37l-0.36-0.46l-2.83,0.91l-0.46,1.82l-1.46-0.82l-0.27,0.55l1.19,1.73l0.09,2.28
	l-2.74,1.55l-0.73-1l-1.09,0.09l-0.09,0.91l-1.28,1l1.46,3.01v3.56l-0.73,3.1l-0.55,1.19l1.46,0.09l0.36,0.36l0.09,0.91l-1.73,0.82
	l0.27,2.37l0.46,1.92l-1.37,2.01l0.46,2.19l-1.46-0.55l-0.55,1.46l-1-1.46l-1,1l-2.01-0.09l-2.74,0.73l0.91-1.28l-0.55-2.37
	l-2.74,1.19l-4.1,2.46l-3.19,0.46l0.91,1.82h0.46l1,0.46l0.73,1.09l-0.46,3.28l-1.82,1.82L98.63,199l-2.83-0.82l-1.92-1.73
	l-1.46-0.09l-0.36-2.19l-0.73-0.36H90.6v-1.73l-3.83-0.55l-0.82-1l-0.55-2.28l-1.19,0.55l-0.09,1.92l-0.91-0.36l-1.09-0.82
	l-1.28,0.27l-1-1.64h-1.82l-0.09,1.28h-1.19l-2.46-1.82v-3.1l4.2-1.73l0.27-1.09l-1-0.09l0.82-1.28l-0.73-1.82l-0.82-0.46
	l-0.27-2.46l-0.55-0.36l-0.09-1.92l-2.28-2.92l0.09-1.82l-0.91-1l0.82-2.28l-0.73-1.28l-1.92,1.73l-0.82-0.73l-0.09-1.28l-1-0.18
	l-0.09-1.82l0.46-0.82l0.91-0.91l0.46-1.37l-0.82,0.27l-0.82-1.73l0.55-0.73l0.73,0.73l1.19-0.46l-1-2.55l-2.28-2.01l1.64-1.28
	l-0.73-0.55l0.55-0.36l-0.73-2.37l0.46-1l1.09-0.82l1.82,0.55l1,1.37h0.73v-2.01l-2.74-3.83h-0.82l0.55,1.73l-4.38,0.27l-1.64-0.55
	l0.46-1.09l1.82-1.28l0.09-3.56l-0.36-0.82l0.55-1.82l-1-1.28l-2.37-3.74l-0.91-3.56l-1.09-1.37l-1.46-0.09l-0.27,2.19l1.37,3.01
	l-3.65,1.37l-0.73-6.93l-0.36-1.46l-1-1.64l0.36-1.73l2.74-1.09l1.64-0.91l-1-1.46l-5.11-2.74l-2.37-3.56l-2.65-0.27h-2.83
	l-1.73,0.36l-0.82-0.73l0.55-1.37l2.01,0.09l1.09-0.18l0.09-0.73l-2.83-0.55L43.72,104.68"/>
</svg>
