<?xml version="1.0" encoding="utf-8"?>
<!-- Generator: Adobe Illustrator 25.2.1, SVG Export Plug-In . SVG Version: 6.00 Build 0)  -->
<svg version="1.1" id="Слой_1" xmlns="http://www.w3.org/2000/svg" xmlns:xlink="http://www.w3.org/1999/xlink" x="0px" y="0px"
	 viewBox="0 0 200 200" style="enable-background:new 0 0 200 200;" xml:space="preserve">
<style type="text/css">
	.st0{fill:#C6ECFF;stroke:#0978AB;stroke-width:0.5;}
	.st1{fill:#FEFEE9;stroke:#646464;}
</style>
<polygon class="st0" points="-37.85,386.98 -38.85,388.78 -39.65,388.88 -39.85,387.88 -39.45,386.48 -38.45,385.38 -37.55,385.38 
	-37.35,385.88 "/>
<polygon class="st0" points="-34.95,388.58 -35.75,389.58 -36.75,389.68 -37.15,388.78 -36.55,387.68 -34.85,386.78 -34.45,387.58 
	"/>
<polygon class="st0" points="-38.45,385.38 -39.45,386.48 -39.85,387.88 -39.65,388.88 -38.85,388.78 -37.85,386.98 -37.35,385.88 
	-37.55,385.38 "/>
<polygon class="st0" points="-36.55,387.68 -37.15,388.78 -36.75,389.68 -35.75,389.58 -34.95,388.58 -34.45,387.58 -34.85,386.78 
	"/>
<path id="path3129" class="st1" d="M6.33,184.96l6.74-40.93l6.74-0.48l1.44-12.52l10.59,2.41l3.85-11.56h12.52l0.48-16.85
	l12.52,2.89V97.81l-9.15-4.33l2.41-9.15l15.89,2.41L68.92,72.3l18.78,0.48l1.93-17.81l-5.3-17.33l-5.3-9.15l-6.26-5.78l2.41-5.3
	l9.63-3.85l3.85-4.33L97.81,2l19.74,2.89l-5.78,29.37l2.89,19.26l32.74,4.33l-2.89,29.85l12.52,1.44l6.26,13.96l8.19,3.85l9.63-7.7
	l7.7,9.63l-4.33,5.3l-3.85,6.74l-1.93,31.3l-14.93,11.56l-1.93-13l-11.56,5.78l-4.33-2.41l2.41-10.11l-7.7-1.44L129.11,132
	l-12.04,7.22l-9.63,7.7l-5.3,10.59l-10.11,2.89l-9.15,1.44l-2.41,10.11H57.85l-8.19,10.11H37.15L18.37,197L6.33,184.96"/>
</svg>
