<?xml version="1.0" encoding="utf-8"?>
<!-- Generator: Adobe Illustrator 25.2.1, SVG Export Plug-In . SVG Version: 6.00 Build 0)  -->
<svg version="1.1" id="Слой_1" xmlns="http://www.w3.org/2000/svg" xmlns:xlink="http://www.w3.org/1999/xlink" x="0px" y="0px"
	 viewBox="0 0 200 200" style="enable-background:new 0 0 200 200;" xml:space="preserve">
<style type="text/css">
	.st0{fill:#FEFEE9;stroke:#646464;}
</style>
<path id="path3035" class="st0" d="M111.37,2l-8.93,11.45l-1.16-1.16L97.3,7.57L94.78,4L93.1,5.05l-1.47,3.36l-2.52,2.1l-0.53,1.68
	l-0.95,1.16l-0.11,1.58l-1.47,1.16l1.05,2l-1.89,0.53l0.42,1.68l-0.95,2.1l1.58,1.05v2.1l2,0.11l2,1.47l1.68,2.1l0.95,3.05L93,34.55
	l0.84,1.16l0.11,1.68l2.21,0.63l-1.89,1.68l1.16,0.11l1.26-1.05l1.89,0.95l1.16,1.58l1.58-0.21V44l-3.26,1.05l0.84,0.63l0.21,2.1
	l-1.68-1.68l-0.63,1.47l0.21,1.47l-0.42,1.05l0.42,1.16l-2.73-0.42l-10.29-0.84l-8.3,1.16l-5.25-0.63l-1.68,7.25l2.52,0.11
	l5.04-1.26l2.21,8.51l-8.4,1.47l-5.25,2.63l3.05,3.78l0,3.47l-2.73-0.21l-11.34,0.42l-7.25-1.58l-1.26,0.84l-4.73,8.82l0.11,2.52
	l4.2,0.63l-0.42,2.94l-1.58,1.68l0.53,4.62l-3.26,1.58l-0.95,0.84l-2.73,3.36l5.78,1.47l-1.26,1.89l-1.89,2.1l0.95,5.46l1.68,2.52
	l1.58-0.84l1.47,0.63l0.42,3.26l-1.05,0.21l-0.95,2.63l1.05,2.31l-0.63,3.15l-0.11,4.73l0.84,1.05l1.58,0.53l0.42,1.05l-1.16,2.1
	l-0.11,1.47l0.63,2.63l1.47,2l0.84,0.63l1.68-0.21l2.21-1.58l3.36,0.21l0.53,1.58l-1.58,1.68l-0.95,1.58l-0.84,2.52l-0.11,1.68
	l-4.73-1.05l-1.68-0.11l-1.16,1.26l-0.53,4.1l1.05,2.94l-0.63,4.73l-0.95,1.26l-0.11,2l2.94,0.95v1.68l-1.47,1.16l-0.84,1.68
	l0.95,2.1l-0.95,1.89l0.95,1.05l1.26,0.11l0.21,1.47l2.94,2.52v1.05l3.36,2.1l4.73,0.95h2.52l1.89,1.58l0.11,1.58l1.89,1.58v-0.21
	l3.78-1.47l1.47-0.21l1.47-1.58l0.95-1.89l1.68-1.89l1.26-0.63l1.47-1.47l0.63-0.95l1.26,0.11l0.53-1.89l1.89-0.21v-0.84h0.53v-0.84
	l0.84-2.63l0.63,0.21l-0.11,1.89l3.15,1.16L85.33,178l-1.05,2.52l2.63,2.73v0.95l-1.26,1.89l-1.89,0.42l0.95,1.68l1.26,1.26
	l1.68-1.05l0.95-0.84v-1.16l3.36-0.53l2.31,1.26l0.53-0.63v-3.99l1.26,0.42l2.1,2.31l1.68,0.11l-1.47,2.1v3.26l-1.16-0.42l1.16,3.15
	l5.46,0.21l1.26,3.05l-1.89-0.11l0.53,2.31h3.36V199l2-0.21l0.42-2.31l-0.63-2.21l-0.84-1.68l-1.58-2.31l-2.63-5.04l1.26-0.42
	l1.89,1.68l1.05-0.42l2-1.47l1.68-2.52l0.21-3.36l0.95-2.1l2.52-0.21l1.68,1.58l-1.16,1.58l1.89,1.68l2.1,0.63l2.31,0.21l1.16,1.58
	l1.16-0.21l2.1-1.16l0.21-1.58l-2.94-0.21v-0.42v-1.16l6.41-4.41l3.36,1.26l-1.26,2.52l4.41,2.1l4.1,1.16l0.53,0.95l1.68,0.95
	l3.05-0.42l-1.05,3.57l2.52-0.11l1.16-2.63v-7.56l2.1-3.99l2,1.05l2.52-3.57l2.21-0.11l3.68-2.1l-18.69-20.58l-11.34-12.39
	l-1.26-2.63l-4.62,3.99l-8.93,7.56l-2.1,0.95l-0.11-2.21l-3.15,1.68l-0.21,2l-0.95,0.95l-3.68-0.84l-0.63,0.53l1.16,2.73h-0.95
	l-0.63-0.21l-0.95,0.21l-0.95,1.16l0.21,2.31l2.31,1.58l0.11,0.42l-0.42,2.73v1.47v0.84l-1.58,1.05l-1.68-0.53l-1.16,0.21
	l-1.68-1.58h-1.47l-1.26-1.05l0.11-1.68l-1.26-2.73l0.42-1.68l-1.58-0.84l-1.05,0.11l-0.42,0.53l0.63,0.63l-0.11,1.47l-0.84,0.63
	l-0.21,0.53l0.21,1.05l-0.42,2.52L91,158.89l-2-0.21l-5.25-2.52l-5.04-1.47l6.3-1.47l-0.84-2.21l0.21-1.68l1.16-2.1l1.58,0.11
	l0.53-1.47l-0.84-0.63l-0.42-0.95l-0.84-0.63l-1.47-0.53l-1.89,1.16l-0.42-0.42l-0.21-1.26l0.11-1.47l0.84-0.63l-1.58-2.21
	l0.63-1.47l-0.53-2.63l-0.84-1.05l-0.95-0.53l-0.95-0.11l-0.95,0.63l-0.84,0.95l0.11-1.16l1.16-1.05v-0.84l-1.05-0.84l-1.47,0.84
	l-0.63-1.05l-2.1-1.05l-1.89-0.21l-1.47,0.11L68,129.38l-2.94-0.11l0.11-1.47l0.84-0.53l0.53-0.63l0.11-1.05l-0.63-0.84l-0.63-1.47
	l0.53-0.53l0.95,0.11l0.63-0.53l0.63-1.58l2.1-1.47l0.53-1.26l-0.21-1.16l-1.68-0.95h-2.31l-1.89-0.42l-0.84-1.47l1.05-0.95
	l2.52-0.11l0.63-0.95l-1.26-2.73l0.53-1.68h0.63l2,0.63l1.26,1.58l1.68,1.47l0.95,0.53l2.31,0.11l1.47-0.53l1.05-0.95v-1.16
	l0.95-0.21l0.21-1.26l0.63-0.21l2.31-0.11l1.58-0.84l0.53-2.1l-0.95-3.05l0.21-2.1l3.15,1.26l2.52-0.63l-0.42-0.63l-3.57-2.1
	l-2.21-0.42l-1.26-1.05l-0.42-0.53l-0.84-2.1l1.58-0.21l5.36,2.1l0.21-0.53l-0.21-1.16l-1.26-0.84L84.8,92.1l-1.47-1.58l0.21-1.26
	l3.36,1.16l4.31-2.21l1.58-1.68l1.58-1.26l1.68-0.21l0.21-0.42l-0.53-0.95l1.05,0.11l1.16-0.21l1.26,1.05l2.1-0.21l1.89-1.47
	l2.63,0.95l1.26,2.52l0.21,1.16l-0.53,0.11l-1.05,0.63l0.11,1.47l0.53,1.16h1.58l2.31,0.42l1.26-1.68l-1.47-0.84l0.95-0.53
	l0.53-2.21l1.47,0.21l-0.11-1.16l1.26,0.84l0.95,1.26l-0.11-3.68l2.1,2.1l3.15-0.21l8.61,0.21l2.73,1.58l-0.95-21.21l0.63-13.65
	l0.11-28.56l-6.93-7.56l-10.29-4.2l-0.63-0.42l0.11-0.84h0.11l-0.11-0.21l-0.42-0.21l0.11-0.53l-0.11-0.95l0.11-0.21h0.11l0.11-0.95
	h0.11l0.11-0.21h0.11l0.11-0.21l0.42-0.11l0.11-0.95h0.21V6.2h0.11V5.99h0.11V5.05h-0.11V4.94l-1.26-0.42l-2.52-1.58L111.37,2z"/>
</svg>
